%TF.GenerationSoftware,KiCad,Pcbnew,(5.1.4)-1*%
%TF.CreationDate,2022-10-13T23:08:16+01:00*%
%TF.ProjectId,LED_Quad,4c45445f-5175-4616-942e-6b696361645f,rev?*%
%TF.SameCoordinates,Original*%
%TF.FileFunction,Soldermask,Bot*%
%TF.FilePolarity,Negative*%
%FSLAX46Y46*%
G04 Gerber Fmt 4.6, Leading zero omitted, Abs format (unit mm)*
G04 Created by KiCad (PCBNEW (5.1.4)-1) date 2022-10-13 23:08:16*
%MOMM*%
%LPD*%
G04 APERTURE LIST*
%ADD10C,3.500000*%
%ADD11C,2.000000*%
%ADD12R,3.500000X3.500000*%
%ADD13O,3.000000X5.000000*%
%ADD14O,5.000000X3.000000*%
%ADD15C,2.500000*%
%ADD16R,2.000000X2.000000*%
G04 APERTURE END LIST*
D10*
X81235000Y-65064400D03*
X72435000Y-65064400D03*
D11*
X79335000Y-58064400D03*
X76835000Y-58064400D03*
X74335000Y-58064400D03*
D10*
X123047760Y-27365960D03*
D12*
X128127760Y-27365960D03*
D10*
X106861186Y-27391360D03*
D12*
X111941186Y-27391360D03*
D10*
X90674613Y-27391360D03*
D12*
X95754613Y-27391360D03*
D10*
X74488040Y-27391360D03*
D12*
X79568040Y-27391360D03*
D13*
X142891240Y-30538160D03*
D14*
X138191240Y-27538160D03*
X138191240Y-33538160D03*
D15*
X121726880Y-35501880D03*
D11*
X121726880Y-53281880D03*
X124266880Y-53281880D03*
X126806880Y-53281880D03*
D16*
X129346880Y-53281880D03*
D15*
X129346880Y-35501880D03*
X105521680Y-35501880D03*
D11*
X105521680Y-53281880D03*
X108061680Y-53281880D03*
X110601680Y-53281880D03*
D16*
X113141680Y-53281880D03*
D15*
X113141680Y-35501880D03*
X89316480Y-35501880D03*
D11*
X89316480Y-53281880D03*
X91856480Y-53281880D03*
X94396480Y-53281880D03*
D16*
X96936480Y-53281880D03*
D15*
X96936480Y-35501880D03*
X73111280Y-35501880D03*
D11*
X73111280Y-53281880D03*
X75651280Y-53281880D03*
X78191280Y-53281880D03*
D16*
X80731280Y-53281880D03*
D15*
X80731280Y-35501880D03*
D10*
X113699586Y-65064400D03*
X104899586Y-65064400D03*
D11*
X111799586Y-58064400D03*
X109299586Y-58064400D03*
X106799586Y-58064400D03*
D10*
X97467293Y-65064400D03*
X88667293Y-65064400D03*
D11*
X95567293Y-58064400D03*
X93067293Y-58064400D03*
X90567293Y-58064400D03*
D10*
X129931880Y-65064400D03*
X121131880Y-65064400D03*
D11*
X128031880Y-58064400D03*
X125531880Y-58064400D03*
X123031880Y-58064400D03*
M02*
