M48
; DRILL file {KiCad (5.1.4)-1} date 13/10/2022 23:11:12
; FORMAT={-:-/ absolute / metric / decimal}
; #@! TF.CreationDate,2022-10-13T23:11:12+01:00
; #@! TF.GenerationSoftware,Kicad,Pcbnew,(5.1.4)-1
; #@! TF.FileFunction,Plated,1,2,PTH
FMAT,2
METRIC
T1C0.900
T2C1.000
T3C1.100
T4C2.000
%
G90
G05
T1
X110.602Y-53.282
X113.142Y-35.502
X73.111Y-35.502
X73.111Y-53.282
X75.651Y-53.282
X78.191Y-53.282
X80.731Y-35.502
X80.731Y-53.282
X121.727Y-35.502
X121.727Y-53.282
X124.267Y-53.282
X126.807Y-53.282
X129.347Y-35.502
X129.347Y-53.282
X89.316Y-35.502
X89.316Y-53.282
X91.856Y-53.282
X94.396Y-53.282
X96.936Y-35.502
X96.936Y-53.282
X105.522Y-35.502
X105.522Y-53.282
X108.062Y-53.282
X113.142Y-53.282
T2
X84.882Y-67.986
X84.882Y-73.066
X101.199Y-68.006
X101.199Y-73.086
X117.485Y-67.986
X117.485Y-73.066
X133.482Y-68.052
X133.482Y-73.132
X90.567Y-58.064
X93.067Y-58.064
X95.567Y-58.064
X74.335Y-58.064
X76.835Y-58.064
X79.335Y-58.064
X123.032Y-58.064
X125.532Y-58.064
X128.032Y-58.064
X106.8Y-58.064
X109.3Y-58.064
X111.8Y-58.064
T3
X90.675Y-27.391
X95.755Y-27.391
X106.861Y-27.391
X111.941Y-27.391
X74.488Y-27.391
X79.568Y-27.391
X123.048Y-27.366
X128.128Y-27.366
T4
X104.9Y-65.064
X113.7Y-65.064
X88.667Y-65.064
X97.467Y-65.064
X72.435Y-65.064
X81.235Y-65.064
X121.132Y-65.064
X129.932Y-65.064
T1
X137.141Y-27.538G85X139.241Y-27.538
G05
X136.891Y-33.538G85X139.491Y-33.538
G05
X142.891Y-31.588G85X142.891Y-29.488
G05
T0
M30
