solid OpenSCAD_Model
  facet normal -0.999229 -0.0392701 0
    outer loop
      vertex 3.175 0 0
      vertex 3.16521 0.249107 10.5
      vertex 3.16521 0.249107 0
    endloop
  endfacet
  facet normal -0.999229 -0.0392701 0
    outer loop
      vertex 3.16521 0.249107 10.5
      vertex 3.175 0 0
      vertex 3.175 0 10.5
    endloop
  endfacet
  facet normal 0.999229 -0.0392701 0
    outer loop
      vertex -3.175 0 10.5
      vertex -3.16521 0.249107 0
      vertex -3.16521 0.249107 10.5
    endloop
  endfacet
  facet normal 0.999229 -0.0392701 0
    outer loop
      vertex -3.16521 0.249107 0
      vertex -3.175 0 10.5
      vertex -3.175 0 0
    endloop
  endfacet
  facet normal -0.0392701 -0.999229 0
    outer loop
      vertex 0 3.175 0
      vertex 0.249107 3.16521 10.5
      vertex 0 3.175 10.5
    endloop
  endfacet
  facet normal -0.0392701 -0.999229 -0
    outer loop
      vertex 0.249107 3.16521 10.5
      vertex 0 3.175 0
      vertex 0.249107 3.16521 0
    endloop
  endfacet
  facet normal -0.7343 -0.678825 0
    outer loop
      vertex 2.41429 2.062 0
      vertex 2.24506 2.24506 10.5
      vertex 2.24506 2.24506 0
    endloop
  endfacet
  facet normal -0.7343 -0.678825 0
    outer loop
      vertex 2.24506 2.24506 10.5
      vertex 2.41429 2.062 0
      vertex 2.41429 2.062 10.5
    endloop
  endfacet
  facet normal 0.678825 -0.7343 0
    outer loop
      vertex -2.24506 2.24506 0
      vertex -2.062 2.41429 10.5
      vertex -2.24506 2.24506 10.5
    endloop
  endfacet
  facet normal 0.678825 -0.7343 0
    outer loop
      vertex -2.062 2.41429 10.5
      vertex -2.24506 2.24506 0
      vertex -2.062 2.41429 0
    endloop
  endfacet
  facet normal 0.346093 -0.9382 0
    outer loop
      vertex -1.21502 2.93332 0
      vertex -0.981129 3.0196 10.5
      vertex -1.21502 2.93332 10.5
    endloop
  endfacet
  facet normal 0.346093 -0.9382 0
    outer loop
      vertex -0.981129 3.0196 10.5
      vertex -1.21502 2.93332 0
      vertex -0.981129 3.0196 0
    endloop
  endfacet
  facet normal -0.9382 -0.346093 0
    outer loop
      vertex 3.0196 0.981129 0
      vertex 2.93332 1.21502 10.5
      vertex 2.93332 1.21502 0
    endloop
  endfacet
  facet normal -0.9382 -0.346093 0
    outer loop
      vertex 2.93332 1.21502 10.5
      vertex 3.0196 0.981129 0
      vertex 3.0196 0.981129 10.5
    endloop
  endfacet
  facet normal -0.418654 -0.908146 0
    outer loop
      vertex 1.21502 2.93332 0
      vertex 1.44142 2.82895 10.5
      vertex 1.21502 2.93332 10.5
    endloop
  endfacet
  facet normal -0.418654 -0.908146 -0
    outer loop
      vertex 1.44142 2.82895 10.5
      vertex 1.21502 2.93332 0
      vertex 1.44142 2.82895 0
    endloop
  endfacet
  facet normal 0.872481 -0.488647 0
    outer loop
      vertex -2.82895 1.44142 10.5
      vertex -2.70713 1.65893 0
      vertex -2.70713 1.65893 10.5
    endloop
  endfacet
  facet normal 0.872481 -0.488647 0
    outer loop
      vertex -2.70713 1.65893 0
      vertex -2.82895 1.44142 10.5
      vertex -2.82895 1.44142 0
    endloop
  endfacet
  facet normal 0.785318 -0.619093 0
    outer loop
      vertex -2.56863 1.86622 10.5
      vertex -2.41429 2.062 0
      vertex -2.41429 2.062 10.5
    endloop
  endfacet
  facet normal 0.785318 -0.619093 0
    outer loop
      vertex -2.41429 2.062 0
      vertex -2.56863 1.86622 10.5
      vertex -2.56863 1.86622 0
    endloop
  endfacet
  facet normal 0.117529 -0.993069 0
    outer loop
      vertex -0.496679 3.13591 0
      vertex -0.249107 3.16521 10.5
      vertex -0.496679 3.13591 10.5
    endloop
  endfacet
  facet normal 0.117529 -0.993069 0
    outer loop
      vertex -0.249107 3.16521 10.5
      vertex -0.496679 3.13591 0
      vertex -0.249107 3.16521 0
    endloop
  endfacet
  facet normal -0.872481 0.488647 0
    outer loop
      vertex 2.70713 -1.65893 0
      vertex 2.82895 -1.44142 10.5
      vertex 2.82895 -1.44142 0
    endloop
  endfacet
  facet normal -0.872481 0.488647 0
    outer loop
      vertex 2.82895 -1.44142 10.5
      vertex 2.70713 -1.65893 0
      vertex 2.70713 -1.65893 10.5
    endloop
  endfacet
  facet normal -0.9382 0.346093 0
    outer loop
      vertex 2.93332 -1.21502 0
      vertex 3.0196 -0.981129 10.5
      vertex 3.0196 -0.981129 0
    endloop
  endfacet
  facet normal -0.9382 0.346093 0
    outer loop
      vertex 3.0196 -0.981129 10.5
      vertex 2.93332 -1.21502 0
      vertex 2.93332 -1.21502 10.5
    endloop
  endfacet
  facet normal 0.9382 0.346093 0
    outer loop
      vertex -2.93332 -1.21502 10.5
      vertex -3.0196 -0.981129 0
      vertex -3.0196 -0.981129 10.5
    endloop
  endfacet
  facet normal 0.9382 0.346093 0
    outer loop
      vertex -3.0196 -0.981129 0
      vertex -2.93332 -1.21502 10.5
      vertex -2.93332 -1.21502 0
    endloop
  endfacet
  facet normal -0.980782 -0.195106 0
    outer loop
      vertex 3.13591 0.496679 0
      vertex 3.08727 0.741189 10.5
      vertex 3.08727 0.741189 0
    endloop
  endfacet
  facet normal -0.980782 -0.195106 0
    outer loop
      vertex 3.08727 0.741189 10.5
      vertex 3.13591 0.496679 0
      vertex 3.13591 0.496679 10.5
    endloop
  endfacet
  facet normal -0.993069 -0.117529 0
    outer loop
      vertex 3.16521 0.249107 0
      vertex 3.13591 0.496679 10.5
      vertex 3.13591 0.496679 0
    endloop
  endfacet
  facet normal -0.993069 -0.117529 0
    outer loop
      vertex 3.13591 0.496679 10.5
      vertex 3.16521 0.249107 0
      vertex 3.16521 0.249107 10.5
    endloop
  endfacet
  facet normal -0.962455 -0.27144 0
    outer loop
      vertex 3.08727 0.741189 0
      vertex 3.0196 0.981129 10.5
      vertex 3.0196 0.981129 0
    endloop
  endfacet
  facet normal -0.962455 -0.27144 0
    outer loop
      vertex 3.0196 0.981129 10.5
      vertex 3.08727 0.741189 0
      vertex 3.08727 0.741189 10.5
    endloop
  endfacet
  facet normal -0.872481 -0.488647 0
    outer loop
      vertex 2.82895 1.44142 0
      vertex 2.70713 1.65893 10.5
      vertex 2.70713 1.65893 0
    endloop
  endfacet
  facet normal -0.872481 -0.488647 0
    outer loop
      vertex 2.70713 1.65893 10.5
      vertex 2.82895 1.44142 0
      vertex 2.82895 1.44142 10.5
    endloop
  endfacet
  facet normal -0.908146 -0.418654 0
    outer loop
      vertex 2.93332 1.21502 0
      vertex 2.82895 1.44142 10.5
      vertex 2.82895 1.44142 0
    endloop
  endfacet
  facet normal -0.908146 -0.418654 0
    outer loop
      vertex 2.82895 1.44142 10.5
      vertex 2.93332 1.21502 0
      vertex 2.93332 1.21502 10.5
    endloop
  endfacet
  facet normal -0.27144 -0.962455 0
    outer loop
      vertex 0.741189 3.08727 0
      vertex 0.981129 3.0196 10.5
      vertex 0.741189 3.08727 10.5
    endloop
  endfacet
  facet normal -0.27144 -0.962455 -0
    outer loop
      vertex 0.981129 3.0196 10.5
      vertex 0.741189 3.08727 0
      vertex 0.981129 3.0196 0
    endloop
  endfacet
  facet normal -0.346093 -0.9382 0
    outer loop
      vertex 0.981129 3.0196 0
      vertex 1.21502 2.93332 10.5
      vertex 0.981129 3.0196 10.5
    endloop
  endfacet
  facet normal -0.346093 -0.9382 -0
    outer loop
      vertex 1.21502 2.93332 10.5
      vertex 0.981129 3.0196 0
      vertex 1.21502 2.93332 0
    endloop
  endfacet
  facet normal -0.117529 -0.993069 0
    outer loop
      vertex 0.249107 3.16521 0
      vertex 0.496679 3.13591 10.5
      vertex 0.249107 3.16521 10.5
    endloop
  endfacet
  facet normal -0.117529 -0.993069 -0
    outer loop
      vertex 0.496679 3.13591 10.5
      vertex 0.249107 3.16521 0
      vertex 0.496679 3.13591 0
    endloop
  endfacet
  facet normal -0.678825 -0.7343 0
    outer loop
      vertex 2.062 2.41429 0
      vertex 2.24506 2.24506 10.5
      vertex 2.062 2.41429 10.5
    endloop
  endfacet
  facet normal -0.678825 -0.7343 -0
    outer loop
      vertex 2.24506 2.24506 10.5
      vertex 2.062 2.41429 0
      vertex 2.24506 2.24506 0
    endloop
  endfacet
  facet normal 0.962455 -0.27144 0
    outer loop
      vertex -3.08727 0.741189 10.5
      vertex -3.0196 0.981129 0
      vertex -3.0196 0.981129 10.5
    endloop
  endfacet
  facet normal 0.962455 -0.27144 0
    outer loop
      vertex -3.0196 0.981129 0
      vertex -3.08727 0.741189 10.5
      vertex -3.08727 0.741189 0
    endloop
  endfacet
  facet normal 0.7343 -0.678825 0
    outer loop
      vertex -2.41429 2.062 10.5
      vertex -2.24506 2.24506 0
      vertex -2.24506 2.24506 10.5
    endloop
  endfacet
  facet normal 0.7343 -0.678825 0
    outer loop
      vertex -2.24506 2.24506 0
      vertex -2.41429 2.062 10.5
      vertex -2.41429 2.062 0
    endloop
  endfacet
  facet normal 0.908146 -0.418654 0
    outer loop
      vertex -2.93332 1.21502 10.5
      vertex -2.82895 1.44142 0
      vertex -2.82895 1.44142 10.5
    endloop
  endfacet
  facet normal 0.908146 -0.418654 0
    outer loop
      vertex -2.82895 1.44142 0
      vertex -2.93332 1.21502 10.5
      vertex -2.93332 1.21502 0
    endloop
  endfacet
  facet normal 0.9382 -0.346093 0
    outer loop
      vertex -3.0196 0.981129 10.5
      vertex -2.93332 1.21502 0
      vertex -2.93332 1.21502 10.5
    endloop
  endfacet
  facet normal 0.9382 -0.346093 0
    outer loop
      vertex -2.93332 1.21502 0
      vertex -3.0196 0.981129 10.5
      vertex -3.0196 0.981129 0
    endloop
  endfacet
  facet normal 0.993069 -0.117529 0
    outer loop
      vertex -3.16521 0.249107 10.5
      vertex -3.13591 0.496679 0
      vertex -3.13591 0.496679 10.5
    endloop
  endfacet
  facet normal 0.993069 -0.117529 0
    outer loop
      vertex -3.13591 0.496679 0
      vertex -3.16521 0.249107 10.5
      vertex -3.16521 0.249107 0
    endloop
  endfacet
  facet normal 0.488647 -0.872481 0
    outer loop
      vertex -1.65893 2.70713 0
      vertex -1.44142 2.82895 10.5
      vertex -1.65893 2.70713 10.5
    endloop
  endfacet
  facet normal 0.488647 -0.872481 0
    outer loop
      vertex -1.44142 2.82895 10.5
      vertex -1.65893 2.70713 0
      vertex -1.44142 2.82895 0
    endloop
  endfacet
  facet normal 0.27144 -0.962455 0
    outer loop
      vertex -0.981129 3.0196 0
      vertex -0.741189 3.08727 10.5
      vertex -0.981129 3.0196 10.5
    endloop
  endfacet
  facet normal 0.27144 -0.962455 0
    outer loop
      vertex -0.741189 3.08727 10.5
      vertex -0.981129 3.0196 0
      vertex -0.741189 3.08727 0
    endloop
  endfacet
  facet normal 0.0392701 -0.999229 0
    outer loop
      vertex -0.249107 3.16521 0
      vertex 0 3.175 10.5
      vertex -0.249107 3.16521 10.5
    endloop
  endfacet
  facet normal 0.0392701 -0.999229 0
    outer loop
      vertex 0 3.175 10.5
      vertex -0.249107 3.16521 0
      vertex 0 3.175 0
    endloop
  endfacet
  facet normal -0.999229 0.0392701 0
    outer loop
      vertex 3.16521 -0.249107 0
      vertex 3.175 0 10.5
      vertex 3.175 0 0
    endloop
  endfacet
  facet normal -0.999229 0.0392701 0
    outer loop
      vertex 3.175 0 10.5
      vertex 3.16521 -0.249107 0
      vertex 3.16521 -0.249107 10.5
    endloop
  endfacet
  facet normal 0.872481 0.488647 0
    outer loop
      vertex -2.70713 -1.65893 10.5
      vertex -2.82895 -1.44142 0
      vertex -2.82895 -1.44142 10.5
    endloop
  endfacet
  facet normal 0.872481 0.488647 0
    outer loop
      vertex -2.82895 -1.44142 0
      vertex -2.70713 -1.65893 10.5
      vertex -2.70713 -1.65893 0
    endloop
  endfacet
  facet normal 0.908146 0.418654 0
    outer loop
      vertex -2.82895 -1.44142 10.5
      vertex -2.93332 -1.21502 0
      vertex -2.93332 -1.21502 10.5
    endloop
  endfacet
  facet normal 0.908146 0.418654 0
    outer loop
      vertex -2.93332 -1.21502 0
      vertex -2.82895 -1.44142 10.5
      vertex -2.82895 -1.44142 0
    endloop
  endfacet
  facet normal 0.999229 0.0392701 0
    outer loop
      vertex -3.16521 -0.249107 10.5
      vertex -3.175 0 0
      vertex -3.175 0 10.5
    endloop
  endfacet
  facet normal 0.999229 0.0392701 0
    outer loop
      vertex -3.175 0 0
      vertex -3.16521 -0.249107 10.5
      vertex -3.16521 -0.249107 0
    endloop
  endfacet
  facet normal -0.831482 -0.555552 0
    outer loop
      vertex 2.70713 1.65893 0
      vertex 2.56863 1.86622 10.5
      vertex 2.56863 1.86622 0
    endloop
  endfacet
  facet normal -0.831482 -0.555552 0
    outer loop
      vertex 2.56863 1.86622 10.5
      vertex 2.70713 1.65893 0
      vertex 2.70713 1.65893 10.5
    endloop
  endfacet
  facet normal -0.785318 -0.619093 0
    outer loop
      vertex 2.56863 1.86622 0
      vertex 2.41429 2.062 10.5
      vertex 2.41429 2.062 0
    endloop
  endfacet
  facet normal -0.785318 -0.619093 0
    outer loop
      vertex 2.41429 2.062 10.5
      vertex 2.56863 1.86622 0
      vertex 2.56863 1.86622 10.5
    endloop
  endfacet
  facet normal -0.195106 -0.980782 0
    outer loop
      vertex 0.496679 3.13591 0
      vertex 0.741189 3.08727 10.5
      vertex 0.496679 3.13591 10.5
    endloop
  endfacet
  facet normal -0.195106 -0.980782 -0
    outer loop
      vertex 0.741189 3.08727 10.5
      vertex 0.496679 3.13591 0
      vertex 0.741189 3.08727 0
    endloop
  endfacet
  facet normal -0.488647 -0.872481 0
    outer loop
      vertex 1.44142 2.82895 0
      vertex 1.65893 2.70713 10.5
      vertex 1.44142 2.82895 10.5
    endloop
  endfacet
  facet normal -0.488647 -0.872481 -0
    outer loop
      vertex 1.65893 2.70713 10.5
      vertex 1.44142 2.82895 0
      vertex 1.65893 2.70713 0
    endloop
  endfacet
  facet normal -0.555552 -0.831482 0
    outer loop
      vertex 1.65893 2.70713 0
      vertex 1.86622 2.56863 10.5
      vertex 1.65893 2.70713 10.5
    endloop
  endfacet
  facet normal -0.555552 -0.831482 -0
    outer loop
      vertex 1.86622 2.56863 10.5
      vertex 1.65893 2.70713 0
      vertex 1.86622 2.56863 0
    endloop
  endfacet
  facet normal -0.619093 -0.785318 0
    outer loop
      vertex 1.86622 2.56863 0
      vertex 2.062 2.41429 10.5
      vertex 1.86622 2.56863 10.5
    endloop
  endfacet
  facet normal -0.619093 -0.785318 -0
    outer loop
      vertex 2.062 2.41429 10.5
      vertex 1.86622 2.56863 0
      vertex 2.062 2.41429 0
    endloop
  endfacet
  facet normal 0.980782 -0.195106 0
    outer loop
      vertex -3.13591 0.496679 10.5
      vertex -3.08727 0.741189 0
      vertex -3.08727 0.741189 10.5
    endloop
  endfacet
  facet normal 0.980782 -0.195106 0
    outer loop
      vertex -3.08727 0.741189 0
      vertex -3.13591 0.496679 10.5
      vertex -3.13591 0.496679 0
    endloop
  endfacet
  facet normal 0.555552 -0.831482 0
    outer loop
      vertex -1.86622 2.56863 0
      vertex -1.65893 2.70713 10.5
      vertex -1.86622 2.56863 10.5
    endloop
  endfacet
  facet normal 0.555552 -0.831482 0
    outer loop
      vertex -1.65893 2.70713 10.5
      vertex -1.86622 2.56863 0
      vertex -1.65893 2.70713 0
    endloop
  endfacet
  facet normal 0.418654 -0.908146 0
    outer loop
      vertex -1.44142 2.82895 0
      vertex -1.21502 2.93332 10.5
      vertex -1.44142 2.82895 10.5
    endloop
  endfacet
  facet normal 0.418654 -0.908146 0
    outer loop
      vertex -1.21502 2.93332 10.5
      vertex -1.44142 2.82895 0
      vertex -1.21502 2.93332 0
    endloop
  endfacet
  facet normal 0.619093 -0.785318 0
    outer loop
      vertex -2.062 2.41429 0
      vertex -1.86622 2.56863 10.5
      vertex -2.062 2.41429 10.5
    endloop
  endfacet
  facet normal 0.619093 -0.785318 0
    outer loop
      vertex -1.86622 2.56863 10.5
      vertex -2.062 2.41429 0
      vertex -1.86622 2.56863 0
    endloop
  endfacet
  facet normal 0.195106 -0.980782 0
    outer loop
      vertex -0.741189 3.08727 0
      vertex -0.496679 3.13591 10.5
      vertex -0.741189 3.08727 10.5
    endloop
  endfacet
  facet normal 0.195106 -0.980782 0
    outer loop
      vertex -0.496679 3.13591 10.5
      vertex -0.741189 3.08727 0
      vertex -0.496679 3.13591 0
    endloop
  endfacet
  facet normal -0.908146 0.418654 0
    outer loop
      vertex 2.82895 -1.44142 0
      vertex 2.93332 -1.21502 10.5
      vertex 2.93332 -1.21502 0
    endloop
  endfacet
  facet normal -0.908146 0.418654 0
    outer loop
      vertex 2.93332 -1.21502 10.5
      vertex 2.82895 -1.44142 0
      vertex 2.82895 -1.44142 10.5
    endloop
  endfacet
  facet normal -0.993069 0.117529 0
    outer loop
      vertex 3.13591 -0.496679 0
      vertex 3.16521 -0.249107 10.5
      vertex 3.16521 -0.249107 0
    endloop
  endfacet
  facet normal -0.993069 0.117529 0
    outer loop
      vertex 3.16521 -0.249107 10.5
      vertex 3.13591 -0.496679 0
      vertex 3.13591 -0.496679 10.5
    endloop
  endfacet
  facet normal 0.831652 0.555297 0
    outer loop
      vertex -2.6964 -1.675 10.5
      vertex -2.70713 -1.65893 0
      vertex -2.70713 -1.65893 10.5
    endloop
  endfacet
  facet normal 0.831652 0.555297 0
    outer loop
      vertex -2.70713 -1.65893 0
      vertex -2.6964 -1.675 10.5
      vertex -2.6964 -1.675 0
    endloop
  endfacet
  facet normal 0.980782 0.195106 0
    outer loop
      vertex -3.08727 -0.741189 10.5
      vertex -3.13591 -0.496679 0
      vertex -3.13591 -0.496679 10.5
    endloop
  endfacet
  facet normal 0.980782 0.195106 0
    outer loop
      vertex -3.13591 -0.496679 0
      vertex -3.08727 -0.741189 10.5
      vertex -3.08727 -0.741189 0
    endloop
  endfacet
  facet normal 0.993069 0.117529 0
    outer loop
      vertex -3.13591 -0.496679 10.5
      vertex -3.16521 -0.249107 0
      vertex -3.16521 -0.249107 10.5
    endloop
  endfacet
  facet normal 0.993069 0.117529 0
    outer loop
      vertex -3.16521 -0.249107 0
      vertex -3.13591 -0.496679 10.5
      vertex -3.13591 -0.496679 0
    endloop
  endfacet
  facet normal 0.831482 -0.555552 0
    outer loop
      vertex -2.70713 1.65893 10.5
      vertex -2.56863 1.86622 0
      vertex -2.56863 1.86622 10.5
    endloop
  endfacet
  facet normal 0.831482 -0.555552 0
    outer loop
      vertex -2.56863 1.86622 0
      vertex -2.70713 1.65893 10.5
      vertex -2.70713 1.65893 0
    endloop
  endfacet
  facet normal -0.831652 0.555297 0
    outer loop
      vertex 2.6964 -1.675 0
      vertex 2.70713 -1.65893 10.5
      vertex 2.70713 -1.65893 0
    endloop
  endfacet
  facet normal -0.831652 0.555297 0
    outer loop
      vertex 2.70713 -1.65893 10.5
      vertex 2.6964 -1.675 0
      vertex 2.6964 -1.675 10.5
    endloop
  endfacet
  facet normal -0.962455 0.27144 0
    outer loop
      vertex 3.0196 -0.981129 0
      vertex 3.08727 -0.741189 10.5
      vertex 3.08727 -0.741189 0
    endloop
  endfacet
  facet normal -0.962455 0.27144 0
    outer loop
      vertex 3.08727 -0.741189 10.5
      vertex 3.0196 -0.981129 0
      vertex 3.0196 -0.981129 10.5
    endloop
  endfacet
  facet normal 0.962455 0.27144 0
    outer loop
      vertex -3.0196 -0.981129 10.5
      vertex -3.08727 -0.741189 0
      vertex -3.08727 -0.741189 10.5
    endloop
  endfacet
  facet normal 0.962455 0.27144 0
    outer loop
      vertex -3.08727 -0.741189 0
      vertex -3.0196 -0.981129 10.5
      vertex -3.0196 -0.981129 0
    endloop
  endfacet
  facet normal -0.980782 0.195106 0
    outer loop
      vertex 3.08727 -0.741189 0
      vertex 3.13591 -0.496679 10.5
      vertex 3.13591 -0.496679 0
    endloop
  endfacet
  facet normal -0.980782 0.195106 0
    outer loop
      vertex 3.13591 -0.496679 10.5
      vertex 3.08727 -0.741189 0
      vertex 3.08727 -0.741189 10.5
    endloop
  endfacet
  facet normal 0 0 -1
    outer loop
      vertex 3.16521 -0.249107 10.5
      vertex 3.16521 0.249107 10.5
      vertex 3.175 0 10.5
    endloop
  endfacet
  facet normal 0 0 -1
    outer loop
      vertex 3.13591 -0.496679 10.5
      vertex 3.16521 0.249107 10.5
      vertex 3.16521 -0.249107 10.5
    endloop
  endfacet
  facet normal 0 0 -1
    outer loop
      vertex 3.13591 -0.496679 10.5
      vertex 3.13591 0.496679 10.5
      vertex 3.16521 0.249107 10.5
    endloop
  endfacet
  facet normal 0 0 -1
    outer loop
      vertex 3.08727 -0.741189 10.5
      vertex 3.13591 0.496679 10.5
      vertex 3.13591 -0.496679 10.5
    endloop
  endfacet
  facet normal 0 0 -1
    outer loop
      vertex 3.08727 -0.741189 10.5
      vertex 3.08727 0.741189 10.5
      vertex 3.13591 0.496679 10.5
    endloop
  endfacet
  facet normal 0 0 -1
    outer loop
      vertex 3.0196 -0.981129 10.5
      vertex 3.08727 0.741189 10.5
      vertex 3.08727 -0.741189 10.5
    endloop
  endfacet
  facet normal 0 0 -1
    outer loop
      vertex 3.0196 -0.981129 10.5
      vertex 3.0196 0.981129 10.5
      vertex 3.08727 0.741189 10.5
    endloop
  endfacet
  facet normal 0 0 -1
    outer loop
      vertex 2.93332 -1.21502 10.5
      vertex 3.0196 0.981129 10.5
      vertex 3.0196 -0.981129 10.5
    endloop
  endfacet
  facet normal 0 0 -1
    outer loop
      vertex 2.93332 -1.21502 10.5
      vertex 2.93332 1.21502 10.5
      vertex 3.0196 0.981129 10.5
    endloop
  endfacet
  facet normal 0 0 -1
    outer loop
      vertex 2.82895 -1.44142 10.5
      vertex 2.93332 1.21502 10.5
      vertex 2.93332 -1.21502 10.5
    endloop
  endfacet
  facet normal 0 0 -1
    outer loop
      vertex 2.82895 -1.44142 10.5
      vertex 2.82895 1.44142 10.5
      vertex 2.93332 1.21502 10.5
    endloop
  endfacet
  facet normal 0 0 -1
    outer loop
      vertex 2.6964 -1.675 10.5
      vertex 2.82895 -1.44142 10.5
      vertex 2.70713 -1.65893 10.5
    endloop
  endfacet
  facet normal -0 0 -1
    outer loop
      vertex 2.82895 -1.44142 10.5
      vertex 2.6964 -1.675 10.5
      vertex 2.82895 1.44142 10.5
    endloop
  endfacet
  facet normal -0 0 -1
    outer loop
      vertex 2.82895 1.44142 10.5
      vertex 2.6964 -1.675 10.5
      vertex 2.70713 1.65893 10.5
    endloop
  endfacet
  facet normal 0 0 -1
    outer loop
      vertex 2.6964 -1.675 10.5
      vertex 2.56863 1.86622 10.5
      vertex 2.70713 1.65893 10.5
    endloop
  endfacet
  facet normal 0 0 -1
    outer loop
      vertex 2.6964 -1.675 10.5
      vertex 2.41429 2.062 10.5
      vertex 2.56863 1.86622 10.5
    endloop
  endfacet
  facet normal 0 0 -1
    outer loop
      vertex 2.6964 -1.675 10.5
      vertex 2.24506 2.24506 10.5
      vertex 2.41429 2.062 10.5
    endloop
  endfacet
  facet normal 0 0 -1
    outer loop
      vertex 2.6964 -1.675 10.5
      vertex 2.062 2.41429 10.5
      vertex 2.24506 2.24506 10.5
    endloop
  endfacet
  facet normal 0 0 -1
    outer loop
      vertex 2.6964 -1.675 10.5
      vertex 1.86622 2.56863 10.5
      vertex 2.062 2.41429 10.5
    endloop
  endfacet
  facet normal 0 0 -1
    outer loop
      vertex 2.6964 -1.675 10.5
      vertex 1.65893 2.70713 10.5
      vertex 1.86622 2.56863 10.5
    endloop
  endfacet
  facet normal 0 0 -1
    outer loop
      vertex 2.6964 -1.675 10.5
      vertex 1.44142 2.82895 10.5
      vertex 1.65893 2.70713 10.5
    endloop
  endfacet
  facet normal 0 0 -1
    outer loop
      vertex 2.6964 -1.675 10.5
      vertex 1.21502 2.93332 10.5
      vertex 1.44142 2.82895 10.5
    endloop
  endfacet
  facet normal 0 0 -1
    outer loop
      vertex 2.6964 -1.675 10.5
      vertex 0.981129 3.0196 10.5
      vertex 1.21502 2.93332 10.5
    endloop
  endfacet
  facet normal 0 0 -1
    outer loop
      vertex 2.6964 -1.675 10.5
      vertex 0.741189 3.08727 10.5
      vertex 0.981129 3.0196 10.5
    endloop
  endfacet
  facet normal 0 0 -1
    outer loop
      vertex 2.6964 -1.675 10.5
      vertex 0.496679 3.13591 10.5
      vertex 0.741189 3.08727 10.5
    endloop
  endfacet
  facet normal 0 0 -1
    outer loop
      vertex 2.6964 -1.675 10.5
      vertex 0.249107 3.16521 10.5
      vertex 0.496679 3.13591 10.5
    endloop
  endfacet
  facet normal 0 0 -1
    outer loop
      vertex 2.6964 -1.675 10.5
      vertex 0 3.175 10.5
      vertex 0.249107 3.16521 10.5
    endloop
  endfacet
  facet normal 0 0 -1
    outer loop
      vertex 2.6964 -1.675 10.5
      vertex -0.249107 3.16521 10.5
      vertex 0 3.175 10.5
    endloop
  endfacet
  facet normal 0 0 -1
    outer loop
      vertex 2.6964 -1.675 10.5
      vertex -0.496679 3.13591 10.5
      vertex -0.249107 3.16521 10.5
    endloop
  endfacet
  facet normal 0 0 -1
    outer loop
      vertex 2.6964 -1.675 10.5
      vertex -0.741189 3.08727 10.5
      vertex -0.496679 3.13591 10.5
    endloop
  endfacet
  facet normal 0 0 -1
    outer loop
      vertex 2.6964 -1.675 10.5
      vertex -0.981129 3.0196 10.5
      vertex -0.741189 3.08727 10.5
    endloop
  endfacet
  facet normal 0 0 -1
    outer loop
      vertex 2.6964 -1.675 10.5
      vertex -1.21502 2.93332 10.5
      vertex -0.981129 3.0196 10.5
    endloop
  endfacet
  facet normal 0 0 -1
    outer loop
      vertex 2.6964 -1.675 10.5
      vertex -1.44142 2.82895 10.5
      vertex -1.21502 2.93332 10.5
    endloop
  endfacet
  facet normal 0 0 -1
    outer loop
      vertex 2.6964 -1.675 10.5
      vertex -1.65893 2.70713 10.5
      vertex -1.44142 2.82895 10.5
    endloop
  endfacet
  facet normal 0 0 -1
    outer loop
      vertex 2.6964 -1.675 10.5
      vertex -1.86622 2.56863 10.5
      vertex -1.65893 2.70713 10.5
    endloop
  endfacet
  facet normal 0 0 -1
    outer loop
      vertex 2.6964 -1.675 10.5
      vertex -2.062 2.41429 10.5
      vertex -1.86622 2.56863 10.5
    endloop
  endfacet
  facet normal 0 0 -1
    outer loop
      vertex 2.6964 -1.675 10.5
      vertex -2.24506 2.24506 10.5
      vertex -2.062 2.41429 10.5
    endloop
  endfacet
  facet normal 0 0 -1
    outer loop
      vertex 2.6964 -1.675 10.5
      vertex -2.41429 2.062 10.5
      vertex -2.24506 2.24506 10.5
    endloop
  endfacet
  facet normal 0 0 -1
    outer loop
      vertex 2.6964 -1.675 10.5
      vertex -2.56863 1.86622 10.5
      vertex -2.41429 2.062 10.5
    endloop
  endfacet
  facet normal 0 0 -1
    outer loop
      vertex -2.6964 -1.675 10.5
      vertex -2.56863 1.86622 10.5
      vertex 2.6964 -1.675 10.5
    endloop
  endfacet
  facet normal 0 0 -1
    outer loop
      vertex -2.82895 -1.44142 10.5
      vertex -2.6964 -1.675 10.5
      vertex -2.70713 -1.65893 10.5
    endloop
  endfacet
  facet normal 0 0 -1
    outer loop
      vertex -2.6964 -1.675 10.5
      vertex -2.70713 1.65893 10.5
      vertex -2.56863 1.86622 10.5
    endloop
  endfacet
  facet normal 0 0 -1
    outer loop
      vertex -2.6964 -1.675 10.5
      vertex -2.82895 -1.44142 10.5
      vertex -2.70713 1.65893 10.5
    endloop
  endfacet
  facet normal 0 0 -1
    outer loop
      vertex -2.82895 -1.44142 10.5
      vertex -2.82895 1.44142 10.5
      vertex -2.70713 1.65893 10.5
    endloop
  endfacet
  facet normal 0 0 -1
    outer loop
      vertex -2.93332 -1.21502 10.5
      vertex -2.82895 1.44142 10.5
      vertex -2.82895 -1.44142 10.5
    endloop
  endfacet
  facet normal 0 0 -1
    outer loop
      vertex -2.93332 -1.21502 10.5
      vertex -2.93332 1.21502 10.5
      vertex -2.82895 1.44142 10.5
    endloop
  endfacet
  facet normal 0 0 -1
    outer loop
      vertex -3.0196 -0.981129 10.5
      vertex -2.93332 1.21502 10.5
      vertex -2.93332 -1.21502 10.5
    endloop
  endfacet
  facet normal 0 0 -1
    outer loop
      vertex -3.0196 -0.981129 10.5
      vertex -3.0196 0.981129 10.5
      vertex -2.93332 1.21502 10.5
    endloop
  endfacet
  facet normal 0 0 -1
    outer loop
      vertex -3.08727 -0.741189 10.5
      vertex -3.0196 0.981129 10.5
      vertex -3.0196 -0.981129 10.5
    endloop
  endfacet
  facet normal 0 0 -1
    outer loop
      vertex -3.08727 -0.741189 10.5
      vertex -3.08727 0.741189 10.5
      vertex -3.0196 0.981129 10.5
    endloop
  endfacet
  facet normal 0 0 -1
    outer loop
      vertex -3.13591 -0.496679 10.5
      vertex -3.08727 0.741189 10.5
      vertex -3.08727 -0.741189 10.5
    endloop
  endfacet
  facet normal 0 0 -1
    outer loop
      vertex -3.13591 -0.496679 10.5
      vertex -3.13591 0.496679 10.5
      vertex -3.08727 0.741189 10.5
    endloop
  endfacet
  facet normal 0 0 -1
    outer loop
      vertex -3.16521 -0.249107 10.5
      vertex -3.13591 0.496679 10.5
      vertex -3.13591 -0.496679 10.5
    endloop
  endfacet
  facet normal 0 0 -1
    outer loop
      vertex -3.16521 -0.249107 10.5
      vertex -3.16521 0.249107 10.5
      vertex -3.13591 0.496679 10.5
    endloop
  endfacet
  facet normal 0 -0 -1
    outer loop
      vertex -3.16521 0.249107 10.5
      vertex -3.16521 -0.249107 10.5
      vertex -3.175 0 10.5
    endloop
  endfacet
  facet normal 0 1 -0
    outer loop
      vertex 2.6964 -1.675 0
      vertex -2.6964 -1.675 10.5
      vertex 2.6964 -1.675 10.5
    endloop
  endfacet
  facet normal 0 1 0
    outer loop
      vertex -2.6964 -1.675 10.5
      vertex 2.6964 -1.675 0
      vertex -2.6964 -1.675 0
    endloop
  endfacet
  facet normal 0.963931 0.258279 0.0642618
    outer loop
      vertex 7 0 0
      vertex 6.00415 0.233333 14
      vertex 6.06667 0 14
    endloop
  endfacet
  facet normal 0.963929 0.258284 0.0642617
    outer loop
      vertex 6.00415 0.233333 14
      vertex 7 0 0
      vertex 6.06218 3.5 0
    endloop
  endfacet
  facet normal -0.963929 0.258285 0.0642623
    outer loop
      vertex -5.19615 3 15
      vertex -6.06218 3.5 0
      vertex -6 0 15
    endloop
  endfacet
  facet normal 0.258284 0.963929 0.064262
    outer loop
      vertex 0 7 0
      vertex 0 6 15
      vertex 3.5 6.06218 0
    endloop
  endfacet
  facet normal -0.705645 -0.705645 0.0642622
    outer loop
      vertex -6.06218 -3.5 0
      vertex -3 -5.19615 15
      vertex -5.19615 -3 15
    endloop
  endfacet
  facet normal -0.705645 -0.705645 0.0642622
    outer loop
      vertex -3 -5.19615 15
      vertex -6.06218 -3.5 0
      vertex -3.5 -6.06218 0
    endloop
  endfacet
  facet normal -0.963929 0.258284 0.064262
    outer loop
      vertex -6.06218 3.5 0
      vertex -7 0 0
      vertex -6 0 15
    endloop
  endfacet
  facet normal 0 0 -1
    outer loop
      vertex 3.08727 -0.741189 0
      vertex 7 0 0
      vertex 6.06218 -3.5 0
    endloop
  endfacet
  facet normal 0 0 -1
    outer loop
      vertex 2.6964 -1.675 0
      vertex 6.06218 -3.5 0
      vertex 3.5 -6.06218 0
    endloop
  endfacet
  facet normal 0 0 -1
    outer loop
      vertex 7 0 0
      vertex 3.08727 -0.741189 0
      vertex 3.13591 -0.496679 0
    endloop
  endfacet
  facet normal 0 0 -1
    outer loop
      vertex 3.13591 0.496679 0
      vertex 7 0 0
      vertex 3.16521 0.249107 0
    endloop
  endfacet
  facet normal 0 0 -1
    outer loop
      vertex 3.16521 0.249107 0
      vertex 7 0 0
      vertex 3.175 0 0
    endloop
  endfacet
  facet normal -0 0 -1
    outer loop
      vertex 7 0 0
      vertex 3.16521 -0.249107 0
      vertex 3.175 0 0
    endloop
  endfacet
  facet normal 0 0 -1
    outer loop
      vertex 7 0 0
      vertex 3.13591 -0.496679 0
      vertex 3.16521 -0.249107 0
    endloop
  endfacet
  facet normal 0 0 -1
    outer loop
      vertex 6.06218 -3.5 0
      vertex 3.0196 -0.981129 0
      vertex 3.08727 -0.741189 0
    endloop
  endfacet
  facet normal 0 0 -1
    outer loop
      vertex 6.06218 -3.5 0
      vertex 2.93332 -1.21502 0
      vertex 3.0196 -0.981129 0
    endloop
  endfacet
  facet normal 0 0 -1
    outer loop
      vertex 6.06218 -3.5 0
      vertex 2.82895 -1.44142 0
      vertex 2.93332 -1.21502 0
    endloop
  endfacet
  facet normal 0 0 -1
    outer loop
      vertex 6.06218 -3.5 0
      vertex 2.70713 -1.65893 0
      vertex 2.82895 -1.44142 0
    endloop
  endfacet
  facet normal 0 0 -1
    outer loop
      vertex 6.06218 -3.5 0
      vertex 2.6964 -1.675 0
      vertex 2.70713 -1.65893 0
    endloop
  endfacet
  facet normal 0 0 -1
    outer loop
      vertex 0 -7 0
      vertex 2.6964 -1.675 0
      vertex 3.5 -6.06218 0
    endloop
  endfacet
  facet normal 0 0 -1
    outer loop
      vertex 0 -7 0
      vertex -2.6964 -1.675 0
      vertex 2.6964 -1.675 0
    endloop
  endfacet
  facet normal 0 0 -1
    outer loop
      vertex -3.5 -6.06218 0
      vertex -2.6964 -1.675 0
      vertex 0 -7 0
    endloop
  endfacet
  facet normal 0 0 -1
    outer loop
      vertex -6.06218 -3.5 0
      vertex -2.6964 -1.675 0
      vertex -3.5 -6.06218 0
    endloop
  endfacet
  facet normal 0 0 -1
    outer loop
      vertex -3.08727 -0.741189 0
      vertex -7 0 0
      vertex -3.13591 -0.496679 0
    endloop
  endfacet
  facet normal 0 0 -1
    outer loop
      vertex -7 0 0
      vertex -3.08727 -0.741189 0
      vertex -6.06218 -3.5 0
    endloop
  endfacet
  facet normal -0 0 -1
    outer loop
      vertex -3.0196 -0.981129 0
      vertex -6.06218 -3.5 0
      vertex -3.08727 -0.741189 0
    endloop
  endfacet
  facet normal -0 0 -1
    outer loop
      vertex -2.93332 -1.21502 0
      vertex -6.06218 -3.5 0
      vertex -3.0196 -0.981129 0
    endloop
  endfacet
  facet normal -0 0 -1
    outer loop
      vertex -2.82895 -1.44142 0
      vertex -6.06218 -3.5 0
      vertex -2.93332 -1.21502 0
    endloop
  endfacet
  facet normal -0 0 -1
    outer loop
      vertex -2.70713 -1.65893 0
      vertex -6.06218 -3.5 0
      vertex -2.82895 -1.44142 0
    endloop
  endfacet
  facet normal -0 0 -1
    outer loop
      vertex -2.6964 -1.675 0
      vertex -6.06218 -3.5 0
      vertex -2.70713 -1.65893 0
    endloop
  endfacet
  facet normal 0 0 -1
    outer loop
      vertex 3.08727 0.741189 0
      vertex 7 0 0
      vertex 3.13591 0.496679 0
    endloop
  endfacet
  facet normal 0 0 -1
    outer loop
      vertex 7 0 0
      vertex 3.08727 0.741189 0
      vertex 6.06218 3.5 0
    endloop
  endfacet
  facet normal 0 0 -1
    outer loop
      vertex 3.0196 0.981129 0
      vertex 6.06218 3.5 0
      vertex 3.08727 0.741189 0
    endloop
  endfacet
  facet normal 0 0 -1
    outer loop
      vertex 2.93332 1.21502 0
      vertex 6.06218 3.5 0
      vertex 3.0196 0.981129 0
    endloop
  endfacet
  facet normal 0 0 -1
    outer loop
      vertex 2.82895 1.44142 0
      vertex 6.06218 3.5 0
      vertex 2.93332 1.21502 0
    endloop
  endfacet
  facet normal 0 0 -1
    outer loop
      vertex 2.70713 1.65893 0
      vertex 6.06218 3.5 0
      vertex 2.82895 1.44142 0
    endloop
  endfacet
  facet normal 0 0 -1
    outer loop
      vertex 2.56863 1.86622 0
      vertex 6.06218 3.5 0
      vertex 2.70713 1.65893 0
    endloop
  endfacet
  facet normal 0 0 -1
    outer loop
      vertex 2.41429 2.062 0
      vertex 6.06218 3.5 0
      vertex 2.56863 1.86622 0
    endloop
  endfacet
  facet normal 0 0 -1
    outer loop
      vertex 2.24506 2.24506 0
      vertex 6.06218 3.5 0
      vertex 2.41429 2.062 0
    endloop
  endfacet
  facet normal -0 0 -1
    outer loop
      vertex 6.06218 3.5 0
      vertex 2.24506 2.24506 0
      vertex 3.5 6.06218 0
    endloop
  endfacet
  facet normal 0 0 -1
    outer loop
      vertex 2.062 2.41429 0
      vertex 3.5 6.06218 0
      vertex 2.24506 2.24506 0
    endloop
  endfacet
  facet normal 0 0 -1
    outer loop
      vertex 1.86622 2.56863 0
      vertex 3.5 6.06218 0
      vertex 2.062 2.41429 0
    endloop
  endfacet
  facet normal 0 0 -1
    outer loop
      vertex 1.65893 2.70713 0
      vertex 3.5 6.06218 0
      vertex 1.86622 2.56863 0
    endloop
  endfacet
  facet normal 0 0 -1
    outer loop
      vertex 1.44142 2.82895 0
      vertex 3.5 6.06218 0
      vertex 1.65893 2.70713 0
    endloop
  endfacet
  facet normal 0 0 -1
    outer loop
      vertex 1.21502 2.93332 0
      vertex 3.5 6.06218 0
      vertex 1.44142 2.82895 0
    endloop
  endfacet
  facet normal 0 0 -1
    outer loop
      vertex 0.981129 3.0196 0
      vertex 3.5 6.06218 0
      vertex 1.21502 2.93332 0
    endloop
  endfacet
  facet normal 0 0 -1
    outer loop
      vertex 0.741189 3.08727 0
      vertex 3.5 6.06218 0
      vertex 0.981129 3.0196 0
    endloop
  endfacet
  facet normal 0 0 -1
    outer loop
      vertex 0 7 0
      vertex 0.741189 3.08727 0
      vertex 0.496679 3.13591 0
    endloop
  endfacet
  facet normal 0 0 -1
    outer loop
      vertex 0 7 0
      vertex 0.496679 3.13591 0
      vertex 0.249107 3.16521 0
    endloop
  endfacet
  facet normal 0 0 -1
    outer loop
      vertex 0 7 0
      vertex 0.249107 3.16521 0
      vertex 0 3.175 0
    endloop
  endfacet
  facet normal 0 0 -1
    outer loop
      vertex 0.741189 3.08727 0
      vertex 0 7 0
      vertex 3.5 6.06218 0
    endloop
  endfacet
  facet normal 0 0 -1
    outer loop
      vertex -0.249107 3.16521 0
      vertex 0 7 0
      vertex 0 3.175 0
    endloop
  endfacet
  facet normal 0 0 -1
    outer loop
      vertex -0.496679 3.13591 0
      vertex 0 7 0
      vertex -0.249107 3.16521 0
    endloop
  endfacet
  facet normal 0 0 -1
    outer loop
      vertex -0.741189 3.08727 0
      vertex 0 7 0
      vertex -0.496679 3.13591 0
    endloop
  endfacet
  facet normal 0 0 -1
    outer loop
      vertex -3.5 6.06218 0
      vertex -0.741189 3.08727 0
      vertex -0.981129 3.0196 0
    endloop
  endfacet
  facet normal 0 0 -1
    outer loop
      vertex -3.5 6.06218 0
      vertex -0.981129 3.0196 0
      vertex -1.21502 2.93332 0
    endloop
  endfacet
  facet normal 0 0 -1
    outer loop
      vertex -3.5 6.06218 0
      vertex -1.21502 2.93332 0
      vertex -1.44142 2.82895 0
    endloop
  endfacet
  facet normal 0 0 -1
    outer loop
      vertex -3.5 6.06218 0
      vertex -1.44142 2.82895 0
      vertex -1.65893 2.70713 0
    endloop
  endfacet
  facet normal 0 0 -1
    outer loop
      vertex -3.5 6.06218 0
      vertex -1.65893 2.70713 0
      vertex -1.86622 2.56863 0
    endloop
  endfacet
  facet normal 0 0 -1
    outer loop
      vertex -3.5 6.06218 0
      vertex -1.86622 2.56863 0
      vertex -2.062 2.41429 0
    endloop
  endfacet
  facet normal 0 0 -1
    outer loop
      vertex -3.5 6.06218 0
      vertex -2.062 2.41429 0
      vertex -2.24506 2.24506 0
    endloop
  endfacet
  facet normal 0 0 -1
    outer loop
      vertex -6.06218 3.5 0
      vertex -2.24506 2.24506 0
      vertex -2.41429 2.062 0
    endloop
  endfacet
  facet normal 0 0 -1
    outer loop
      vertex -6.06218 3.5 0
      vertex -2.41429 2.062 0
      vertex -2.56863 1.86622 0
    endloop
  endfacet
  facet normal 0 0 -1
    outer loop
      vertex -6.06218 3.5 0
      vertex -2.56863 1.86622 0
      vertex -2.70713 1.65893 0
    endloop
  endfacet
  facet normal 0 0 -1
    outer loop
      vertex -6.06218 3.5 0
      vertex -2.70713 1.65893 0
      vertex -2.82895 1.44142 0
    endloop
  endfacet
  facet normal 0 0 -1
    outer loop
      vertex -3.13591 -0.496679 0
      vertex -7 0 0
      vertex -3.16521 -0.249107 0
    endloop
  endfacet
  facet normal 0 0 -1
    outer loop
      vertex -0.741189 3.08727 0
      vertex -3.5 6.06218 0
      vertex 0 7 0
    endloop
  endfacet
  facet normal 0 0 -1
    outer loop
      vertex -6.06218 3.5 0
      vertex -2.82895 1.44142 0
      vertex -2.93332 1.21502 0
    endloop
  endfacet
  facet normal 0 0 -1
    outer loop
      vertex -6.06218 3.5 0
      vertex -2.93332 1.21502 0
      vertex -3.0196 0.981129 0
    endloop
  endfacet
  facet normal 0 0 -1
    outer loop
      vertex -6.06218 3.5 0
      vertex -3.0196 0.981129 0
      vertex -3.08727 0.741189 0
    endloop
  endfacet
  facet normal 0 0 -1
    outer loop
      vertex -7 0 0
      vertex -3.08727 0.741189 0
      vertex -3.13591 0.496679 0
    endloop
  endfacet
  facet normal 0 0 -1
    outer loop
      vertex -7 0 0
      vertex -3.13591 0.496679 0
      vertex -3.16521 0.249107 0
    endloop
  endfacet
  facet normal 0 0 -1
    outer loop
      vertex -3.16521 -0.249107 0
      vertex -7 0 0
      vertex -3.175 0 0
    endloop
  endfacet
  facet normal 0 0 -1
    outer loop
      vertex -3.175 0 0
      vertex -7 0 0
      vertex -3.16521 0.249107 0
    endloop
  endfacet
  facet normal 0 0 -1
    outer loop
      vertex -2.24506 2.24506 0
      vertex -6.06218 3.5 0
      vertex -3.5 6.06218 0
    endloop
  endfacet
  facet normal -0 0 -1
    outer loop
      vertex -3.08727 0.741189 0
      vertex -7 0 0
      vertex -6.06218 3.5 0
    endloop
  endfacet
  facet normal 0.963929 0.258287 0.0642555
    outer loop
      vertex 5.93269 0.5 14
      vertex 5.19615 3 15
      vertex 5.86603 0.5 15
    endloop
  endfacet
  facet normal 0.963929 0.258284 0.0642622
    outer loop
      vertex 5.19615 3 15
      vertex 5.93269 0.5 14
      vertex 6.06218 3.5 0
    endloop
  endfacet
  facet normal 0.963923 0.258307 0.0642671
    outer loop
      vertex 6.06218 3.5 0
      vertex 5.93269 0.5 14
      vertex 6.00415 0.233333 14
    endloop
  endfacet
  facet normal -0.258284 0.963929 0.064262
    outer loop
      vertex 0 7 0
      vertex -3.5 6.06218 0
      vertex 0 6 15
    endloop
  endfacet
  facet normal -0.963929 -0.258285 0.0642623
    outer loop
      vertex -6 0 15
      vertex -6.06218 -3.5 0
      vertex -5.19615 -3 15
    endloop
  endfacet
  facet normal -0.963929 -0.258284 0.064262
    outer loop
      vertex -6 0 15
      vertex -7 0 0
      vertex -6.06218 -3.5 0
    endloop
  endfacet
  facet normal 0.258284 -0.963929 0.064262
    outer loop
      vertex 0 -6 15
      vertex 0 -7 0
      vertex 3.5 -6.06218 0
    endloop
  endfacet
  facet normal 0.963929 -0.258287 0.0642555
    outer loop
      vertex 5.86603 -0.5 15
      vertex 5.19615 -3 15
      vertex 5.93269 -0.5 14
    endloop
  endfacet
  facet normal 0.963923 -0.258307 0.0642671
    outer loop
      vertex 5.93269 -0.5 14
      vertex 6.06218 -3.5 0
      vertex 6.00415 -0.233333 14
    endloop
  endfacet
  facet normal 0.963929 -0.258284 0.0642622
    outer loop
      vertex 6.06218 -3.5 0
      vertex 5.93269 -0.5 14
      vertex 5.19615 -3 15
    endloop
  endfacet
  facet normal 0.963931 -0.258279 0.0642618
    outer loop
      vertex 6.00415 -0.233333 14
      vertex 7 0 0
      vertex 6.06667 0 14
    endloop
  endfacet
  facet normal 0.963929 -0.258284 0.0642617
    outer loop
      vertex 7 0 0
      vertex 6.00415 -0.233333 14
      vertex 6.06218 -3.5 0
    endloop
  endfacet
  facet normal -0.258285 0.963929 0.0642623
    outer loop
      vertex 0 6 15
      vertex -3.5 6.06218 0
      vertex -3 5.19615 15
    endloop
  endfacet
  facet normal 0.705645 0.705645 0.0642622
    outer loop
      vertex 3 5.19615 15
      vertex 6.06218 3.5 0
      vertex 3.5 6.06218 0
    endloop
  endfacet
  facet normal 0.705645 0.705645 0.0642622
    outer loop
      vertex 6.06218 3.5 0
      vertex 3 5.19615 15
      vertex 5.19615 3 15
    endloop
  endfacet
  facet normal 0.258285 0.963929 0.0642623
    outer loop
      vertex 3.5 6.06218 0
      vertex 0 6 15
      vertex 3 5.19615 15
    endloop
  endfacet
  facet normal -0.258284 -0.963929 0.064262
    outer loop
      vertex 0 -6 15
      vertex -3.5 -6.06218 0
      vertex 0 -7 0
    endloop
  endfacet
  facet normal 0.258285 -0.963929 0.0642623
    outer loop
      vertex 3 -5.19615 15
      vertex 0 -6 15
      vertex 3.5 -6.06218 0
    endloop
  endfacet
  facet normal 0 0 1
    outer loop
      vertex 0 0.5 15
      vertex 5.19615 3 15
      vertex 3 5.19615 15
    endloop
  endfacet
  facet normal 0 0 1
    outer loop
      vertex 0 0.5 15
      vertex 3 5.19615 15
      vertex 0 6 15
    endloop
  endfacet
  facet normal 0 0 1
    outer loop
      vertex 5.19615 3 15
      vertex 0 0.5 15
      vertex 5.86603 0.5 15
    endloop
  endfacet
  facet normal -0 0 1
    outer loop
      vertex -3 5.19615 15
      vertex 0 0.5 15
      vertex 0 6 15
    endloop
  endfacet
  facet normal -0 0 1
    outer loop
      vertex -5.19615 3 15
      vertex 0 0.5 15
      vertex -3 5.19615 15
    endloop
  endfacet
  facet normal 0 0 1
    outer loop
      vertex -6 0 15
      vertex 0 0.5 15
      vertex -5.19615 3 15
    endloop
  endfacet
  facet normal 0 0 1
    outer loop
      vertex 0 -0.5 15
      vertex -3 -5.19615 15
      vertex 0 -6 15
    endloop
  endfacet
  facet normal 0 0 1
    outer loop
      vertex 0 0.5 15
      vertex -6 0 15
      vertex 0 -0.5 15
    endloop
  endfacet
  facet normal 0 0 1
    outer loop
      vertex 0 -0.5 15
      vertex -5.19615 -3 15
      vertex -3 -5.19615 15
    endloop
  endfacet
  facet normal 0 0 1
    outer loop
      vertex 0 -0.5 15
      vertex -6 0 15
      vertex -5.19615 -3 15
    endloop
  endfacet
  facet normal -0 0 1
    outer loop
      vertex 0 -0.5 15
      vertex 5.19615 -3 15
      vertex 5.86603 -0.5 15
    endloop
  endfacet
  facet normal 0 0 1
    outer loop
      vertex 5.19615 -3 15
      vertex 0 -0.5 15
      vertex 3 -5.19615 15
    endloop
  endfacet
  facet normal 0 0 1
    outer loop
      vertex 3 -5.19615 15
      vertex 0 -0.5 15
      vertex 0 -6 15
    endloop
  endfacet
  facet normal -0.705645 0.705645 0.0642622
    outer loop
      vertex -6.06218 3.5 0
      vertex -3 5.19615 15
      vertex -3.5 6.06218 0
    endloop
  endfacet
  facet normal -0.705645 0.705645 0.0642622
    outer loop
      vertex -3 5.19615 15
      vertex -6.06218 3.5 0
      vertex -5.19615 3 15
    endloop
  endfacet
  facet normal -0.258285 -0.963929 0.0642623
    outer loop
      vertex -3 -5.19615 15
      vertex -3.5 -6.06218 0
      vertex 0 -6 15
    endloop
  endfacet
  facet normal 0.705645 -0.705645 0.0642622
    outer loop
      vertex 3 -5.19615 15
      vertex 6.06218 -3.5 0
      vertex 5.19615 -3 15
    endloop
  endfacet
  facet normal 0.705645 -0.705645 0.0642622
    outer loop
      vertex 6.06218 -3.5 0
      vertex 3 -5.19615 15
      vertex 3.5 -6.06218 0
    endloop
  endfacet
  facet normal 0 -1 0
    outer loop
      vertex 0 0.5 14
      vertex 5.86603 0.5 15
      vertex 0 0.5 15
    endloop
  endfacet
  facet normal 0 -1 -0
    outer loop
      vertex 5.86603 0.5 15
      vertex 0 0.5 14
      vertex 5.93269 0.5 14
    endloop
  endfacet
  facet normal 0 1 0
    outer loop
      vertex 0 -0.5 14
      vertex 5.86603 -0.5 15
      vertex 5.93269 -0.5 14
    endloop
  endfacet
  facet normal 0 1 0
    outer loop
      vertex 5.86603 -0.5 15
      vertex 0 -0.5 14
      vertex 0 -0.5 15
    endloop
  endfacet
  facet normal 1 -0 0
    outer loop
      vertex 0 -0.5 15
      vertex 0 0.5 14
      vertex 0 0.5 15
    endloop
  endfacet
  facet normal 1 0 0
    outer loop
      vertex 0 0.5 14
      vertex 0 -0.5 15
      vertex 0 -0.5 14
    endloop
  endfacet
  facet normal 0 0 1
    outer loop
      vertex 6.00415 0.233333 14
      vertex 6.00415 -0.233333 14
      vertex 6.06667 0 14
    endloop
  endfacet
  facet normal 0 0 1
    outer loop
      vertex 5.93269 0.5 14
      vertex 6.00415 -0.233333 14
      vertex 6.00415 0.233333 14
    endloop
  endfacet
  facet normal 0 0 1
    outer loop
      vertex 5.93269 0.5 14
      vertex 5.93269 -0.5 14
      vertex 6.00415 -0.233333 14
    endloop
  endfacet
  facet normal -0 0 1
    outer loop
      vertex 0 0.5 14
      vertex 5.93269 -0.5 14
      vertex 5.93269 0.5 14
    endloop
  endfacet
  facet normal 0 0 1
    outer loop
      vertex 5.93269 -0.5 14
      vertex 0 0.5 14
      vertex 0 -0.5 14
    endloop
  endfacet
endsolid OpenSCAD_Model
