solid OpenSCAD_Model
  facet normal 1 -0 0
    outer loop
      vertex 12.5 2.77239 3
      vertex 12.5 14.4 0
      vertex 12.5 14.4 3
    endloop
  endfacet
  facet normal 1 0 0
    outer loop
      vertex 12.5 14.4 0
      vertex 12.5 2.77239 3
      vertex 12.5 2.77239 0
    endloop
  endfacet
  facet normal 1 -0 0
    outer loop
      vertex 12.5 -6.6 3
      vertex 12.5 -2.77239 0
      vertex 12.5 -2.77239 3
    endloop
  endfacet
  facet normal 1 0 0
    outer loop
      vertex 12.5 -2.77239 0
      vertex 12.5 -6.6 3
      vertex 12.5 -6.6 0
    endloop
  endfacet
  facet normal 0 0 1
    outer loop
      vertex -14.2 0 3
      vertex -11.8 0.538477 3
      vertex -13.9564 1.22459 3
    endloop
  endfacet
  facet normal 0 0 1
    outer loop
      vertex -11.8 0.538477 3
      vertex -14.2 0 3
      vertex -11.8 -0.538477 3
    endloop
  endfacet
  facet normal 0 -0 1
    outer loop
      vertex -13.9564 -1.22459 3
      vertex -11.8 -0.538477 3
      vertex -14.2 0 3
    endloop
  endfacet
  facet normal 0 0 1
    outer loop
      vertex -11.8 -0.538477 3
      vertex -13.2627 -2.26274 3
      vertex -12.5 -2.77239 3
    endloop
  endfacet
  facet normal 0 -0 1
    outer loop
      vertex -13.2627 -2.26274 3
      vertex -11.8 -0.538477 3
      vertex -13.9564 -1.22459 3
    endloop
  endfacet
  facet normal -0 0 1
    outer loop
      vertex -9.2 0.538477 3
      vertex -7.3 0 3
      vertex -7.54358 1.22459 3
    endloop
  endfacet
  facet normal 0 0 1
    outer loop
      vertex -9.2 0.538477 3
      vertex -7.54358 1.22459 3
      vertex -8.23726 2.26274 3
    endloop
  endfacet
  facet normal 0 0 1
    outer loop
      vertex -9.2 -0.538477 3
      vertex -7.3 0 3
      vertex -9.2 0.538477 3
    endloop
  endfacet
  facet normal 0 0 1
    outer loop
      vertex -7.3 0 3
      vertex -9.2 -0.538477 3
      vertex -7.54358 -1.22459 3
    endloop
  endfacet
  facet normal 0 0 1
    outer loop
      vertex -9.96152 1.3 3
      vertex -8.23726 2.26274 3
      vertex -9.27541 2.95641 3
    endloop
  endfacet
  facet normal 0 0 1
    outer loop
      vertex -8.23726 2.26274 3
      vertex -9.96152 1.3 3
      vertex -9.2 0.538477 3
    endloop
  endfacet
  facet normal 0 0 1
    outer loop
      vertex -10.5 3.2 3
      vertex -9.96152 1.3 3
      vertex -9.27541 2.95641 3
    endloop
  endfacet
  facet normal 0 0 1
    outer loop
      vertex -11.0385 1.3 3
      vertex -10.5 3.2 3
      vertex -11 3.2 3
    endloop
  endfacet
  facet normal 0 0 1
    outer loop
      vertex -10.5 3.2 3
      vertex -11.0385 1.3 3
      vertex -9.96152 1.3 3
    endloop
  endfacet
  facet normal -0 0 1
    outer loop
      vertex -11.5 3.10054 3
      vertex -11.0385 1.3 3
      vertex -11 3.2 3
    endloop
  endfacet
  facet normal -0 0 1
    outer loop
      vertex -12.5 2.77239 3
      vertex -11.0385 1.3 3
      vertex -11.5 3.10054 3
    endloop
  endfacet
  facet normal 0 0 1
    outer loop
      vertex -7.54358 -1.22459 3
      vertex -9.2 -0.538477 3
      vertex -8.23726 -2.26274 3
    endloop
  endfacet
  facet normal -0 0 1
    outer loop
      vertex -9.96152 -1.3 3
      vertex -8.23726 -2.26274 3
      vertex -9.2 -0.538477 3
    endloop
  endfacet
  facet normal 0 0 1
    outer loop
      vertex -8.23726 -2.26274 3
      vertex -9.96152 -1.3 3
      vertex -9.27541 -2.95641 3
    endloop
  endfacet
  facet normal 0 0 1
    outer loop
      vertex -9.96152 -1.3 3
      vertex -10.5 -3.2 3
      vertex -9.27541 -2.95641 3
    endloop
  endfacet
  facet normal -0 0 1
    outer loop
      vertex -11.0385 -1.3 3
      vertex -10.5 -3.2 3
      vertex -9.96152 -1.3 3
    endloop
  endfacet
  facet normal 0 0 1
    outer loop
      vertex -10.5 -3.2 3
      vertex -11.0385 -1.3 3
      vertex -11 -3.2 3
    endloop
  endfacet
  facet normal 0 0 1
    outer loop
      vertex -11.0385 -1.3 3
      vertex -11.5 -3.10054 3
      vertex -11 -3.2 3
    endloop
  endfacet
  facet normal 0 0 1
    outer loop
      vertex -12.5 -2.77239 3
      vertex -11.0385 -1.3 3
      vertex -11.8 -0.538477 3
    endloop
  endfacet
  facet normal 0 0 1
    outer loop
      vertex -11.0385 -1.3 3
      vertex -12.5 -2.77239 3
      vertex -11.5 -3.10054 3
    endloop
  endfacet
  facet normal -0 0 1
    outer loop
      vertex -13.2627 2.26274 3
      vertex -11.8 0.538477 3
      vertex -12.5 2.77239 3
    endloop
  endfacet
  facet normal -0 0 1
    outer loop
      vertex -13.9564 1.22459 3
      vertex -11.8 0.538477 3
      vertex -13.2627 2.26274 3
    endloop
  endfacet
  facet normal 0 0 1
    outer loop
      vertex -12.5 -6.6 3
      vertex -11.5 -3.10054 3
      vertex -12.5 -2.77239 3
    endloop
  endfacet
  facet normal 0 0 1
    outer loop
      vertex -11.5 -3.10054 3
      vertex -12.5 -6.6 3
      vertex -11.5 -6.6 3
    endloop
  endfacet
  facet normal 0 0 1
    outer loop
      vertex 12.5 -2.77239 3
      vertex 11.0385 -1.3 3
      vertex 11.5 -3.10054 3
    endloop
  endfacet
  facet normal 0 0 1
    outer loop
      vertex 11.0385 -1.3 3
      vertex 11 -3.2 3
      vertex 11.5 -3.10054 3
    endloop
  endfacet
  facet normal 0 0 1
    outer loop
      vertex 11.0385 -1.3 3
      vertex 10.5 -3.2 3
      vertex 11 -3.2 3
    endloop
  endfacet
  facet normal -0 0 1
    outer loop
      vertex 9.96152 -1.3 3
      vertex 10.5 -3.2 3
      vertex 11.0385 -1.3 3
    endloop
  endfacet
  facet normal 0 0 1
    outer loop
      vertex 9.96152 -1.3 3
      vertex 9.27541 -2.95641 3
      vertex 10.5 -3.2 3
    endloop
  endfacet
  facet normal 0 0 1
    outer loop
      vertex 8.23726 -2.26274 3
      vertex 9.96152 -1.3 3
      vertex 9.2 -0.538477 3
    endloop
  endfacet
  facet normal 0 0 1
    outer loop
      vertex 7.3 0 3
      vertex 9.2 0.538477 3
      vertex 7.54358 1.22459 3
    endloop
  endfacet
  facet normal 0 0 1
    outer loop
      vertex 9.96152 -1.3 3
      vertex 8.23726 -2.26274 3
      vertex 9.27541 -2.95641 3
    endloop
  endfacet
  facet normal 0 0 1
    outer loop
      vertex 9.2 0.538477 3
      vertex 7.3 0 3
      vertex 9.2 -0.538477 3
    endloop
  endfacet
  facet normal 0 0 1
    outer loop
      vertex 9.2 -0.538477 3
      vertex 7.54358 -1.22459 3
      vertex 8.23726 -2.26274 3
    endloop
  endfacet
  facet normal 0 0 1
    outer loop
      vertex 9.2 -0.538477 3
      vertex 7.3 0 3
      vertex 7.54358 -1.22459 3
    endloop
  endfacet
  facet normal -0 0 1
    outer loop
      vertex 11.5 13.4 3
      vertex 12.5 2.77239 3
      vertex 12.5 14.4 3
    endloop
  endfacet
  facet normal 0 0 1
    outer loop
      vertex 12.5 2.77239 3
      vertex 11.8 0.538477 3
      vertex 12.5 -2.77239 3
    endloop
  endfacet
  facet normal -0 0 1
    outer loop
      vertex 11.8 -0.538477 3
      vertex 12.5 -2.77239 3
      vertex 11.8 0.538477 3
    endloop
  endfacet
  facet normal 0 0 1
    outer loop
      vertex 12.5 2.77239 3
      vertex 11.5 13.4 3
      vertex 11.5 3.10054 3
    endloop
  endfacet
  facet normal 0 0 1
    outer loop
      vertex 12.5 14.4 3
      vertex -11.5 13.4 3
      vertex 11.5 13.4 3
    endloop
  endfacet
  facet normal 0 0 1
    outer loop
      vertex -12.5 2.77239 3
      vertex -11.5 13.4 3
      vertex -12.5 14.4 3
    endloop
  endfacet
  facet normal 0 0 1
    outer loop
      vertex -11.0385 1.3 3
      vertex -12.5 2.77239 3
      vertex -11.8 0.538477 3
    endloop
  endfacet
  facet normal 0 0 1
    outer loop
      vertex -11.5 13.4 3
      vertex -12.5 2.77239 3
      vertex -11.5 3.10054 3
    endloop
  endfacet
  facet normal -0 0 1
    outer loop
      vertex -12.5 14.4 3
      vertex -11.5 13.4 3
      vertex 12.5 14.4 3
    endloop
  endfacet
  facet normal 0 0 1
    outer loop
      vertex 12.5 2.77239 3
      vertex 14.2 0 3
      vertex 13.9564 1.22459 3
    endloop
  endfacet
  facet normal 0 0 1
    outer loop
      vertex 12.5 2.77239 3
      vertex 13.9564 1.22459 3
      vertex 13.2627 2.26274 3
    endloop
  endfacet
  facet normal 0 0 1
    outer loop
      vertex 14.2 0 3
      vertex 12.5 2.77239 3
      vertex 13.9564 -1.22459 3
    endloop
  endfacet
  facet normal 0 0 1
    outer loop
      vertex 12.5 -2.77239 3
      vertex 13.9564 -1.22459 3
      vertex 12.5 2.77239 3
    endloop
  endfacet
  facet normal 0 0 1
    outer loop
      vertex 13.9564 -1.22459 3
      vertex 12.5 -2.77239 3
      vertex 13.2627 -2.26274 3
    endloop
  endfacet
  facet normal -0 0 1
    outer loop
      vertex 11.0385 -1.3 3
      vertex 12.5 -2.77239 3
      vertex 11.8 -0.538477 3
    endloop
  endfacet
  facet normal 0 0 1
    outer loop
      vertex 12.5 -2.77239 3
      vertex 11.5 -3.10054 3
      vertex 12.5 -6.6 3
    endloop
  endfacet
  facet normal 0 0 1
    outer loop
      vertex 12.5 -6.6 3
      vertex 11.5 -3.10054 3
      vertex 11.5 -6.6 3
    endloop
  endfacet
  facet normal 0 0 1
    outer loop
      vertex 11.0385 1.3 3
      vertex 12.5 2.77239 3
      vertex 11.5 3.10054 3
    endloop
  endfacet
  facet normal 0 0 1
    outer loop
      vertex 12.5 2.77239 3
      vertex 11.0385 1.3 3
      vertex 11.8 0.538477 3
    endloop
  endfacet
  facet normal 0 0 1
    outer loop
      vertex 11 3.2 3
      vertex 11.0385 1.3 3
      vertex 11.5 3.10054 3
    endloop
  endfacet
  facet normal -0 0 1
    outer loop
      vertex 10.5 3.2 3
      vertex 11.0385 1.3 3
      vertex 11 3.2 3
    endloop
  endfacet
  facet normal 0 0 1
    outer loop
      vertex 10.5 3.2 3
      vertex 9.96152 1.3 3
      vertex 11.0385 1.3 3
    endloop
  endfacet
  facet normal -0 0 1
    outer loop
      vertex 9.27541 2.95641 3
      vertex 9.96152 1.3 3
      vertex 10.5 3.2 3
    endloop
  endfacet
  facet normal -0 0 1
    outer loop
      vertex 8.23726 2.26274 3
      vertex 9.96152 1.3 3
      vertex 9.27541 2.95641 3
    endloop
  endfacet
  facet normal -0 0 1
    outer loop
      vertex 7.54358 1.22459 3
      vertex 9.2 0.538477 3
      vertex 8.23726 2.26274 3
    endloop
  endfacet
  facet normal 0 0 1
    outer loop
      vertex 9.96152 1.3 3
      vertex 8.23726 2.26274 3
      vertex 9.2 0.538477 3
    endloop
  endfacet
  facet normal 0 0 -1
    outer loop
      vertex -13.2627 2.26274 0
      vertex -12.1971 1.69706 0
      vertex -12.7173 0.91844 0
    endloop
  endfacet
  facet normal 0 0 -1
    outer loop
      vertex -13.9564 1.22459 0
      vertex -12.7173 0.91844 0
      vertex -12.9 0 0
    endloop
  endfacet
  facet normal -0 0 -1
    outer loop
      vertex -12.7173 -0.91844 0
      vertex -13.9564 -1.22459 0
      vertex -12.9 0 0
    endloop
  endfacet
  facet normal 0 0 -1
    outer loop
      vertex -14.2 0 0
      vertex -12.9 0 0
      vertex -13.9564 -1.22459 0
    endloop
  endfacet
  facet normal 0 -0 -1
    outer loop
      vertex -13.9564 1.22459 0
      vertex -12.9 0 0
      vertex -14.2 0 0
    endloop
  endfacet
  facet normal 0 0 -1
    outer loop
      vertex -12.1971 1.69706 0
      vertex -13.2627 2.26274 0
      vertex -12.5 2.77239 0
    endloop
  endfacet
  facet normal 0 0 -1
    outer loop
      vertex -12.7173 0.91844 0
      vertex -13.9564 1.22459 0
      vertex -13.2627 2.26274 0
    endloop
  endfacet
  facet normal 0 0 -1
    outer loop
      vertex -12.5 -6.6 0
      vertex -10.5 -3.6 0
      vertex -10.5 -6.6 0
    endloop
  endfacet
  facet normal 0 -0 -1
    outer loop
      vertex -11.4184 -2.21731 0
      vertex -10.5 -3.6 0
      vertex -12.5 -2.77239 0
    endloop
  endfacet
  facet normal 0 0 -1
    outer loop
      vertex -10.5 -3.6 0
      vertex -11.4184 -2.21731 0
      vertex -10.5 -2.4 0
    endloop
  endfacet
  facet normal -0 0 -1
    outer loop
      vertex -10.5 -3.6 0
      vertex -12.5 -6.6 0
      vertex -12.5 -2.77239 0
    endloop
  endfacet
  facet normal -0 0 -1
    outer loop
      vertex -11.4184 -2.21731 0
      vertex -12.5 -2.77239 0
      vertex -12.1971 -1.69706 0
    endloop
  endfacet
  facet normal 0 0 -1
    outer loop
      vertex -13.2627 -2.26274 0
      vertex -12.1971 -1.69706 0
      vertex -12.5 -2.77239 0
    endloop
  endfacet
  facet normal -0 0 -1
    outer loop
      vertex -12.1971 -1.69706 0
      vertex -13.2627 -2.26274 0
      vertex -12.7173 -0.91844 0
    endloop
  endfacet
  facet normal 0 0 -1
    outer loop
      vertex -13.9564 -1.22459 0
      vertex -12.7173 -0.91844 0
      vertex -13.2627 -2.26274 0
    endloop
  endfacet
  facet normal 0 0 -1
    outer loop
      vertex 10.5 -3.6 0
      vertex 12.5 -2.77239 0
      vertex 12.5 -6.6 0
    endloop
  endfacet
  facet normal 0 0 -1
    outer loop
      vertex 12.5 -2.77239 0
      vertex 11.4184 -2.21731 0
      vertex 12.1971 -1.69706 0
    endloop
  endfacet
  facet normal 0 0 -1
    outer loop
      vertex 10.5 -3.6 0
      vertex 12.5 -6.6 0
      vertex 10.5 -6.6 0
    endloop
  endfacet
  facet normal -0 0 -1
    outer loop
      vertex 12.5 -2.77239 0
      vertex 10.5 -3.6 0
      vertex 11.4184 -2.21731 0
    endloop
  endfacet
  facet normal 0 0 -1
    outer loop
      vertex 10.5 -3.6 0
      vertex 10.5 -2.4 0
      vertex 11.4184 -2.21731 0
    endloop
  endfacet
  facet normal 0 0 -1
    outer loop
      vertex 10.5 -3.6 0
      vertex 9.58156 -2.21731 0
      vertex 10.5 -2.4 0
    endloop
  endfacet
  facet normal 0 0 -1
    outer loop
      vertex 10.5 -3.6 0
      vertex 8.80294 -1.69706 0
      vertex 9.58156 -2.21731 0
    endloop
  endfacet
  facet normal 0 0 -1
    outer loop
      vertex 8.28269 -0.91844 0
      vertex -8.1 0 0
      vertex 8.1 0 0
    endloop
  endfacet
  facet normal 0 0 -1
    outer loop
      vertex -8.28269 -0.91844 0
      vertex 8.28269 -0.91844 0
      vertex 8.80294 -1.69706 0
    endloop
  endfacet
  facet normal 0 0 -1
    outer loop
      vertex -8.80294 -1.69706 0
      vertex 8.80294 -1.69706 0
      vertex 10.5 -3.6 0
    endloop
  endfacet
  facet normal 0 0 -1
    outer loop
      vertex 8.28269 -0.91844 0
      vertex -8.28269 -0.91844 0
      vertex -8.1 0 0
    endloop
  endfacet
  facet normal 0 0 -1
    outer loop
      vertex 8.80294 -1.69706 0
      vertex -8.80294 -1.69706 0
      vertex -8.28269 -0.91844 0
    endloop
  endfacet
  facet normal 0 0 -1
    outer loop
      vertex -10.5 -3.6 0
      vertex -8.80294 -1.69706 0
      vertex 10.5 -3.6 0
    endloop
  endfacet
  facet normal 0 0 -1
    outer loop
      vertex -8.80294 -1.69706 0
      vertex -10.5 -3.6 0
      vertex -9.58156 -2.21731 0
    endloop
  endfacet
  facet normal 0 0 -1
    outer loop
      vertex -9.58156 -2.21731 0
      vertex -10.5 -3.6 0
      vertex -10.5 -2.4 0
    endloop
  endfacet
  facet normal 0 0 -1
    outer loop
      vertex 12.9 0 0
      vertex 14.2 0 0
      vertex 13.9564 -1.22459 0
    endloop
  endfacet
  facet normal 0 0 -1
    outer loop
      vertex 12.7173 -0.91844 0
      vertex 13.9564 -1.22459 0
      vertex 13.2627 -2.26274 0
    endloop
  endfacet
  facet normal 0 0 -1
    outer loop
      vertex 14.2 0 0
      vertex 12.9 0 0
      vertex 13.9564 1.22459 0
    endloop
  endfacet
  facet normal 0 0 -1
    outer loop
      vertex 12.7173 0.91844 0
      vertex 13.9564 1.22459 0
      vertex 12.9 0 0
    endloop
  endfacet
  facet normal 0 0 -1
    outer loop
      vertex 13.9564 -1.22459 0
      vertex 12.7173 -0.91844 0
      vertex 12.9 0 0
    endloop
  endfacet
  facet normal 0 0 -1
    outer loop
      vertex 12.1971 -1.69706 0
      vertex 13.2627 -2.26274 0
      vertex 12.5 -2.77239 0
    endloop
  endfacet
  facet normal 0 0 -1
    outer loop
      vertex 13.2627 -2.26274 0
      vertex 12.1971 -1.69706 0
      vertex 12.7173 -0.91844 0
    endloop
  endfacet
  facet normal -0 0 -1
    outer loop
      vertex 13.9564 1.22459 0
      vertex 12.7173 0.91844 0
      vertex 13.2627 2.26274 0
    endloop
  endfacet
  facet normal 0 0 -1
    outer loop
      vertex 12.1971 1.69706 0
      vertex 13.2627 2.26274 0
      vertex 12.7173 0.91844 0
    endloop
  endfacet
  facet normal -0 0 -1
    outer loop
      vertex 13.2627 2.26274 0
      vertex 12.1971 1.69706 0
      vertex 12.5 2.77239 0
    endloop
  endfacet
  facet normal 0 0 -1
    outer loop
      vertex 11.4184 2.21731 0
      vertex 12.5 2.77239 0
      vertex 12.1971 1.69706 0
    endloop
  endfacet
  facet normal 0 0 -1
    outer loop
      vertex 10.5 2.4 0
      vertex 12.5 2.77239 0
      vertex 11.4184 2.21731 0
    endloop
  endfacet
  facet normal -0 0 -1
    outer loop
      vertex 12.5 2.77239 0
      vertex 10.5 2.4 0
      vertex 12.5 14.4 0
    endloop
  endfacet
  facet normal 0 0 -1
    outer loop
      vertex 9.58156 2.21731 0
      vertex 12.5 14.4 0
      vertex 10.5 2.4 0
    endloop
  endfacet
  facet normal 0 0 -1
    outer loop
      vertex 8.80294 1.69706 0
      vertex 12.5 14.4 0
      vertex 9.58156 2.21731 0
    endloop
  endfacet
  facet normal 0 0 -1
    outer loop
      vertex -8.80294 1.69706 0
      vertex 8.80294 1.69706 0
      vertex 8.28269 0.91844 0
    endloop
  endfacet
  facet normal 0 0 -1
    outer loop
      vertex -8.1 0 0
      vertex 8.28269 0.91844 0
      vertex 8.1 0 0
    endloop
  endfacet
  facet normal 0 0 -1
    outer loop
      vertex -8.28269 0.91844 0
      vertex 8.28269 0.91844 0
      vertex -8.1 0 0
    endloop
  endfacet
  facet normal 0 0 -1
    outer loop
      vertex -8.80294 1.69706 0
      vertex 8.28269 0.91844 0
      vertex -8.28269 0.91844 0
    endloop
  endfacet
  facet normal 0 0 -1
    outer loop
      vertex 8.80294 1.69706 0
      vertex -8.80294 1.69706 0
      vertex 12.5 14.4 0
    endloop
  endfacet
  facet normal 0 0 -1
    outer loop
      vertex -12.5 14.4 0
      vertex -8.80294 1.69706 0
      vertex -9.58156 2.21731 0
    endloop
  endfacet
  facet normal 0 0 -1
    outer loop
      vertex -12.5 14.4 0
      vertex -9.58156 2.21731 0
      vertex -10.5 2.4 0
    endloop
  endfacet
  facet normal 0 0 -1
    outer loop
      vertex -12.5 2.77239 0
      vertex -10.5 2.4 0
      vertex -11.4184 2.21731 0
    endloop
  endfacet
  facet normal 0 0 -1
    outer loop
      vertex -12.5 2.77239 0
      vertex -11.4184 2.21731 0
      vertex -12.1971 1.69706 0
    endloop
  endfacet
  facet normal 0 0 -1
    outer loop
      vertex -10.5 2.4 0
      vertex -12.5 2.77239 0
      vertex -12.5 14.4 0
    endloop
  endfacet
  facet normal 0 0 -1
    outer loop
      vertex -8.80294 1.69706 0
      vertex -12.5 14.4 0
      vertex 12.5 14.4 0
    endloop
  endfacet
  facet normal -1 0 0
    outer loop
      vertex -12.5 2.77239 0
      vertex -12.5 14.4 3
      vertex -12.5 14.4 0
    endloop
  endfacet
  facet normal -1 -0 0
    outer loop
      vertex -12.5 14.4 3
      vertex -12.5 2.77239 0
      vertex -12.5 2.77239 3
    endloop
  endfacet
  facet normal -1 0 0
    outer loop
      vertex -12.5 -6.6 0
      vertex -12.5 -2.77239 3
      vertex -12.5 -2.77239 0
    endloop
  endfacet
  facet normal -1 -0 0
    outer loop
      vertex -12.5 -2.77239 3
      vertex -12.5 -6.6 0
      vertex -12.5 -6.6 3
    endloop
  endfacet
  facet normal 0 1 -0
    outer loop
      vertex 12.5 14.4 0
      vertex -12.5 14.4 3
      vertex 12.5 14.4 3
    endloop
  endfacet
  facet normal 0 1 0
    outer loop
      vertex -12.5 14.4 3
      vertex 12.5 14.4 0
      vertex -12.5 14.4 0
    endloop
  endfacet
  facet normal 0 -1 0
    outer loop
      vertex -12.5 -6.6 3
      vertex -11.5 -6.6 0.75
      vertex -11.5 -6.6 3
    endloop
  endfacet
  facet normal 0 -1 0
    outer loop
      vertex -12.5 -6.6 0
      vertex -11.5 -6.6 0.75
      vertex -12.5 -6.6 3
    endloop
  endfacet
  facet normal 0 -1 0
    outer loop
      vertex -10.5 -6.6 0
      vertex -11.5 -6.6 0.75
      vertex -12.5 -6.6 0
    endloop
  endfacet
  facet normal 0 -1 0
    outer loop
      vertex -11.5 -6.6 0.75
      vertex -10.5 -6.6 0
      vertex -10.5 -6.6 0.75
    endloop
  endfacet
  facet normal 0 -1 0
    outer loop
      vertex 10.5 -6.6 0.75
      vertex 10.5 -6.6 0
      vertex 11.5 -6.6 0.75
    endloop
  endfacet
  facet normal 0 -1 0
    outer loop
      vertex 11.5 -6.6 0.75
      vertex 12.5 -6.6 3
      vertex 11.5 -6.6 3
    endloop
  endfacet
  facet normal 0 -1 0
    outer loop
      vertex 11.5 -6.6 0.75
      vertex 12.5 -6.6 0
      vertex 12.5 -6.6 3
    endloop
  endfacet
  facet normal 0 -1 0
    outer loop
      vertex 12.5 -6.6 0
      vertex 11.5 -6.6 0.75
      vertex 10.5 -6.6 0
    endloop
  endfacet
  facet normal -1 0 0
    outer loop
      vertex 11.5 3.10054 0.75
      vertex 11.5 13.4 3
      vertex 11.5 13.4 0.75
    endloop
  endfacet
  facet normal -1 -0 0
    outer loop
      vertex 11.5 13.4 3
      vertex 11.5 3.10054 0.75
      vertex 11.5 3.10054 3
    endloop
  endfacet
  facet normal -1 0 0
    outer loop
      vertex 11.5 -6.6 0.75
      vertex 11.5 -3.10054 3
      vertex 11.5 -3.10054 0.75
    endloop
  endfacet
  facet normal -1 -0 0
    outer loop
      vertex 11.5 -3.10054 3
      vertex 11.5 -6.6 0.75
      vertex 11.5 -6.6 3
    endloop
  endfacet
  facet normal 0 0 1
    outer loop
      vertex 11.5 13.4 0.75
      vertex 11 3.2 0.75
      vertex 11.5 3.10054 0.75
    endloop
  endfacet
  facet normal 0 0 1
    outer loop
      vertex 11.5 13.4 0.75
      vertex 10.5 3.2 0.75
      vertex 11 3.2 0.75
    endloop
  endfacet
  facet normal 0 0 1
    outer loop
      vertex 11.5 13.4 0.75
      vertex 9.27541 2.95641 0.75
      vertex 10.5 3.2 0.75
    endloop
  endfacet
  facet normal 0 0 1
    outer loop
      vertex 11.5 13.4 0.75
      vertex 8.23726 2.26274 0.75
      vertex 9.27541 2.95641 0.75
    endloop
  endfacet
  facet normal 0 0 1
    outer loop
      vertex -8.23726 2.26274 0.75
      vertex 8.23726 2.26274 0.75
      vertex 11.5 13.4 0.75
    endloop
  endfacet
  facet normal 0 0 1
    outer loop
      vertex 7.54358 1.22459 0.75
      vertex -7.3 0 0.75
      vertex 7.3 0 0.75
    endloop
  endfacet
  facet normal 0 0 1
    outer loop
      vertex 8.23726 2.26274 0.75
      vertex -8.23726 2.26274 0.75
      vertex 7.54358 1.22459 0.75
    endloop
  endfacet
  facet normal 0 0 1
    outer loop
      vertex 7.54358 1.22459 0.75
      vertex -7.54358 1.22459 0.75
      vertex -7.3 0 0.75
    endloop
  endfacet
  facet normal 0 0 1
    outer loop
      vertex 7.54358 1.22459 0.75
      vertex -8.23726 2.26274 0.75
      vertex -7.54358 1.22459 0.75
    endloop
  endfacet
  facet normal -0 0 1
    outer loop
      vertex -11.5 13.4 0.75
      vertex -8.23726 2.26274 0.75
      vertex 11.5 13.4 0.75
    endloop
  endfacet
  facet normal 0 0 1
    outer loop
      vertex -8.23726 2.26274 0.75
      vertex -11.5 13.4 0.75
      vertex -9.27541 2.95641 0.75
    endloop
  endfacet
  facet normal 0 0 1
    outer loop
      vertex -9.27541 2.95641 0.75
      vertex -11.5 13.4 0.75
      vertex -10.5 3.2 0.75
    endloop
  endfacet
  facet normal 0 0 1
    outer loop
      vertex -10.5 3.2 0.75
      vertex -11.5 13.4 0.75
      vertex -11 3.2 0.75
    endloop
  endfacet
  facet normal 0 0 1
    outer loop
      vertex -11 3.2 0.75
      vertex -11.5 13.4 0.75
      vertex -11.5 3.10054 0.75
    endloop
  endfacet
  facet normal 0 0 1
    outer loop
      vertex 9.27541 -2.95641 0.75
      vertex 10.5 -3.6 0.75
      vertex 10.5 -3.2 0.75
    endloop
  endfacet
  facet normal -0 0 1
    outer loop
      vertex -7.3 0 0.75
      vertex 7.54358 -1.22459 0.75
      vertex 7.3 0 0.75
    endloop
  endfacet
  facet normal 0 0 1
    outer loop
      vertex -7.54358 -1.22459 0.75
      vertex 7.54358 -1.22459 0.75
      vertex -7.3 0 0.75
    endloop
  endfacet
  facet normal 0 0 1
    outer loop
      vertex 7.54358 -1.22459 0.75
      vertex -7.54358 -1.22459 0.75
      vertex 8.23726 -2.26274 0.75
    endloop
  endfacet
  facet normal 0 0 1
    outer loop
      vertex -8.23726 -2.26274 0.75
      vertex 8.23726 -2.26274 0.75
      vertex -7.54358 -1.22459 0.75
    endloop
  endfacet
  facet normal 0 0 1
    outer loop
      vertex 8.23726 -2.26274 0.75
      vertex -8.23726 -2.26274 0.75
      vertex 9.27541 -2.95641 0.75
    endloop
  endfacet
  facet normal 0 0 1
    outer loop
      vertex -9.27541 -2.95641 0.75
      vertex 9.27541 -2.95641 0.75
      vertex -8.23726 -2.26274 0.75
    endloop
  endfacet
  facet normal 0 0 1
    outer loop
      vertex 9.27541 -2.95641 0.75
      vertex -9.27541 -2.95641 0.75
      vertex 10.5 -3.6 0.75
    endloop
  endfacet
  facet normal 0 0 1
    outer loop
      vertex -10.5 -3.6 0.75
      vertex -9.27541 -2.95641 0.75
      vertex -10.5 -3.2 0.75
    endloop
  endfacet
  facet normal 0 0 1
    outer loop
      vertex -9.27541 -2.95641 0.75
      vertex -10.5 -3.6 0.75
      vertex 10.5 -3.6 0.75
    endloop
  endfacet
  facet normal -0 0 1
    outer loop
      vertex -11 -3.2 0.75
      vertex -10.5 -3.6 0.75
      vertex -10.5 -3.2 0.75
    endloop
  endfacet
  facet normal 0 0 1
    outer loop
      vertex -11.5 -3.10054 0.75
      vertex -10.5 -3.6 0.75
      vertex -11 -3.2 0.75
    endloop
  endfacet
  facet normal 0 0 1
    outer loop
      vertex -10.5 -3.6 0.75
      vertex -11.5 -3.10054 0.75
      vertex -11.5 -6.6 0.75
    endloop
  endfacet
  facet normal 0 0 1
    outer loop
      vertex -10.5 -3.6 0.75
      vertex -11.5 -6.6 0.75
      vertex -10.5 -6.6 0.75
    endloop
  endfacet
  facet normal 0 0 1
    outer loop
      vertex 10.5 -3.6 0.75
      vertex 11.5 -3.10054 0.75
      vertex 11 -3.2 0.75
    endloop
  endfacet
  facet normal 0 0 1
    outer loop
      vertex 10.5 -3.6 0.75
      vertex 11 -3.2 0.75
      vertex 10.5 -3.2 0.75
    endloop
  endfacet
  facet normal 0 0 1
    outer loop
      vertex 11.5 -3.10054 0.75
      vertex 10.5 -3.6 0.75
      vertex 11.5 -6.6 0.75
    endloop
  endfacet
  facet normal 0 0 1
    outer loop
      vertex 11.5 -6.6 0.75
      vertex 10.5 -3.6 0.75
      vertex 10.5 -6.6 0.75
    endloop
  endfacet
  facet normal 1 -0 0
    outer loop
      vertex -11.5 3.10054 3
      vertex -11.5 13.4 0.75
      vertex -11.5 13.4 3
    endloop
  endfacet
  facet normal 1 0 0
    outer loop
      vertex -11.5 13.4 0.75
      vertex -11.5 3.10054 3
      vertex -11.5 3.10054 0.75
    endloop
  endfacet
  facet normal 1 -0 0
    outer loop
      vertex -11.5 -6.6 3
      vertex -11.5 -3.10054 0.75
      vertex -11.5 -3.10054 3
    endloop
  endfacet
  facet normal 1 0 0
    outer loop
      vertex -11.5 -3.10054 0.75
      vertex -11.5 -6.6 3
      vertex -11.5 -6.6 0.75
    endloop
  endfacet
  facet normal 0 -1 0
    outer loop
      vertex -11.5 13.4 0.75
      vertex 11.5 13.4 3
      vertex -11.5 13.4 3
    endloop
  endfacet
  facet normal 0 -1 -0
    outer loop
      vertex 11.5 13.4 3
      vertex -11.5 13.4 0.75
      vertex 11.5 13.4 0.75
    endloop
  endfacet
  facet normal -1 0 0
    outer loop
      vertex 10.5 -6.6 0
      vertex 10.5 -3.6 0.75
      vertex 10.5 -3.6 0
    endloop
  endfacet
  facet normal -1 -0 0
    outer loop
      vertex 10.5 -3.6 0.75
      vertex 10.5 -6.6 0
      vertex 10.5 -6.6 0.75
    endloop
  endfacet
  facet normal 1 -0 0
    outer loop
      vertex -10.5 -6.6 0.75
      vertex -10.5 -3.6 0
      vertex -10.5 -3.6 0.75
    endloop
  endfacet
  facet normal 1 0 0
    outer loop
      vertex -10.5 -3.6 0
      vertex -10.5 -6.6 0.75
      vertex -10.5 -6.6 0
    endloop
  endfacet
  facet normal 0 -1 0
    outer loop
      vertex -10.5 -3.6 0
      vertex 10.5 -3.6 0.75
      vertex -10.5 -3.6 0.75
    endloop
  endfacet
  facet normal 0 -1 -0
    outer loop
      vertex 10.5 -3.6 0.75
      vertex -10.5 -3.6 0
      vertex 10.5 -3.6 0
    endloop
  endfacet
  facet normal -0.195093 -0.980785 0
    outer loop
      vertex 9.27541 -2.95641 0.75
      vertex 10.5 -3.2 3
      vertex 9.27541 -2.95641 3
    endloop
  endfacet
  facet normal -0.195093 -0.980785 -0
    outer loop
      vertex 10.5 -3.2 3
      vertex 9.27541 -2.95641 0.75
      vertex 10.5 -3.2 0.75
    endloop
  endfacet
  facet normal -0.831466 -0.555576 0
    outer loop
      vertex 8.23726 -2.26274 0.75
      vertex 7.54358 -1.22459 3
      vertex 7.54358 -1.22459 0.75
    endloop
  endfacet
  facet normal -0.831466 -0.555576 0
    outer loop
      vertex 7.54358 -1.22459 3
      vertex 8.23726 -2.26274 0.75
      vertex 8.23726 -2.26274 3
    endloop
  endfacet
  facet normal 0 1 -0
    outer loop
      vertex 11 3.2 0.75
      vertex 10.5 3.2 3
      vertex 11 3.2 3
    endloop
  endfacet
  facet normal 0 1 0
    outer loop
      vertex 10.5 3.2 3
      vertex 11 3.2 0.75
      vertex 10.5 3.2 0.75
    endloop
  endfacet
  facet normal 0.195098 -0.980784 0
    outer loop
      vertex 11 -3.2 0.75
      vertex 11.5 -3.10054 3
      vertex 11 -3.2 3
    endloop
  endfacet
  facet normal 0.195098 -0.980784 0
    outer loop
      vertex 11.5 -3.10054 3
      vertex 11 -3.2 0.75
      vertex 11.5 -3.10054 0.75
    endloop
  endfacet
  facet normal -0.831466 0.555576 0
    outer loop
      vertex 7.54358 1.22459 0.75
      vertex 8.23726 2.26274 3
      vertex 8.23726 2.26274 0.75
    endloop
  endfacet
  facet normal -0.831466 0.555576 0
    outer loop
      vertex 8.23726 2.26274 3
      vertex 7.54358 1.22459 0.75
      vertex 7.54358 1.22459 3
    endloop
  endfacet
  facet normal 0.555593 -0.831454 0
    outer loop
      vertex 12.5 -2.77239 0
      vertex 13.2627 -2.26274 3
      vertex 12.5 -2.77239 3
    endloop
  endfacet
  facet normal 0.555593 -0.831454 0
    outer loop
      vertex 13.2627 -2.26274 3
      vertex 12.5 -2.77239 0
      vertex 13.2627 -2.26274 0
    endloop
  endfacet
  facet normal 0.555593 0.831454 -0
    outer loop
      vertex 13.2627 2.26274 0
      vertex 12.5 2.77239 3
      vertex 13.2627 2.26274 3
    endloop
  endfacet
  facet normal 0.555593 0.831454 0
    outer loop
      vertex 12.5 2.77239 3
      vertex 13.2627 2.26274 0
      vertex 12.5 2.77239 0
    endloop
  endfacet
  facet normal 0.195098 0.980784 -0
    outer loop
      vertex 11.5 3.10054 0.75
      vertex 11 3.2 3
      vertex 11.5 3.10054 3
    endloop
  endfacet
  facet normal 0.195098 0.980784 0
    outer loop
      vertex 11 3.2 3
      vertex 11.5 3.10054 0.75
      vertex 11 3.2 0.75
    endloop
  endfacet
  facet normal 0.831458 0.555587 0
    outer loop
      vertex 13.9564 1.22459 3
      vertex 13.2627 2.26274 0
      vertex 13.2627 2.26274 3
    endloop
  endfacet
  facet normal 0.831458 0.555587 0
    outer loop
      vertex 13.2627 2.26274 0
      vertex 13.9564 1.22459 3
      vertex 13.9564 1.22459 0
    endloop
  endfacet
  facet normal 0.980783 0.195101 0
    outer loop
      vertex 14.2 0 3
      vertex 13.9564 1.22459 0
      vertex 13.9564 1.22459 3
    endloop
  endfacet
  facet normal 0.980783 0.195101 0
    outer loop
      vertex 13.9564 1.22459 0
      vertex 14.2 0 3
      vertex 14.2 0 0
    endloop
  endfacet
  facet normal 0 -1 0
    outer loop
      vertex 10.5 -3.2 0.75
      vertex 11 -3.2 3
      vertex 10.5 -3.2 3
    endloop
  endfacet
  facet normal 0 -1 -0
    outer loop
      vertex 11 -3.2 3
      vertex 10.5 -3.2 0.75
      vertex 11 -3.2 0.75
    endloop
  endfacet
  facet normal -0.55557 -0.831469 0
    outer loop
      vertex 8.23726 -2.26274 0.75
      vertex 9.27541 -2.95641 3
      vertex 8.23726 -2.26274 3
    endloop
  endfacet
  facet normal -0.55557 -0.831469 -0
    outer loop
      vertex 9.27541 -2.95641 3
      vertex 8.23726 -2.26274 0.75
      vertex 9.27541 -2.95641 0.75
    endloop
  endfacet
  facet normal 0.831458 -0.555587 0
    outer loop
      vertex 13.2627 -2.26274 3
      vertex 13.9564 -1.22459 0
      vertex 13.9564 -1.22459 3
    endloop
  endfacet
  facet normal 0.831458 -0.555587 0
    outer loop
      vertex 13.9564 -1.22459 0
      vertex 13.2627 -2.26274 3
      vertex 13.2627 -2.26274 0
    endloop
  endfacet
  facet normal 0.980783 -0.195101 0
    outer loop
      vertex 13.9564 -1.22459 3
      vertex 14.2 0 0
      vertex 14.2 0 3
    endloop
  endfacet
  facet normal 0.980783 -0.195101 0
    outer loop
      vertex 14.2 0 0
      vertex 13.9564 -1.22459 3
      vertex 13.9564 -1.22459 0
    endloop
  endfacet
  facet normal -0.980786 0.195086 0
    outer loop
      vertex 7.3 0 0.75
      vertex 7.54358 1.22459 3
      vertex 7.54358 1.22459 0.75
    endloop
  endfacet
  facet normal -0.980786 0.195086 0
    outer loop
      vertex 7.54358 1.22459 3
      vertex 7.3 0 0.75
      vertex 7.3 0 3
    endloop
  endfacet
  facet normal -0.980786 -0.195086 0
    outer loop
      vertex 7.54358 -1.22459 0.75
      vertex 7.3 0 3
      vertex 7.3 0 0.75
    endloop
  endfacet
  facet normal -0.980786 -0.195086 0
    outer loop
      vertex 7.3 0 3
      vertex 7.54358 -1.22459 0.75
      vertex 7.54358 -1.22459 3
    endloop
  endfacet
  facet normal -0.55557 0.831469 0
    outer loop
      vertex 9.27541 2.95641 0.75
      vertex 8.23726 2.26274 3
      vertex 9.27541 2.95641 3
    endloop
  endfacet
  facet normal -0.55557 0.831469 0
    outer loop
      vertex 8.23726 2.26274 3
      vertex 9.27541 2.95641 0.75
      vertex 8.23726 2.26274 0.75
    endloop
  endfacet
  facet normal -0.195093 0.980785 0
    outer loop
      vertex 10.5 3.2 0.75
      vertex 9.27541 2.95641 3
      vertex 10.5 3.2 3
    endloop
  endfacet
  facet normal -0.195093 0.980785 0
    outer loop
      vertex 9.27541 2.95641 3
      vertex 10.5 3.2 0.75
      vertex 9.27541 2.95641 0.75
    endloop
  endfacet
  facet normal -0.831458 0.555587 0
    outer loop
      vertex -13.9564 1.22459 0
      vertex -13.2627 2.26274 3
      vertex -13.2627 2.26274 0
    endloop
  endfacet
  facet normal -0.831458 0.555587 0
    outer loop
      vertex -13.2627 2.26274 3
      vertex -13.9564 1.22459 0
      vertex -13.9564 1.22459 3
    endloop
  endfacet
  facet normal 0.831466 -0.555576 0
    outer loop
      vertex -8.23726 -2.26274 3
      vertex -7.54358 -1.22459 0.75
      vertex -7.54358 -1.22459 3
    endloop
  endfacet
  facet normal 0.831466 -0.555576 0
    outer loop
      vertex -7.54358 -1.22459 0.75
      vertex -8.23726 -2.26274 3
      vertex -8.23726 -2.26274 0.75
    endloop
  endfacet
  facet normal 0 1 -0
    outer loop
      vertex -10.5 3.2 0.75
      vertex -11 3.2 3
      vertex -10.5 3.2 3
    endloop
  endfacet
  facet normal 0 1 0
    outer loop
      vertex -11 3.2 3
      vertex -10.5 3.2 0.75
      vertex -11 3.2 0.75
    endloop
  endfacet
  facet normal 0.55557 -0.831469 0
    outer loop
      vertex -9.27541 -2.95641 0.75
      vertex -8.23726 -2.26274 3
      vertex -9.27541 -2.95641 3
    endloop
  endfacet
  facet normal 0.55557 -0.831469 0
    outer loop
      vertex -8.23726 -2.26274 3
      vertex -9.27541 -2.95641 0.75
      vertex -8.23726 -2.26274 0.75
    endloop
  endfacet
  facet normal 0 -1 0
    outer loop
      vertex -11 -3.2 0.75
      vertex -10.5 -3.2 3
      vertex -11 -3.2 3
    endloop
  endfacet
  facet normal 0 -1 -0
    outer loop
      vertex -10.5 -3.2 3
      vertex -11 -3.2 0.75
      vertex -10.5 -3.2 0.75
    endloop
  endfacet
  facet normal -0.831458 -0.555587 0
    outer loop
      vertex -13.2627 -2.26274 0
      vertex -13.9564 -1.22459 3
      vertex -13.9564 -1.22459 0
    endloop
  endfacet
  facet normal -0.831458 -0.555587 0
    outer loop
      vertex -13.9564 -1.22459 3
      vertex -13.2627 -2.26274 0
      vertex -13.2627 -2.26274 3
    endloop
  endfacet
  facet normal -0.555593 -0.831454 0
    outer loop
      vertex -13.2627 -2.26274 0
      vertex -12.5 -2.77239 3
      vertex -13.2627 -2.26274 3
    endloop
  endfacet
  facet normal -0.555593 -0.831454 -0
    outer loop
      vertex -12.5 -2.77239 3
      vertex -13.2627 -2.26274 0
      vertex -12.5 -2.77239 0
    endloop
  endfacet
  facet normal 0.55557 0.831469 -0
    outer loop
      vertex -8.23726 2.26274 0.75
      vertex -9.27541 2.95641 3
      vertex -8.23726 2.26274 3
    endloop
  endfacet
  facet normal 0.55557 0.831469 0
    outer loop
      vertex -9.27541 2.95641 3
      vertex -8.23726 2.26274 0.75
      vertex -9.27541 2.95641 0.75
    endloop
  endfacet
  facet normal 0.195093 -0.980785 0
    outer loop
      vertex -10.5 -3.2 0.75
      vertex -9.27541 -2.95641 3
      vertex -10.5 -3.2 3
    endloop
  endfacet
  facet normal 0.195093 -0.980785 0
    outer loop
      vertex -9.27541 -2.95641 3
      vertex -10.5 -3.2 0.75
      vertex -9.27541 -2.95641 0.75
    endloop
  endfacet
  facet normal 0.831466 0.555576 0
    outer loop
      vertex -7.54358 1.22459 3
      vertex -8.23726 2.26274 0.75
      vertex -8.23726 2.26274 3
    endloop
  endfacet
  facet normal 0.831466 0.555576 0
    outer loop
      vertex -8.23726 2.26274 0.75
      vertex -7.54358 1.22459 3
      vertex -7.54358 1.22459 0.75
    endloop
  endfacet
  facet normal 0.195093 0.980785 -0
    outer loop
      vertex -9.27541 2.95641 0.75
      vertex -10.5 3.2 3
      vertex -9.27541 2.95641 3
    endloop
  endfacet
  facet normal 0.195093 0.980785 0
    outer loop
      vertex -10.5 3.2 3
      vertex -9.27541 2.95641 0.75
      vertex -10.5 3.2 0.75
    endloop
  endfacet
  facet normal -0.555593 0.831454 0
    outer loop
      vertex -12.5 2.77239 0
      vertex -13.2627 2.26274 3
      vertex -12.5 2.77239 3
    endloop
  endfacet
  facet normal -0.555593 0.831454 0
    outer loop
      vertex -13.2627 2.26274 3
      vertex -12.5 2.77239 0
      vertex -13.2627 2.26274 0
    endloop
  endfacet
  facet normal 0.980786 0.195086 0
    outer loop
      vertex -7.3 0 3
      vertex -7.54358 1.22459 0.75
      vertex -7.54358 1.22459 3
    endloop
  endfacet
  facet normal 0.980786 0.195086 0
    outer loop
      vertex -7.54358 1.22459 0.75
      vertex -7.3 0 3
      vertex -7.3 0 0.75
    endloop
  endfacet
  facet normal -0.195098 0.980784 0
    outer loop
      vertex -11 3.2 0.75
      vertex -11.5 3.10054 3
      vertex -11 3.2 3
    endloop
  endfacet
  facet normal -0.195098 0.980784 0
    outer loop
      vertex -11.5 3.10054 3
      vertex -11 3.2 0.75
      vertex -11.5 3.10054 0.75
    endloop
  endfacet
  facet normal -0.980783 0.195101 0
    outer loop
      vertex -14.2 0 0
      vertex -13.9564 1.22459 3
      vertex -13.9564 1.22459 0
    endloop
  endfacet
  facet normal -0.980783 0.195101 0
    outer loop
      vertex -13.9564 1.22459 3
      vertex -14.2 0 0
      vertex -14.2 0 3
    endloop
  endfacet
  facet normal -0.980783 -0.195101 0
    outer loop
      vertex -13.9564 -1.22459 0
      vertex -14.2 0 3
      vertex -14.2 0 0
    endloop
  endfacet
  facet normal -0.980783 -0.195101 0
    outer loop
      vertex -14.2 0 3
      vertex -13.9564 -1.22459 0
      vertex -13.9564 -1.22459 3
    endloop
  endfacet
  facet normal -0.195098 -0.980784 0
    outer loop
      vertex -11.5 -3.10054 0.75
      vertex -11 -3.2 3
      vertex -11.5 -3.10054 3
    endloop
  endfacet
  facet normal -0.195098 -0.980784 -0
    outer loop
      vertex -11 -3.2 3
      vertex -11.5 -3.10054 0.75
      vertex -11 -3.2 0.75
    endloop
  endfacet
  facet normal 0.980786 -0.195086 0
    outer loop
      vertex -7.54358 -1.22459 3
      vertex -7.3 0 0.75
      vertex -7.3 0 3
    endloop
  endfacet
  facet normal 0.980786 -0.195086 0
    outer loop
      vertex -7.3 0 0.75
      vertex -7.54358 -1.22459 3
      vertex -7.54358 -1.22459 0.75
    endloop
  endfacet
  facet normal 1 0 0
    outer loop
      vertex 9.2 0.538477 3
      vertex 9.2 -0.538477 3
      vertex 9.2 0.538477 2.5
    endloop
  endfacet
  facet normal 1 -0 0
    outer loop
      vertex 9.2 0.538477 2.5
      vertex 9.2 1.3 1.5
      vertex 9.2 1.3 2.5
    endloop
  endfacet
  facet normal 1 0 0
    outer loop
      vertex 9.2 -0.538477 2.5
      vertex 9.2 0.538477 2.5
      vertex 9.2 -0.538477 3
    endloop
  endfacet
  facet normal 1 0 0
    outer loop
      vertex 9.2 0.538477 2.5
      vertex 9.2 -0.538477 2.5
      vertex 9.2 1.3 1.5
    endloop
  endfacet
  facet normal 1 0 0
    outer loop
      vertex 9.2 -1.3 1.5
      vertex 9.2 -0.538477 2.5
      vertex 9.2 -1.3 2.5
    endloop
  endfacet
  facet normal 1 0 0
    outer loop
      vertex 9.2 -0.538477 2.5
      vertex 9.2 -1.3 1.5
      vertex 9.2 1.3 1.5
    endloop
  endfacet
  facet normal 0 -1 0
    outer loop
      vertex 8.53764 1.3 1
      vertex 9.2 1.3 1.5
      vertex 8.53764 1.3 1.5
    endloop
  endfacet
  facet normal 0 -1 -0
    outer loop
      vertex 9.2 1.3 1.5
      vertex 8.53764 1.3 1
      vertex 11.8 1.3 1.5
    endloop
  endfacet
  facet normal 0 -1 0
    outer loop
      vertex 12.4624 1.3 1
      vertex 11.8 1.3 1.5
      vertex 8.53764 1.3 1
    endloop
  endfacet
  facet normal 0 -1 0
    outer loop
      vertex 11.8 1.3 1.5
      vertex 12.4624 1.3 1
      vertex 12.4624 1.3 1.5
    endloop
  endfacet
  facet normal 0 -1 0
    outer loop
      vertex 9.2 1.3 1.5
      vertex 9.96152 1.3 2.5
      vertex 9.2 1.3 2.5
    endloop
  endfacet
  facet normal 0 -1 -0
    outer loop
      vertex 9.96152 1.3 2.5
      vertex 9.2 1.3 1.5
      vertex 11.0385 1.3 2.5
    endloop
  endfacet
  facet normal 0 -1 0
    outer loop
      vertex 11.8 1.3 1.5
      vertex 11.0385 1.3 2.5
      vertex 9.2 1.3 1.5
    endloop
  endfacet
  facet normal 0 -1 0
    outer loop
      vertex 11.0385 1.3 2.5
      vertex 11.8 1.3 1.5
      vertex 11.8 1.3 2.5
    endloop
  endfacet
  facet normal 0 -1 0
    outer loop
      vertex 9.96152 1.3 2.5
      vertex 11.0385 1.3 3
      vertex 9.96152 1.3 3
    endloop
  endfacet
  facet normal 0 -1 -0
    outer loop
      vertex 11.0385 1.3 3
      vertex 9.96152 1.3 2.5
      vertex 11.0385 1.3 2.5
    endloop
  endfacet
  facet normal -1 0 0
    outer loop
      vertex 11.8 1.3 1.5
      vertex 11.8 0.538477 2.5
      vertex 11.8 1.3 2.5
    endloop
  endfacet
  facet normal -1 0 0
    outer loop
      vertex 11.8 0.538477 2.5
      vertex 11.8 -0.538477 2.5
      vertex 11.8 0.538477 3
    endloop
  endfacet
  facet normal -1 0 0
    outer loop
      vertex 11.8 1.3 1.5
      vertex 11.8 -0.538477 2.5
      vertex 11.8 0.538477 2.5
    endloop
  endfacet
  facet normal -1 0 0
    outer loop
      vertex 11.8 -1.3 1.5
      vertex 11.8 -0.538477 2.5
      vertex 11.8 1.3 1.5
    endloop
  endfacet
  facet normal -1 -0 0
    outer loop
      vertex 11.8 -0.538477 2.5
      vertex 11.8 -1.3 1.5
      vertex 11.8 -1.3 2.5
    endloop
  endfacet
  facet normal -1 -0 0
    outer loop
      vertex 11.8 0.538477 3
      vertex 11.8 -0.538477 2.5
      vertex 11.8 -0.538477 3
    endloop
  endfacet
  facet normal -0 -0 -1
    outer loop
      vertex 11.8 1.3 2.5
      vertex 11.8 0.538477 2.5
      vertex 11.0385 1.3 2.5
    endloop
  endfacet
  facet normal 0 0 -1
    outer loop
      vertex 9.2 -0.538477 2.5
      vertex 9.96152 -1.3 2.5
      vertex 9.2 -1.3 2.5
    endloop
  endfacet
  facet normal 0 0 -1
    outer loop
      vertex 9.2 1.3 2.5
      vertex 9.96152 1.3 2.5
      vertex 9.2 0.538477 2.5
    endloop
  endfacet
  facet normal 0 -0 -1
    outer loop
      vertex 11.8 -0.538477 2.5
      vertex 11.8 -1.3 2.5
      vertex 11.0385 -1.3 2.5
    endloop
  endfacet
  facet normal 0 1 -0
    outer loop
      vertex 12.4624 -1.3 1
      vertex 11.8 -1.3 1.5
      vertex 12.4624 -1.3 1.5
    endloop
  endfacet
  facet normal 0 1 0
    outer loop
      vertex 11.8 -1.3 1.5
      vertex 12.4624 -1.3 1
      vertex 9.2 -1.3 1.5
    endloop
  endfacet
  facet normal 0 1 0
    outer loop
      vertex 8.53764 -1.3 1
      vertex 9.2 -1.3 1.5
      vertex 12.4624 -1.3 1
    endloop
  endfacet
  facet normal 0 1 0
    outer loop
      vertex 9.2 -1.3 1.5
      vertex 8.53764 -1.3 1
      vertex 8.53764 -1.3 1.5
    endloop
  endfacet
  facet normal 0 1 -0
    outer loop
      vertex 11.8 -1.3 1.5
      vertex 11.0385 -1.3 2.5
      vertex 11.8 -1.3 2.5
    endloop
  endfacet
  facet normal 0 1 0
    outer loop
      vertex 11.0385 -1.3 2.5
      vertex 11.8 -1.3 1.5
      vertex 9.96152 -1.3 2.5
    endloop
  endfacet
  facet normal 0 1 0
    outer loop
      vertex 9.2 -1.3 1.5
      vertex 9.96152 -1.3 2.5
      vertex 11.8 -1.3 1.5
    endloop
  endfacet
  facet normal 0 1 0
    outer loop
      vertex 9.96152 -1.3 2.5
      vertex 9.2 -1.3 1.5
      vertex 9.2 -1.3 2.5
    endloop
  endfacet
  facet normal 0 1 -0
    outer loop
      vertex 11.0385 -1.3 2.5
      vertex 9.96152 -1.3 3
      vertex 11.0385 -1.3 3
    endloop
  endfacet
  facet normal 0 1 0
    outer loop
      vertex 9.96152 -1.3 3
      vertex 11.0385 -1.3 2.5
      vertex 9.96152 -1.3 2.5
    endloop
  endfacet
  facet normal 0.707108 0.707105 0
    outer loop
      vertex 9.96152 -1.3 3
      vertex 9.2 -0.538477 2.5
      vertex 9.2 -0.538477 3
    endloop
  endfacet
  facet normal 0.707108 0.707105 0
    outer loop
      vertex 9.2 -0.538477 2.5
      vertex 9.96152 -1.3 3
      vertex 9.96152 -1.3 2.5
    endloop
  endfacet
  facet normal -0.707117 -0.707096 0
    outer loop
      vertex 11.8 0.538477 2.5
      vertex 11.0385 1.3 3
      vertex 11.0385 1.3 2.5
    endloop
  endfacet
  facet normal -0.707117 -0.707096 0
    outer loop
      vertex 11.0385 1.3 3
      vertex 11.8 0.538477 2.5
      vertex 11.8 0.538477 3
    endloop
  endfacet
  facet normal 0.707108 -0.707105 0
    outer loop
      vertex 9.2 0.538477 3
      vertex 9.96152 1.3 2.5
      vertex 9.96152 1.3 3
    endloop
  endfacet
  facet normal 0.707108 -0.707105 0
    outer loop
      vertex 9.96152 1.3 2.5
      vertex 9.2 0.538477 3
      vertex 9.2 0.538477 2.5
    endloop
  endfacet
  facet normal -0.707117 0.707096 0
    outer loop
      vertex 11.0385 -1.3 2.5
      vertex 11.8 -0.538477 3
      vertex 11.8 -0.538477 2.5
    endloop
  endfacet
  facet normal -0.707117 0.707096 0
    outer loop
      vertex 11.8 -0.538477 3
      vertex 11.0385 -1.3 2.5
      vertex 11.0385 -1.3 3
    endloop
  endfacet
  facet normal 0 0 -1
    outer loop
      vertex 8.28269 -0.91844 1.5
      vertex 9.2 -1.3 1.5
      vertex 8.53764 -1.3 1.5
    endloop
  endfacet
  facet normal 0 0 -1
    outer loop
      vertex 8.1 0 1.5
      vertex 9.2 -1.3 1.5
      vertex 8.28269 -0.91844 1.5
    endloop
  endfacet
  facet normal 0 0 -1
    outer loop
      vertex 9.2 -1.3 1.5
      vertex 8.1 0 1.5
      vertex 9.2 1.3 1.5
    endloop
  endfacet
  facet normal 0 -0 -1
    outer loop
      vertex 8.28269 0.91844 1.5
      vertex 9.2 1.3 1.5
      vertex 8.1 0 1.5
    endloop
  endfacet
  facet normal -0 0 -1
    outer loop
      vertex 9.2 1.3 1.5
      vertex 8.28269 0.91844 1.5
      vertex 8.53764 1.3 1.5
    endloop
  endfacet
  facet normal 0 0 -1
    outer loop
      vertex 11.8 -1.3 1.5
      vertex 12.9 0 1.5
      vertex 12.7173 -0.91844 1.5
    endloop
  endfacet
  facet normal 0 0 -1
    outer loop
      vertex 11.8 -1.3 1.5
      vertex 12.7173 -0.91844 1.5
      vertex 12.4624 -1.3 1.5
    endloop
  endfacet
  facet normal 0 0 -1
    outer loop
      vertex 11.8 1.3 1.5
      vertex 12.9 0 1.5
      vertex 11.8 -1.3 1.5
    endloop
  endfacet
  facet normal 0 0 -1
    outer loop
      vertex 12.9 0 1.5
      vertex 11.8 1.3 1.5
      vertex 12.7173 0.91844 1.5
    endloop
  endfacet
  facet normal 0 0 -1
    outer loop
      vertex 12.7173 0.91844 1.5
      vertex 11.8 1.3 1.5
      vertex 12.4624 1.3 1.5
    endloop
  endfacet
  facet normal 0 0 -1
    outer loop
      vertex 12.4624 1.3 1
      vertex 11.4184 2.21731 1
      vertex 12.1971 1.69706 1
    endloop
  endfacet
  facet normal 0 0 -1
    outer loop
      vertex 12.4624 1.3 1
      vertex 10.5 2.4 1
      vertex 11.4184 2.21731 1
    endloop
  endfacet
  facet normal 0 0 -1
    outer loop
      vertex 8.53764 1.3 1
      vertex 10.5 2.4 1
      vertex 12.4624 1.3 1
    endloop
  endfacet
  facet normal 0 0 -1
    outer loop
      vertex 10.5 2.4 1
      vertex 8.53764 1.3 1
      vertex 9.58156 2.21731 1
    endloop
  endfacet
  facet normal 0 0 -1
    outer loop
      vertex 9.58156 2.21731 1
      vertex 8.53764 1.3 1
      vertex 8.80294 1.69706 1
    endloop
  endfacet
  facet normal 0 0 -1
    outer loop
      vertex 11.4184 -2.21731 1
      vertex 12.4624 -1.3 1
      vertex 12.1971 -1.69706 1
    endloop
  endfacet
  facet normal 0 0 -1
    outer loop
      vertex 10.5 -2.4 1
      vertex 12.4624 -1.3 1
      vertex 11.4184 -2.21731 1
    endloop
  endfacet
  facet normal 0 0 -1
    outer loop
      vertex 8.53764 -1.3 1
      vertex 10.5 -2.4 1
      vertex 9.58156 -2.21731 1
    endloop
  endfacet
  facet normal 0 0 -1
    outer loop
      vertex 8.53764 -1.3 1
      vertex 9.58156 -2.21731 1
      vertex 8.80294 -1.69706 1
    endloop
  endfacet
  facet normal 0 0 -1
    outer loop
      vertex 10.5 -2.4 1
      vertex 8.53764 -1.3 1
      vertex 12.4624 -1.3 1
    endloop
  endfacet
  facet normal 0.555565 -0.831473 0
    outer loop
      vertex 8.80294 1.69706 0
      vertex 9.58156 2.21731 1
      vertex 8.80294 1.69706 1
    endloop
  endfacet
  facet normal 0.555565 -0.831473 0
    outer loop
      vertex 9.58156 2.21731 1
      vertex 8.80294 1.69706 0
      vertex 9.58156 2.21731 0
    endloop
  endfacet
  facet normal -0.831476 -0.55556 0
    outer loop
      vertex 12.1971 1.69706 0
      vertex 12.4624 1.3 1
      vertex 12.1971 1.69706 1
    endloop
  endfacet
  facet normal -0.831498 -0.555528 1.84471e-05
    outer loop
      vertex 12.7173 0.91844 0
      vertex 12.4624 1.3 1
      vertex 12.1971 1.69706 0
    endloop
  endfacet
  facet normal -0.83152 -0.555495 -0
    outer loop
      vertex 12.7173 0.91844 1.5
      vertex 12.4624 1.3 1
      vertex 12.7173 0.91844 0
    endloop
  endfacet
  facet normal -0.83152 -0.555495 0
    outer loop
      vertex 12.4624 1.3 1
      vertex 12.7173 0.91844 1.5
      vertex 12.4624 1.3 1.5
    endloop
  endfacet
  facet normal -0.980783 -0.195102 0
    outer loop
      vertex 12.9 0 0
      vertex 12.7173 0.91844 1.5
      vertex 12.7173 0.91844 0
    endloop
  endfacet
  facet normal -0.980783 -0.195102 0
    outer loop
      vertex 12.7173 0.91844 1.5
      vertex 12.9 0 0
      vertex 12.9 0 1.5
    endloop
  endfacet
  facet normal 0.83147 -0.55557 0
    outer loop
      vertex 8.53764 1.3 1.5
      vertex 8.28269 0.91844 1.5
      vertex 8.53764 1.3 1
    endloop
  endfacet
  facet normal 0.831476 -0.55556 0
    outer loop
      vertex 8.53764 1.3 1
      vertex 8.80294 1.69706 0
      vertex 8.80294 1.69706 1
    endloop
  endfacet
  facet normal 0.83147 -0.55557 0
    outer loop
      vertex 8.28269 0.91844 0
      vertex 8.53764 1.3 1
      vertex 8.28269 0.91844 1.5
    endloop
  endfacet
  facet normal 0.831473 -0.555565 -2.75406e-06
    outer loop
      vertex 8.53764 1.3 1
      vertex 8.28269 0.91844 0
      vertex 8.80294 1.69706 0
    endloop
  endfacet
  facet normal 0.195091 0.980785 -0
    outer loop
      vertex 10.5 -2.4 0
      vertex 9.58156 -2.21731 1
      vertex 10.5 -2.4 1
    endloop
  endfacet
  facet normal 0.195091 0.980785 0
    outer loop
      vertex 9.58156 -2.21731 1
      vertex 10.5 -2.4 0
      vertex 9.58156 -2.21731 0
    endloop
  endfacet
  facet normal -0.195099 0.980783 0
    outer loop
      vertex 11.4184 -2.21731 0
      vertex 10.5 -2.4 1
      vertex 11.4184 -2.21731 1
    endloop
  endfacet
  facet normal -0.195099 0.980783 0
    outer loop
      vertex 10.5 -2.4 1
      vertex 11.4184 -2.21731 0
      vertex 10.5 -2.4 0
    endloop
  endfacet
  facet normal -0.555525 0.8315 0
    outer loop
      vertex 12.1971 -1.69706 0
      vertex 11.4184 -2.21731 1
      vertex 12.1971 -1.69706 1
    endloop
  endfacet
  facet normal -0.555525 0.8315 0
    outer loop
      vertex 11.4184 -2.21731 1
      vertex 12.1971 -1.69706 0
      vertex 11.4184 -2.21731 0
    endloop
  endfacet
  facet normal -0.83152 0.555495 0
    outer loop
      vertex 12.7173 -0.91844 0
      vertex 12.4624 -1.3 1
      vertex 12.7173 -0.91844 1.5
    endloop
  endfacet
  facet normal -0.831498 0.555528 1.84471e-05
    outer loop
      vertex 12.1971 -1.69706 0
      vertex 12.4624 -1.3 1
      vertex 12.7173 -0.91844 0
    endloop
  endfacet
  facet normal -0.831476 0.55556 0
    outer loop
      vertex 12.4624 -1.3 1
      vertex 12.1971 -1.69706 0
      vertex 12.1971 -1.69706 1
    endloop
  endfacet
  facet normal -0.83152 0.555495 0
    outer loop
      vertex 12.7173 -0.91844 1.5
      vertex 12.4624 -1.3 1
      vertex 12.4624 -1.3 1.5
    endloop
  endfacet
  facet normal 0.980785 -0.195091 0
    outer loop
      vertex 8.1 0 1.5
      vertex 8.28269 0.91844 0
      vertex 8.28269 0.91844 1.5
    endloop
  endfacet
  facet normal 0.980785 -0.195091 0
    outer loop
      vertex 8.28269 0.91844 0
      vertex 8.1 0 1.5
      vertex 8.1 0 0
    endloop
  endfacet
  facet normal -0.980783 0.195102 0
    outer loop
      vertex 12.7173 -0.91844 0
      vertex 12.9 0 1.5
      vertex 12.9 0 0
    endloop
  endfacet
  facet normal -0.980783 0.195102 0
    outer loop
      vertex 12.9 0 1.5
      vertex 12.7173 -0.91844 0
      vertex 12.7173 -0.91844 1.5
    endloop
  endfacet
  facet normal 0.195091 -0.980785 0
    outer loop
      vertex 9.58156 2.21731 0
      vertex 10.5 2.4 1
      vertex 9.58156 2.21731 1
    endloop
  endfacet
  facet normal 0.195091 -0.980785 0
    outer loop
      vertex 10.5 2.4 1
      vertex 9.58156 2.21731 0
      vertex 10.5 2.4 0
    endloop
  endfacet
  facet normal -0.195099 -0.980783 0
    outer loop
      vertex 10.5 2.4 0
      vertex 11.4184 2.21731 1
      vertex 10.5 2.4 1
    endloop
  endfacet
  facet normal -0.195099 -0.980783 -0
    outer loop
      vertex 11.4184 2.21731 1
      vertex 10.5 2.4 0
      vertex 11.4184 2.21731 0
    endloop
  endfacet
  facet normal 0.83147 0.55557 -0
    outer loop
      vertex 8.53764 -1.3 1
      vertex 8.28269 -0.91844 1.5
      vertex 8.53764 -1.3 1.5
    endloop
  endfacet
  facet normal 0.83147 0.55557 0
    outer loop
      vertex 8.28269 -0.91844 1.5
      vertex 8.53764 -1.3 1
      vertex 8.28269 -0.91844 0
    endloop
  endfacet
  facet normal 0.831476 0.55556 -0
    outer loop
      vertex 8.80294 -1.69706 0
      vertex 8.53764 -1.3 1
      vertex 8.80294 -1.69706 1
    endloop
  endfacet
  facet normal 0.831473 0.555565 -2.75406e-06
    outer loop
      vertex 8.53764 -1.3 1
      vertex 8.80294 -1.69706 0
      vertex 8.28269 -0.91844 0
    endloop
  endfacet
  facet normal -0.555525 -0.8315 0
    outer loop
      vertex 11.4184 2.21731 0
      vertex 12.1971 1.69706 1
      vertex 11.4184 2.21731 1
    endloop
  endfacet
  facet normal -0.555525 -0.8315 -0
    outer loop
      vertex 12.1971 1.69706 1
      vertex 11.4184 2.21731 0
      vertex 12.1971 1.69706 0
    endloop
  endfacet
  facet normal 0.980785 0.195091 0
    outer loop
      vertex 8.28269 -0.91844 1.5
      vertex 8.1 0 0
      vertex 8.1 0 1.5
    endloop
  endfacet
  facet normal 0.980785 0.195091 0
    outer loop
      vertex 8.1 0 0
      vertex 8.28269 -0.91844 1.5
      vertex 8.28269 -0.91844 0
    endloop
  endfacet
  facet normal 0.555565 0.831473 -0
    outer loop
      vertex 9.58156 -2.21731 0
      vertex 8.80294 -1.69706 1
      vertex 9.58156 -2.21731 1
    endloop
  endfacet
  facet normal 0.555565 0.831473 0
    outer loop
      vertex 8.80294 -1.69706 1
      vertex 9.58156 -2.21731 0
      vertex 8.80294 -1.69706 0
    endloop
  endfacet
  facet normal -1 0 0
    outer loop
      vertex -9.2 1.3 1.5
      vertex -9.2 0.538477 2.5
      vertex -9.2 1.3 2.5
    endloop
  endfacet
  facet normal -1 0 0
    outer loop
      vertex -9.2 0.538477 2.5
      vertex -9.2 -0.538477 2.5
      vertex -9.2 0.538477 3
    endloop
  endfacet
  facet normal -1 0 0
    outer loop
      vertex -9.2 1.3 1.5
      vertex -9.2 -0.538477 2.5
      vertex -9.2 0.538477 2.5
    endloop
  endfacet
  facet normal -1 0 0
    outer loop
      vertex -9.2 -1.3 1.5
      vertex -9.2 -0.538477 2.5
      vertex -9.2 1.3 1.5
    endloop
  endfacet
  facet normal -1 -0 0
    outer loop
      vertex -9.2 -0.538477 2.5
      vertex -9.2 -1.3 1.5
      vertex -9.2 -1.3 2.5
    endloop
  endfacet
  facet normal -1 -0 0
    outer loop
      vertex -9.2 0.538477 3
      vertex -9.2 -0.538477 2.5
      vertex -9.2 -0.538477 3
    endloop
  endfacet
  facet normal 0 -1 0
    outer loop
      vertex -12.4624 1.3 1
      vertex -11.8 1.3 1.5
      vertex -12.4624 1.3 1.5
    endloop
  endfacet
  facet normal 0 -1 -0
    outer loop
      vertex -11.8 1.3 1.5
      vertex -12.4624 1.3 1
      vertex -9.2 1.3 1.5
    endloop
  endfacet
  facet normal 0 -1 0
    outer loop
      vertex -8.53764 1.3 1
      vertex -9.2 1.3 1.5
      vertex -12.4624 1.3 1
    endloop
  endfacet
  facet normal 0 -1 0
    outer loop
      vertex -9.2 1.3 1.5
      vertex -8.53764 1.3 1
      vertex -8.53764 1.3 1.5
    endloop
  endfacet
  facet normal 0 -1 0
    outer loop
      vertex -11.8 1.3 1.5
      vertex -11.0385 1.3 2.5
      vertex -11.8 1.3 2.5
    endloop
  endfacet
  facet normal 0 -1 -0
    outer loop
      vertex -11.0385 1.3 2.5
      vertex -11.8 1.3 1.5
      vertex -9.96152 1.3 2.5
    endloop
  endfacet
  facet normal 0 -1 0
    outer loop
      vertex -9.2 1.3 1.5
      vertex -9.96152 1.3 2.5
      vertex -11.8 1.3 1.5
    endloop
  endfacet
  facet normal 0 -1 0
    outer loop
      vertex -9.96152 1.3 2.5
      vertex -9.2 1.3 1.5
      vertex -9.2 1.3 2.5
    endloop
  endfacet
  facet normal 0 -1 0
    outer loop
      vertex -11.0385 1.3 2.5
      vertex -9.96152 1.3 3
      vertex -11.0385 1.3 3
    endloop
  endfacet
  facet normal 0 -1 -0
    outer loop
      vertex -9.96152 1.3 3
      vertex -11.0385 1.3 2.5
      vertex -9.96152 1.3 2.5
    endloop
  endfacet
  facet normal 1 0 0
    outer loop
      vertex -11.8 0.538477 3
      vertex -11.8 -0.538477 3
      vertex -11.8 0.538477 2.5
    endloop
  endfacet
  facet normal 1 -0 0
    outer loop
      vertex -11.8 0.538477 2.5
      vertex -11.8 1.3 1.5
      vertex -11.8 1.3 2.5
    endloop
  endfacet
  facet normal 1 0 0
    outer loop
      vertex -11.8 -0.538477 2.5
      vertex -11.8 0.538477 2.5
      vertex -11.8 -0.538477 3
    endloop
  endfacet
  facet normal 1 0 0
    outer loop
      vertex -11.8 0.538477 2.5
      vertex -11.8 -0.538477 2.5
      vertex -11.8 1.3 1.5
    endloop
  endfacet
  facet normal 1 0 0
    outer loop
      vertex -11.8 -1.3 1.5
      vertex -11.8 -0.538477 2.5
      vertex -11.8 -1.3 2.5
    endloop
  endfacet
  facet normal 1 0 0
    outer loop
      vertex -11.8 -0.538477 2.5
      vertex -11.8 -1.3 1.5
      vertex -11.8 1.3 1.5
    endloop
  endfacet
  facet normal -0 0 -1
    outer loop
      vertex -11.0385 1.3 2.5
      vertex -11.8 0.538477 2.5
      vertex -11.8 1.3 2.5
    endloop
  endfacet
  facet normal 0 0 -1
    outer loop
      vertex -9.2 -1.3 2.5
      vertex -9.96152 -1.3 2.5
      vertex -9.2 -0.538477 2.5
    endloop
  endfacet
  facet normal 0 0 -1
    outer loop
      vertex -9.2 0.538477 2.5
      vertex -9.96152 1.3 2.5
      vertex -9.2 1.3 2.5
    endloop
  endfacet
  facet normal 0 0 -1
    outer loop
      vertex -11.0385 -1.3 2.5
      vertex -11.8 -1.3 2.5
      vertex -11.8 -0.538477 2.5
    endloop
  endfacet
  facet normal 0 1 -0
    outer loop
      vertex -8.53764 -1.3 1
      vertex -9.2 -1.3 1.5
      vertex -8.53764 -1.3 1.5
    endloop
  endfacet
  facet normal 0 1 0
    outer loop
      vertex -9.2 -1.3 1.5
      vertex -8.53764 -1.3 1
      vertex -11.8 -1.3 1.5
    endloop
  endfacet
  facet normal 0 1 0
    outer loop
      vertex -12.4624 -1.3 1
      vertex -11.8 -1.3 1.5
      vertex -8.53764 -1.3 1
    endloop
  endfacet
  facet normal 0 1 0
    outer loop
      vertex -11.8 -1.3 1.5
      vertex -12.4624 -1.3 1
      vertex -12.4624 -1.3 1.5
    endloop
  endfacet
  facet normal 0 1 -0
    outer loop
      vertex -9.2 -1.3 1.5
      vertex -9.96152 -1.3 2.5
      vertex -9.2 -1.3 2.5
    endloop
  endfacet
  facet normal 0 1 0
    outer loop
      vertex -9.96152 -1.3 2.5
      vertex -9.2 -1.3 1.5
      vertex -11.0385 -1.3 2.5
    endloop
  endfacet
  facet normal 0 1 0
    outer loop
      vertex -11.8 -1.3 1.5
      vertex -11.0385 -1.3 2.5
      vertex -9.2 -1.3 1.5
    endloop
  endfacet
  facet normal 0 1 0
    outer loop
      vertex -11.0385 -1.3 2.5
      vertex -11.8 -1.3 1.5
      vertex -11.8 -1.3 2.5
    endloop
  endfacet
  facet normal 0 1 -0
    outer loop
      vertex -9.96152 -1.3 2.5
      vertex -11.0385 -1.3 3
      vertex -9.96152 -1.3 3
    endloop
  endfacet
  facet normal 0 1 0
    outer loop
      vertex -11.0385 -1.3 3
      vertex -9.96152 -1.3 2.5
      vertex -11.0385 -1.3 2.5
    endloop
  endfacet
  facet normal -0.707108 0.707105 0
    outer loop
      vertex -9.96152 -1.3 2.5
      vertex -9.2 -0.538477 3
      vertex -9.2 -0.538477 2.5
    endloop
  endfacet
  facet normal -0.707108 0.707105 0
    outer loop
      vertex -9.2 -0.538477 3
      vertex -9.96152 -1.3 2.5
      vertex -9.96152 -1.3 3
    endloop
  endfacet
  facet normal 0.707117 -0.707096 0
    outer loop
      vertex -11.8 0.538477 3
      vertex -11.0385 1.3 2.5
      vertex -11.0385 1.3 3
    endloop
  endfacet
  facet normal 0.707117 -0.707096 0
    outer loop
      vertex -11.0385 1.3 2.5
      vertex -11.8 0.538477 3
      vertex -11.8 0.538477 2.5
    endloop
  endfacet
  facet normal -0.707108 -0.707105 0
    outer loop
      vertex -9.2 0.538477 2.5
      vertex -9.96152 1.3 3
      vertex -9.96152 1.3 2.5
    endloop
  endfacet
  facet normal -0.707108 -0.707105 0
    outer loop
      vertex -9.96152 1.3 3
      vertex -9.2 0.538477 2.5
      vertex -9.2 0.538477 3
    endloop
  endfacet
  facet normal 0.707117 0.707096 0
    outer loop
      vertex -11.0385 -1.3 3
      vertex -11.8 -0.538477 2.5
      vertex -11.8 -0.538477 3
    endloop
  endfacet
  facet normal 0.707117 0.707096 0
    outer loop
      vertex -11.8 -0.538477 2.5
      vertex -11.0385 -1.3 3
      vertex -11.0385 -1.3 2.5
    endloop
  endfacet
  facet normal 0 0 -1
    outer loop
      vertex -9.2 -1.3 1.5
      vertex -8.1 0 1.5
      vertex -8.28269 -0.91844 1.5
    endloop
  endfacet
  facet normal 0 0 -1
    outer loop
      vertex -9.2 -1.3 1.5
      vertex -8.28269 -0.91844 1.5
      vertex -8.53764 -1.3 1.5
    endloop
  endfacet
  facet normal 0 0 -1
    outer loop
      vertex -9.2 1.3 1.5
      vertex -8.1 0 1.5
      vertex -9.2 -1.3 1.5
    endloop
  endfacet
  facet normal 0 0 -1
    outer loop
      vertex -8.1 0 1.5
      vertex -9.2 1.3 1.5
      vertex -8.28269 0.91844 1.5
    endloop
  endfacet
  facet normal 0 0 -1
    outer loop
      vertex -8.28269 0.91844 1.5
      vertex -9.2 1.3 1.5
      vertex -8.53764 1.3 1.5
    endloop
  endfacet
  facet normal 0 0 -1
    outer loop
      vertex -12.7173 -0.91844 1.5
      vertex -11.8 -1.3 1.5
      vertex -12.4624 -1.3 1.5
    endloop
  endfacet
  facet normal 0 0 -1
    outer loop
      vertex -12.9 0 1.5
      vertex -11.8 -1.3 1.5
      vertex -12.7173 -0.91844 1.5
    endloop
  endfacet
  facet normal 0 0 -1
    outer loop
      vertex -11.8 -1.3 1.5
      vertex -12.9 0 1.5
      vertex -11.8 1.3 1.5
    endloop
  endfacet
  facet normal 0 -0 -1
    outer loop
      vertex -12.7173 0.91844 1.5
      vertex -11.8 1.3 1.5
      vertex -12.9 0 1.5
    endloop
  endfacet
  facet normal -0 0 -1
    outer loop
      vertex -11.8 1.3 1.5
      vertex -12.7173 0.91844 1.5
      vertex -12.4624 1.3 1.5
    endloop
  endfacet
  facet normal 0 0 -1
    outer loop
      vertex -8.53764 1.3 1
      vertex -9.58156 2.21731 1
      vertex -8.80294 1.69706 1
    endloop
  endfacet
  facet normal 0 0 -1
    outer loop
      vertex -8.53764 1.3 1
      vertex -10.5 2.4 1
      vertex -9.58156 2.21731 1
    endloop
  endfacet
  facet normal 0 0 -1
    outer loop
      vertex -12.4624 1.3 1
      vertex -10.5 2.4 1
      vertex -8.53764 1.3 1
    endloop
  endfacet
  facet normal 0 0 -1
    outer loop
      vertex -10.5 2.4 1
      vertex -12.4624 1.3 1
      vertex -11.4184 2.21731 1
    endloop
  endfacet
  facet normal 0 0 -1
    outer loop
      vertex -11.4184 2.21731 1
      vertex -12.4624 1.3 1
      vertex -12.1971 1.69706 1
    endloop
  endfacet
  facet normal 0 0 -1
    outer loop
      vertex -9.58156 -2.21731 1
      vertex -8.53764 -1.3 1
      vertex -8.80294 -1.69706 1
    endloop
  endfacet
  facet normal 0 0 -1
    outer loop
      vertex -10.5 -2.4 1
      vertex -8.53764 -1.3 1
      vertex -9.58156 -2.21731 1
    endloop
  endfacet
  facet normal 0 0 -1
    outer loop
      vertex -12.4624 -1.3 1
      vertex -10.5 -2.4 1
      vertex -11.4184 -2.21731 1
    endloop
  endfacet
  facet normal 0 0 -1
    outer loop
      vertex -12.4624 -1.3 1
      vertex -11.4184 -2.21731 1
      vertex -12.1971 -1.69706 1
    endloop
  endfacet
  facet normal 0 0 -1
    outer loop
      vertex -10.5 -2.4 1
      vertex -12.4624 -1.3 1
      vertex -8.53764 -1.3 1
    endloop
  endfacet
  facet normal -0.555565 -0.831473 0
    outer loop
      vertex -9.58156 2.21731 0
      vertex -8.80294 1.69706 1
      vertex -9.58156 2.21731 1
    endloop
  endfacet
  facet normal -0.555565 -0.831473 -0
    outer loop
      vertex -8.80294 1.69706 1
      vertex -9.58156 2.21731 0
      vertex -8.80294 1.69706 0
    endloop
  endfacet
  facet normal 0.83152 -0.555495 0
    outer loop
      vertex -12.4624 1.3 1.5
      vertex -12.7173 0.91844 1.5
      vertex -12.4624 1.3 1
    endloop
  endfacet
  facet normal 0.831476 -0.55556 0
    outer loop
      vertex -12.4624 1.3 1
      vertex -12.1971 1.69706 0
      vertex -12.1971 1.69706 1
    endloop
  endfacet
  facet normal 0.83152 -0.555495 0
    outer loop
      vertex -12.7173 0.91844 0
      vertex -12.4624 1.3 1
      vertex -12.7173 0.91844 1.5
    endloop
  endfacet
  facet normal 0.831498 -0.555528 1.84471e-05
    outer loop
      vertex -12.4624 1.3 1
      vertex -12.7173 0.91844 0
      vertex -12.1971 1.69706 0
    endloop
  endfacet
  facet normal 0.980783 -0.195102 0
    outer loop
      vertex -12.9 0 1.5
      vertex -12.7173 0.91844 0
      vertex -12.7173 0.91844 1.5
    endloop
  endfacet
  facet normal 0.980783 -0.195102 0
    outer loop
      vertex -12.7173 0.91844 0
      vertex -12.9 0 1.5
      vertex -12.9 0 0
    endloop
  endfacet
  facet normal -0.831476 -0.55556 0
    outer loop
      vertex -8.80294 1.69706 0
      vertex -8.53764 1.3 1
      vertex -8.80294 1.69706 1
    endloop
  endfacet
  facet normal -0.831473 -0.555565 -2.75406e-06
    outer loop
      vertex -8.28269 0.91844 0
      vertex -8.53764 1.3 1
      vertex -8.80294 1.69706 0
    endloop
  endfacet
  facet normal -0.83147 -0.55557 -0
    outer loop
      vertex -8.28269 0.91844 1.5
      vertex -8.53764 1.3 1
      vertex -8.28269 0.91844 0
    endloop
  endfacet
  facet normal -0.83147 -0.55557 0
    outer loop
      vertex -8.53764 1.3 1
      vertex -8.28269 0.91844 1.5
      vertex -8.53764 1.3 1.5
    endloop
  endfacet
  facet normal -0.195091 0.980785 0
    outer loop
      vertex -9.58156 -2.21731 0
      vertex -10.5 -2.4 1
      vertex -9.58156 -2.21731 1
    endloop
  endfacet
  facet normal -0.195091 0.980785 0
    outer loop
      vertex -10.5 -2.4 1
      vertex -9.58156 -2.21731 0
      vertex -10.5 -2.4 0
    endloop
  endfacet
  facet normal 0.195099 0.980783 -0
    outer loop
      vertex -10.5 -2.4 0
      vertex -11.4184 -2.21731 1
      vertex -10.5 -2.4 1
    endloop
  endfacet
  facet normal 0.195099 0.980783 0
    outer loop
      vertex -11.4184 -2.21731 1
      vertex -10.5 -2.4 0
      vertex -11.4184 -2.21731 0
    endloop
  endfacet
  facet normal 0.555525 0.8315 -0
    outer loop
      vertex -11.4184 -2.21731 0
      vertex -12.1971 -1.69706 1
      vertex -11.4184 -2.21731 1
    endloop
  endfacet
  facet normal 0.555525 0.8315 0
    outer loop
      vertex -12.1971 -1.69706 1
      vertex -11.4184 -2.21731 0
      vertex -12.1971 -1.69706 0
    endloop
  endfacet
  facet normal 0.83152 0.555495 -0
    outer loop
      vertex -12.4624 -1.3 1
      vertex -12.7173 -0.91844 1.5
      vertex -12.4624 -1.3 1.5
    endloop
  endfacet
  facet normal 0.83152 0.555495 0
    outer loop
      vertex -12.7173 -0.91844 1.5
      vertex -12.4624 -1.3 1
      vertex -12.7173 -0.91844 0
    endloop
  endfacet
  facet normal 0.831476 0.55556 -0
    outer loop
      vertex -12.1971 -1.69706 0
      vertex -12.4624 -1.3 1
      vertex -12.1971 -1.69706 1
    endloop
  endfacet
  facet normal 0.831498 0.555528 1.84471e-05
    outer loop
      vertex -12.4624 -1.3 1
      vertex -12.1971 -1.69706 0
      vertex -12.7173 -0.91844 0
    endloop
  endfacet
  facet normal -0.980785 -0.195091 0
    outer loop
      vertex -8.1 0 0
      vertex -8.28269 0.91844 1.5
      vertex -8.28269 0.91844 0
    endloop
  endfacet
  facet normal -0.980785 -0.195091 0
    outer loop
      vertex -8.28269 0.91844 1.5
      vertex -8.1 0 0
      vertex -8.1 0 1.5
    endloop
  endfacet
  facet normal 0.980783 0.195102 0
    outer loop
      vertex -12.7173 -0.91844 1.5
      vertex -12.9 0 0
      vertex -12.9 0 1.5
    endloop
  endfacet
  facet normal 0.980783 0.195102 0
    outer loop
      vertex -12.9 0 0
      vertex -12.7173 -0.91844 1.5
      vertex -12.7173 -0.91844 0
    endloop
  endfacet
  facet normal -0.195091 -0.980785 0
    outer loop
      vertex -10.5 2.4 0
      vertex -9.58156 2.21731 1
      vertex -10.5 2.4 1
    endloop
  endfacet
  facet normal -0.195091 -0.980785 -0
    outer loop
      vertex -9.58156 2.21731 1
      vertex -10.5 2.4 0
      vertex -9.58156 2.21731 0
    endloop
  endfacet
  facet normal 0.195099 -0.980783 0
    outer loop
      vertex -11.4184 2.21731 0
      vertex -10.5 2.4 1
      vertex -11.4184 2.21731 1
    endloop
  endfacet
  facet normal 0.195099 -0.980783 0
    outer loop
      vertex -10.5 2.4 1
      vertex -11.4184 2.21731 0
      vertex -10.5 2.4 0
    endloop
  endfacet
  facet normal -0.83147 0.55557 0
    outer loop
      vertex -8.28269 -0.91844 0
      vertex -8.53764 -1.3 1
      vertex -8.28269 -0.91844 1.5
    endloop
  endfacet
  facet normal -0.831473 0.555565 -2.75406e-06
    outer loop
      vertex -8.80294 -1.69706 0
      vertex -8.53764 -1.3 1
      vertex -8.28269 -0.91844 0
    endloop
  endfacet
  facet normal -0.831476 0.55556 0
    outer loop
      vertex -8.53764 -1.3 1
      vertex -8.80294 -1.69706 0
      vertex -8.80294 -1.69706 1
    endloop
  endfacet
  facet normal -0.83147 0.55557 0
    outer loop
      vertex -8.28269 -0.91844 1.5
      vertex -8.53764 -1.3 1
      vertex -8.53764 -1.3 1.5
    endloop
  endfacet
  facet normal 0.555525 -0.8315 0
    outer loop
      vertex -12.1971 1.69706 0
      vertex -11.4184 2.21731 1
      vertex -12.1971 1.69706 1
    endloop
  endfacet
  facet normal 0.555525 -0.8315 0
    outer loop
      vertex -11.4184 2.21731 1
      vertex -12.1971 1.69706 0
      vertex -11.4184 2.21731 0
    endloop
  endfacet
  facet normal -0.980785 0.195091 0
    outer loop
      vertex -8.28269 -0.91844 0
      vertex -8.1 0 1.5
      vertex -8.1 0 0
    endloop
  endfacet
  facet normal -0.980785 0.195091 0
    outer loop
      vertex -8.1 0 1.5
      vertex -8.28269 -0.91844 0
      vertex -8.28269 -0.91844 1.5
    endloop
  endfacet
  facet normal -0.555565 0.831473 0
    outer loop
      vertex -8.80294 -1.69706 0
      vertex -9.58156 -2.21731 1
      vertex -8.80294 -1.69706 1
    endloop
  endfacet
  facet normal -0.555565 0.831473 0
    outer loop
      vertex -9.58156 -2.21731 1
      vertex -8.80294 -1.69706 0
      vertex -9.58156 -2.21731 0
    endloop
  endfacet
endsolid OpenSCAD_Model
