<?xml version="1.0" standalone="no"?>
<!DOCTYPE svg PUBLIC "-//W3C//DTD SVG 1.1//EN" "http://www.w3.org/Graphics/SVG/1.1/DTD/svg11.dtd">
<svg width="220mm" height="250mm" viewBox="-110 -180 220 250" xmlns="http://www.w3.org/2000/svg" version="1.1">
<title>OpenSCAD Model</title>
<path d="
M -110,70 L -35,70 L -35,34.6066 L -44.6066,25 L -45,25 L -45,-55
 L 45,-55 L 45,25 L 44.6066,25 L 35,34.6066 L 35,70 L 110,70
 L 110,-110 L 80,-110 L 80,-180 L -80,-180 L -80,-110 L -110,-110
 z
M -103,60 L -102.853,59.0729 L -102.427,58.2366 L -101.763,57.5729 L -100.927,57.1468 L -100,57
 L -99.0729,57.1468 L -98.2366,57.5729 L -97.5729,58.2366 L -97.1468,59.0729 L -97,60 L -97.1468,60.9271
 L -97.5729,61.7634 L -98.2366,62.4271 L -99.0729,62.8532 L -100,63 L -100.927,62.8532 L -101.763,62.4271
 L -102.427,61.7634 L -102.853,60.9271 z
M -103,-100 L -102.853,-100.927 L -102.427,-101.763 L -101.763,-102.427 L -100.927,-102.853 L -100,-103
 L -99.0729,-102.853 L -98.2366,-102.427 L -97.5729,-101.763 L -97.1468,-100.927 L -97,-100 L -97.1468,-99.0729
 L -97.5729,-98.2366 L -98.2366,-97.5729 L -99.0729,-97.1468 L -100,-97 L -100.927,-97.1468 L -101.763,-97.5729
 L -102.427,-98.2366 L -102.853,-99.0729 z
M -79.9863,-11.3893 L -79.9863,-11.912 L -79.8776,-12.4232 L -79.6651,-12.9006 L -79.3579,-13.3235 L -78.9695,-13.6732
 L -78.5168,-13.9345 L -78.0198,-14.096 L -77.5,-14.1506 L -76.9802,-14.096 L -76.4832,-13.9345 L -76.0305,-13.6732
 L -75.6421,-13.3235 L -75.3349,-12.9006 L -75.1224,-12.4232 L -75.0137,-11.912 L -75.0137,-11.3893 L -75.1224,-10.8781
 L -75.3349,-10.4006 L -75.6421,-9.97781 L -76.0305,-9.62809 L -76.4832,-9.36677 L -76.9802,-9.20527 L -77.5,-9.15063
 L -78.0198,-9.20527 L -78.5168,-9.36677 L -78.9695,-9.62809 L -79.3579,-9.97781 L -79.6651,-10.4006 L -79.8776,-10.8781
 z
M -54.9863,31.912 L -54.9863,31.3893 L -54.8776,30.8781 L -54.6651,30.4006 L -54.3579,29.9778 L -53.9695,29.6281
 L -53.5168,29.3668 L -53.0198,29.2053 L -52.5,29.1506 L -51.9802,29.2053 L -51.4832,29.3668 L -51.0305,29.6281
 L -50.6421,29.9778 L -50.3349,30.4006 L -50.1224,30.8781 L -50.0137,31.3893 L -50.0137,31.912 L -50.1224,32.4232
 L -50.3349,32.9006 L -50.6421,33.3235 L -51.0305,33.6732 L -51.4832,33.9345 L -51.9802,34.096 L -52.5,34.1506
 L -53.0198,34.096 L -53.5168,33.9345 L -53.9695,33.6732 L -54.3579,33.3235 L -54.6651,32.9006 L -54.8776,32.4232
 z
M 50.0137,31.912 L 50.0137,31.3893 L 50.1224,30.8781 L 50.3349,30.4006 L 50.6421,29.9778 L 51.0305,29.6281
 L 51.4832,29.3668 L 51.9802,29.2053 L 52.5,29.1506 L 53.0198,29.2053 L 53.5168,29.3668 L 53.9695,29.6281
 L 54.3579,29.9778 L 54.6651,30.4006 L 54.8776,30.8781 L 54.9863,31.3893 L 54.9863,31.912 L 54.8776,32.4232
 L 54.6651,32.9006 L 54.3579,33.3235 L 53.9695,33.6732 L 53.5168,33.9345 L 53.0198,34.096 L 52.5,34.1506
 L 51.9802,34.096 L 51.4832,33.9345 L 51.0305,33.6732 L 50.6421,33.3235 L 50.3349,32.9006 L 50.1224,32.4232
 z
M 67,-70 L 67.1468,-70.9271 L 67.5729,-71.7634 L 68.2366,-72.4271 L 69.0729,-72.8532 L 70,-73
 L 70.9271,-72.8532 L 71.7634,-72.4271 L 72.4271,-71.7634 L 72.8532,-70.9271 L 73,-70 L 72.8532,-69.0729
 L 72.4271,-68.2366 L 71.7634,-67.5729 L 70.9271,-67.1468 L 70,-67 L 69.0729,-67.1468 L 68.2366,-67.5729
 L 67.5729,-68.2366 L 67.1468,-69.0729 z
M 72,-75 L 72.1468,-75.9271 L 72.5729,-76.7634 L 73.2366,-77.4271 L 74.0729,-77.8532 L 75,-78
 L 75.9271,-77.8532 L 76.7634,-77.4271 L 77.4271,-76.7634 L 77.8532,-75.9271 L 78,-75 L 77.8532,-74.0729
 L 77.4271,-73.2366 L 76.7634,-72.5729 L 75.9271,-72.1468 L 75,-72 L 74.0729,-72.1468 L 73.2366,-72.5729
 L 72.5729,-73.2366 L 72.1468,-74.0729 z
M 75.0137,-11.3893 L 75.0137,-11.912 L 75.1224,-12.4232 L 75.3349,-12.9006 L 75.6421,-13.3235 L 76.0305,-13.6732
 L 76.4832,-13.9345 L 76.9802,-14.096 L 77.5,-14.1506 L 78.0198,-14.096 L 78.5168,-13.9345 L 78.9695,-13.6732
 L 79.3579,-13.3235 L 79.6651,-12.9006 L 79.8776,-12.4232 L 79.9863,-11.912 L 79.9863,-11.3893 L 79.8776,-10.8781
 L 79.6651,-10.4006 L 79.3579,-9.97781 L 78.9695,-9.62809 L 78.5168,-9.36677 L 78.0198,-9.20527 L 77.5,-9.15063
 L 76.9802,-9.20527 L 76.4832,-9.36677 L 76.0305,-9.62809 L 75.6421,-9.97781 L 75.3349,-10.4006 L 75.1224,-10.8781
 z
M 97,60 L 97.1468,59.0729 L 97.5729,58.2366 L 98.2366,57.5729 L 99.0729,57.1468 L 100,57
 L 100.927,57.1468 L 101.763,57.5729 L 102.427,58.2366 L 102.853,59.0729 L 103,60 L 102.853,60.9271
 L 102.427,61.7634 L 101.763,62.4271 L 100.927,62.8532 L 100,63 L 99.0729,62.8532 L 98.2366,62.4271
 L 97.5729,61.7634 L 97.1468,60.9271 z
M 97,-100 L 97.1468,-100.927 L 97.5729,-101.763 L 98.2366,-102.427 L 99.0729,-102.853 L 100,-103
 L 100.927,-102.853 L 101.763,-102.427 L 102.427,-101.763 L 102.853,-100.927 L 103,-100 L 102.853,-99.0729
 L 102.427,-98.2366 L 101.763,-97.5729 L 100.927,-97.1468 L 100,-97 L 99.0729,-97.1468 L 98.2366,-97.5729
 L 97.5729,-98.2366 L 97.1468,-99.0729 z
" stroke="black" fill="lightgray" stroke-width="0.5"/>
</svg>
