solid OpenSCAD_Model
  facet normal -1 0 0
    outer loop
      vertex -15 -2.5 -15
      vertex -15 2.5 15
      vertex -15 2.5 -15
    endloop
  endfacet
  facet normal -1 -0 0
    outer loop
      vertex -15 2.5 15
      vertex -15 -2.5 -15
      vertex -15 -2.5 15
    endloop
  endfacet
  facet normal -0 0 1
    outer loop
      vertex -15 2.5 15
      vertex 15 -2.5 15
      vertex 15 2.5 15
    endloop
  endfacet
  facet normal 0 0 1
    outer loop
      vertex 15 -2.5 15
      vertex -15 2.5 15
      vertex -15 -2.5 15
    endloop
  endfacet
  facet normal 1 -0 0
    outer loop
      vertex 15 -2.5 15
      vertex 15 2.5 -15
      vertex 15 2.5 15
    endloop
  endfacet
  facet normal 1 0 0
    outer loop
      vertex 15 2.5 -15
      vertex 15 -2.5 15
      vertex 15 -2.5 -15
    endloop
  endfacet
  facet normal 0 0 -1
    outer loop
      vertex -15 -2.5 -15
      vertex 15 2.5 -15
      vertex 15 -2.5 -15
    endloop
  endfacet
  facet normal -0 0 -1
    outer loop
      vertex 15 2.5 -15
      vertex -15 -2.5 -15
      vertex -15 2.5 -15
    endloop
  endfacet
  facet normal 0 -1 0
    outer loop
      vertex -8.86934 -2.5 10.2432
      vertex -15 -2.5 15
      vertex -9.13066 -2.5 10.2432
    endloop
  endfacet
  facet normal 0 -1 0
    outer loop
      vertex -15 -2.5 15
      vertex -9.38627 -2.5 10.1888
      vertex -9.13066 -2.5 10.2432
    endloop
  endfacet
  facet normal 0 -1 0
    outer loop
      vertex -15 -2.5 15
      vertex -9.625 -2.5 10.0825
      vertex -9.38627 -2.5 10.1888
    endloop
  endfacet
  facet normal 0 -1 0
    outer loop
      vertex -15 -2.5 15
      vertex -9.83641 -2.5 9.92893
      vertex -9.625 -2.5 10.0825
    endloop
  endfacet
  facet normal 0 -1 0
    outer loop
      vertex -15 -2.5 15
      vertex -10.0113 -2.5 9.73473
      vertex -9.83641 -2.5 9.92893
    endloop
  endfacet
  facet normal 0 -1 0
    outer loop
      vertex -15 -2.5 15
      vertex -10.1419 -2.5 9.50842
      vertex -10.0113 -2.5 9.73473
    endloop
  endfacet
  facet normal 0 -1 0
    outer loop
      vertex -15 -2.5 15
      vertex -10.2227 -2.5 9.25989
      vertex -10.1419 -2.5 9.50842
    endloop
  endfacet
  facet normal 0 -1 0
    outer loop
      vertex -11.6 -2.5 7
      vertex -10.2227 -2.5 9.25989
      vertex -15 -2.5 15
    endloop
  endfacet
  facet normal 0 -1 0
    outer loop
      vertex -10.2227 -2.5 9.25989
      vertex -11.6 -2.5 7
      vertex -10.25 -2.5 9
    endloop
  endfacet
  facet normal 0 -1 -0
    outer loop
      vertex -10.25 -2.5 9
      vertex -11.6 -2.5 7
      vertex -10.2227 -2.5 8.74011
    endloop
  endfacet
  facet normal 0 -1 -0
    outer loop
      vertex -10.2227 -2.5 8.74011
      vertex -11.6 -2.5 7
      vertex -10.1419 -2.5 8.49158
    endloop
  endfacet
  facet normal 0 -1 -0
    outer loop
      vertex -9.13066 -2.5 7.75685
      vertex -11.6 -2.5 7
      vertex -8.86934 -2.5 7.75685
    endloop
  endfacet
  facet normal 0 -1 -0
    outer loop
      vertex -9.38627 -2.5 7.81118
      vertex -11.6 -2.5 7
      vertex -9.13066 -2.5 7.75685
    endloop
  endfacet
  facet normal 0 -1 -0
    outer loop
      vertex -9.625 -2.5 7.91747
      vertex -11.6 -2.5 7
      vertex -9.38627 -2.5 7.81118
    endloop
  endfacet
  facet normal 0 -1 -0
    outer loop
      vertex -9.83641 -2.5 8.07107
      vertex -11.6 -2.5 7
      vertex -9.625 -2.5 7.91747
    endloop
  endfacet
  facet normal 0 -1 -0
    outer loop
      vertex -10.0113 -2.5 8.26527
      vertex -11.6 -2.5 7
      vertex -9.83641 -2.5 8.07107
    endloop
  endfacet
  facet normal 0 -1 -0
    outer loop
      vertex -10.1419 -2.5 8.49158
      vertex -11.6 -2.5 7
      vertex -10.0113 -2.5 8.26527
    endloop
  endfacet
  facet normal 0 -1 0
    outer loop
      vertex -15 -2.5 15
      vertex -11.6 -2.5 -7
      vertex -11.6 -2.5 7
    endloop
  endfacet
  facet normal 0 -1 0
    outer loop
      vertex 8.61373 -2.5 -7.81118
      vertex 11.6 -2.5 -7
      vertex -11.6 -2.5 -7
    endloop
  endfacet
  facet normal 0 -1 0
    outer loop
      vertex 11.6 -2.5 -7
      vertex 8.61373 -2.5 -7.81118
      vertex 8.86934 -2.5 -7.75685
    endloop
  endfacet
  facet normal 0 -1 0
    outer loop
      vertex -11.6 -2.5 -7
      vertex 8.375 -2.5 -7.91747
      vertex 8.61373 -2.5 -7.81118
    endloop
  endfacet
  facet normal 0 -1 0
    outer loop
      vertex -11.6 -2.5 -7
      vertex 8.16359 -2.5 -8.07107
      vertex 8.375 -2.5 -7.91747
    endloop
  endfacet
  facet normal 0 -1 0
    outer loop
      vertex -11.6 -2.5 -7
      vertex 7.98873 -2.5 -8.26527
      vertex 8.16359 -2.5 -8.07107
    endloop
  endfacet
  facet normal 0 -1 0
    outer loop
      vertex -11.6 -2.5 -7
      vertex 7.85807 -2.5 -8.49158
      vertex 7.98873 -2.5 -8.26527
    endloop
  endfacet
  facet normal 0 -1 0
    outer loop
      vertex -11.6 -2.5 -7
      vertex 7.77732 -2.5 -8.74011
      vertex 7.85807 -2.5 -8.49158
    endloop
  endfacet
  facet normal 0 -1 0
    outer loop
      vertex -11.6 -2.5 -7
      vertex 7.75 -2.5 -9
      vertex 7.77732 -2.5 -8.74011
    endloop
  endfacet
  facet normal 0 -1 0
    outer loop
      vertex -11.6 -2.5 -7
      vertex 7.77732 -2.5 -9.25989
      vertex 7.75 -2.5 -9
    endloop
  endfacet
  facet normal 0 -1 0
    outer loop
      vertex -11.6 -2.5 -7
      vertex 7.85807 -2.5 -9.50842
      vertex 7.77732 -2.5 -9.25989
    endloop
  endfacet
  facet normal 0 -1 0
    outer loop
      vertex -15 -2.5 -15
      vertex 7.85807 -2.5 -9.50842
      vertex -11.6 -2.5 -7
    endloop
  endfacet
  facet normal 0 -1 -0
    outer loop
      vertex 7.85807 -2.5 -9.50842
      vertex -15 -2.5 -15
      vertex 7.98873 -2.5 -9.73473
    endloop
  endfacet
  facet normal 0 -1 -0
    outer loop
      vertex 7.98873 -2.5 -9.73473
      vertex -15 -2.5 -15
      vertex 8.16359 -2.5 -9.92893
    endloop
  endfacet
  facet normal 0 -1 -0
    outer loop
      vertex 8.16359 -2.5 -9.92893
      vertex -15 -2.5 -15
      vertex 8.375 -2.5 -10.0825
    endloop
  endfacet
  facet normal 0 -1 0
    outer loop
      vertex 15 -2.5 -15
      vertex 8.375 -2.5 -10.0825
      vertex -15 -2.5 -15
    endloop
  endfacet
  facet normal 0 -1 0
    outer loop
      vertex 8.61373 -2.5 -10.1888
      vertex 15 -2.5 -15
      vertex 8.86934 -2.5 -10.2432
    endloop
  endfacet
  facet normal 0 -1 0
    outer loop
      vertex 8.375 -2.5 -10.0825
      vertex 15 -2.5 -15
      vertex 8.61373 -2.5 -10.1888
    endloop
  endfacet
  facet normal 0 -1 0
    outer loop
      vertex -15 -2.5 -15
      vertex -11.6 -2.5 -7
      vertex -15 -2.5 15
    endloop
  endfacet
  facet normal 0 -1 0
    outer loop
      vertex -8.61373 -2.5 10.1888
      vertex -15 -2.5 15
      vertex -8.86934 -2.5 10.2432
    endloop
  endfacet
  facet normal 0 -1 0
    outer loop
      vertex -8.375 -2.5 10.0825
      vertex -15 -2.5 15
      vertex -8.61373 -2.5 10.1888
    endloop
  endfacet
  facet normal 0 -1 0
    outer loop
      vertex -15 -2.5 15
      vertex -8.375 -2.5 10.0825
      vertex 15 -2.5 15
    endloop
  endfacet
  facet normal 0 -1 0
    outer loop
      vertex -8.16359 -2.5 9.92893
      vertex 15 -2.5 15
      vertex -8.375 -2.5 10.0825
    endloop
  endfacet
  facet normal 0 -1 0
    outer loop
      vertex -7.98873 -2.5 9.73473
      vertex 15 -2.5 15
      vertex -8.16359 -2.5 9.92893
    endloop
  endfacet
  facet normal 0 -1 0
    outer loop
      vertex -7.85807 -2.5 9.50842
      vertex 15 -2.5 15
      vertex -7.98873 -2.5 9.73473
    endloop
  endfacet
  facet normal 0 -1 0
    outer loop
      vertex 11.6 -2.5 7
      vertex -7.85807 -2.5 9.50842
      vertex -7.77732 -2.5 9.25989
    endloop
  endfacet
  facet normal 0 -1 0
    outer loop
      vertex 11.6 -2.5 7
      vertex -7.77732 -2.5 9.25989
      vertex -7.75 -2.5 9
    endloop
  endfacet
  facet normal 0 -1 0
    outer loop
      vertex 11.6 -2.5 7
      vertex -7.75 -2.5 9
      vertex -7.77732 -2.5 8.74011
    endloop
  endfacet
  facet normal 0 -1 0
    outer loop
      vertex 11.6 -2.5 7
      vertex -7.77732 -2.5 8.74011
      vertex -7.85807 -2.5 8.49158
    endloop
  endfacet
  facet normal 0 -1 0
    outer loop
      vertex 11.6 -2.5 7
      vertex -7.85807 -2.5 8.49158
      vertex -7.98873 -2.5 8.26527
    endloop
  endfacet
  facet normal 0 -1 0
    outer loop
      vertex 11.6 -2.5 7
      vertex -7.98873 -2.5 8.26527
      vertex -8.16359 -2.5 8.07107
    endloop
  endfacet
  facet normal 0 -1 0
    outer loop
      vertex 11.6 -2.5 7
      vertex -8.16359 -2.5 8.07107
      vertex -8.375 -2.5 7.91747
    endloop
  endfacet
  facet normal 0 -1 0
    outer loop
      vertex 11.6 -2.5 7
      vertex -8.375 -2.5 7.91747
      vertex -8.61373 -2.5 7.81118
    endloop
  endfacet
  facet normal 0 -1 0
    outer loop
      vertex -11.6 -2.5 7
      vertex -8.61373 -2.5 7.81118
      vertex -8.86934 -2.5 7.75685
    endloop
  endfacet
  facet normal 0 -1 0
    outer loop
      vertex 11.6 -2.5 7
      vertex -8.61373 -2.5 7.81118
      vertex -11.6 -2.5 7
    endloop
  endfacet
  facet normal 0 -1 0
    outer loop
      vertex -7.85807 -2.5 9.50842
      vertex 11.6 -2.5 7
      vertex 15 -2.5 15
    endloop
  endfacet
  facet normal 0 -1 0
    outer loop
      vertex 11.6 -2.5 -7
      vertex 15 -2.5 15
      vertex 11.6 -2.5 7
    endloop
  endfacet
  facet normal 0 -1 0
    outer loop
      vertex 9.13066 -2.5 -7.75685
      vertex 11.6 -2.5 -7
      vertex 8.86934 -2.5 -7.75685
    endloop
  endfacet
  facet normal 0 -1 0
    outer loop
      vertex 9.38627 -2.5 -7.81118
      vertex 11.6 -2.5 -7
      vertex 9.13066 -2.5 -7.75685
    endloop
  endfacet
  facet normal 0 -1 0
    outer loop
      vertex 9.625 -2.5 -7.91747
      vertex 11.6 -2.5 -7
      vertex 9.38627 -2.5 -7.81118
    endloop
  endfacet
  facet normal 0 -1 0
    outer loop
      vertex 9.83641 -2.5 -8.07107
      vertex 11.6 -2.5 -7
      vertex 9.625 -2.5 -7.91747
    endloop
  endfacet
  facet normal 0 -1 0
    outer loop
      vertex 10.0113 -2.5 -8.26527
      vertex 11.6 -2.5 -7
      vertex 9.83641 -2.5 -8.07107
    endloop
  endfacet
  facet normal 0 -1 0
    outer loop
      vertex 10.1419 -2.5 -8.49158
      vertex 11.6 -2.5 -7
      vertex 10.0113 -2.5 -8.26527
    endloop
  endfacet
  facet normal 0 -1 0
    outer loop
      vertex 10.2227 -2.5 -8.74011
      vertex 11.6 -2.5 -7
      vertex 10.1419 -2.5 -8.49158
    endloop
  endfacet
  facet normal 0 -1 0
    outer loop
      vertex 10.25 -2.5 -9
      vertex 11.6 -2.5 -7
      vertex 10.2227 -2.5 -8.74011
    endloop
  endfacet
  facet normal 0 -1 0
    outer loop
      vertex 10.2227 -2.5 -9.25989
      vertex 11.6 -2.5 -7
      vertex 10.25 -2.5 -9
    endloop
  endfacet
  facet normal 0 -1 0
    outer loop
      vertex 15 -2.5 -15
      vertex 10.2227 -2.5 -9.25989
      vertex 10.1419 -2.5 -9.50842
    endloop
  endfacet
  facet normal 0 -1 0
    outer loop
      vertex 15 -2.5 -15
      vertex 10.1419 -2.5 -9.50842
      vertex 10.0113 -2.5 -9.73473
    endloop
  endfacet
  facet normal 0 -1 0
    outer loop
      vertex 11.6 -2.5 -7
      vertex 15 -2.5 -15
      vertex 15 -2.5 15
    endloop
  endfacet
  facet normal 0 -1 0
    outer loop
      vertex 10.2227 -2.5 -9.25989
      vertex 15 -2.5 -15
      vertex 11.6 -2.5 -7
    endloop
  endfacet
  facet normal 0 -1 0
    outer loop
      vertex 9.83641 -2.5 -9.92893
      vertex 15 -2.5 -15
      vertex 10.0113 -2.5 -9.73473
    endloop
  endfacet
  facet normal 0 -1 0
    outer loop
      vertex 9.625 -2.5 -10.0825
      vertex 15 -2.5 -15
      vertex 9.83641 -2.5 -9.92893
    endloop
  endfacet
  facet normal 0 -1 0
    outer loop
      vertex 9.38627 -2.5 -10.1888
      vertex 15 -2.5 -15
      vertex 9.625 -2.5 -10.0825
    endloop
  endfacet
  facet normal 0 -1 0
    outer loop
      vertex 9.13066 -2.5 -10.2432
      vertex 15 -2.5 -15
      vertex 9.38627 -2.5 -10.1888
    endloop
  endfacet
  facet normal 0 -1 0
    outer loop
      vertex 8.86934 -2.5 -10.2432
      vertex 15 -2.5 -15
      vertex 9.13066 -2.5 -10.2432
    endloop
  endfacet
  facet normal 0 1 0
    outer loop
      vertex 15 2.5 15
      vertex 11.6 2.5 11.6
      vertex -15 2.5 15
    endloop
  endfacet
  facet normal 0 1 0
    outer loop
      vertex 15 2.5 15
      vertex 11.6 2.5 -11.6
      vertex 11.6 2.5 11.6
    endloop
  endfacet
  facet normal 0 1 0
    outer loop
      vertex 11.6 2.5 -11.6
      vertex 15 2.5 -15
      vertex -11.6 2.5 -11.6
    endloop
  endfacet
  facet normal 0 1 -0
    outer loop
      vertex 15 2.5 -15
      vertex 11.6 2.5 -11.6
      vertex 15 2.5 15
    endloop
  endfacet
  facet normal 0 1 -0
    outer loop
      vertex -11.6 2.5 11.6
      vertex -15 2.5 15
      vertex 11.6 2.5 11.6
    endloop
  endfacet
  facet normal 0 1 -0
    outer loop
      vertex -11.6 2.5 -11.6
      vertex -15 2.5 15
      vertex -11.6 2.5 11.6
    endloop
  endfacet
  facet normal 0 1 0
    outer loop
      vertex -11.6 2.5 -11.6
      vertex -15 2.5 -15
      vertex -15 2.5 15
    endloop
  endfacet
  facet normal 0 1 0
    outer loop
      vertex -15 2.5 -15
      vertex -11.6 2.5 -11.6
      vertex 15 2.5 -15
    endloop
  endfacet
  facet normal 1 -0 0
    outer loop
      vertex -11.6 -2.5 7
      vertex -11.6 -0.7 -7
      vertex -11.6 -0.7 7
    endloop
  endfacet
  facet normal 1 0 0
    outer loop
      vertex -11.6 -0.7 -7
      vertex -11.6 -2.5 7
      vertex -11.6 -2.5 -7
    endloop
  endfacet
  facet normal 1 0 0
    outer loop
      vertex -11.6 -0.7 7
      vertex -11.6 2.5 11.6
      vertex -11.6 -0.7 11.6
    endloop
  endfacet
  facet normal 1 0 0
    outer loop
      vertex -11.6 2.5 11.6
      vertex -11.6 -0.7 7
      vertex -11.6 2.5 -11.6
    endloop
  endfacet
  facet normal 1 -0 0
    outer loop
      vertex -11.6 -0.7 -7
      vertex -11.6 2.5 -11.6
      vertex -11.6 -0.7 7
    endloop
  endfacet
  facet normal 1 0 0
    outer loop
      vertex -11.6 2.5 -11.6
      vertex -11.6 -0.7 -7
      vertex -11.6 -0.7 -11.6
    endloop
  endfacet
  facet normal 0 0 -1
    outer loop
      vertex -11.6 -0.7 11.6
      vertex 11.6 2.5 11.6
      vertex 11.6 -0.7 11.6
    endloop
  endfacet
  facet normal -0 0 -1
    outer loop
      vertex 11.6 2.5 11.6
      vertex -11.6 -0.7 11.6
      vertex -11.6 2.5 11.6
    endloop
  endfacet
  facet normal -1 0 0
    outer loop
      vertex 11.6 -2.5 -7
      vertex 11.6 -0.7 7
      vertex 11.6 -0.7 -7
    endloop
  endfacet
  facet normal -1 -0 0
    outer loop
      vertex 11.6 -0.7 7
      vertex 11.6 -2.5 -7
      vertex 11.6 -2.5 7
    endloop
  endfacet
  facet normal -1 0 0
    outer loop
      vertex 11.6 -0.7 -7
      vertex 11.6 2.5 -11.6
      vertex 11.6 -0.7 -11.6
    endloop
  endfacet
  facet normal -1 0 0
    outer loop
      vertex 11.6 2.5 -11.6
      vertex 11.6 -0.7 -7
      vertex 11.6 2.5 11.6
    endloop
  endfacet
  facet normal -1 0 0
    outer loop
      vertex 11.6 -0.7 7
      vertex 11.6 2.5 11.6
      vertex 11.6 -0.7 -7
    endloop
  endfacet
  facet normal -1 -0 0
    outer loop
      vertex 11.6 2.5 11.6
      vertex 11.6 -0.7 7
      vertex 11.6 -0.7 11.6
    endloop
  endfacet
  facet normal -0 0 1
    outer loop
      vertex -11.6 2.5 -11.6
      vertex 11.6 -0.7 -11.6
      vertex 11.6 2.5 -11.6
    endloop
  endfacet
  facet normal 0 0 1
    outer loop
      vertex 11.6 -0.7 -11.6
      vertex -11.6 2.5 -11.6
      vertex -11.6 -0.7 -11.6
    endloop
  endfacet
  facet normal 0 1 -0
    outer loop
      vertex -8.61373 -0.7 10.1888
      vertex -11.6 -0.7 11.6
      vertex 11.6 -0.7 11.6
    endloop
  endfacet
  facet normal 0 1 0
    outer loop
      vertex -11.6 -0.7 11.6
      vertex -8.61373 -0.7 10.1888
      vertex -8.86934 -0.7 10.2432
    endloop
  endfacet
  facet normal 0 1 0
    outer loop
      vertex 11.6 -0.7 11.6
      vertex -8.375 -0.7 10.0825
      vertex -8.61373 -0.7 10.1888
    endloop
  endfacet
  facet normal 0 1 0
    outer loop
      vertex 11.6 -0.7 11.6
      vertex -8.16359 -0.7 9.92893
      vertex -8.375 -0.7 10.0825
    endloop
  endfacet
  facet normal 0 1 0
    outer loop
      vertex 11.6 -0.7 11.6
      vertex -7.98873 -0.7 9.73473
      vertex -8.16359 -0.7 9.92893
    endloop
  endfacet
  facet normal 0 1 0
    outer loop
      vertex 11.6 -0.7 11.6
      vertex -7.85807 -0.7 9.50842
      vertex -7.98873 -0.7 9.73473
    endloop
  endfacet
  facet normal 0 1 0
    outer loop
      vertex 11.6 -0.7 11.6
      vertex -7.77732 -0.7 9.25989
      vertex -7.85807 -0.7 9.50842
    endloop
  endfacet
  facet normal 0 1 0
    outer loop
      vertex 11.6 -0.7 11.6
      vertex -7.75 -0.7 9
      vertex -7.77732 -0.7 9.25989
    endloop
  endfacet
  facet normal 0 1 -0
    outer loop
      vertex 11.6 -0.7 7
      vertex -7.75 -0.7 9
      vertex 11.6 -0.7 11.6
    endloop
  endfacet
  facet normal 0 1 0
    outer loop
      vertex -7.75 -0.7 9
      vertex 11.6 -0.7 7
      vertex -7.77732 -0.7 8.74011
    endloop
  endfacet
  facet normal 0 1 0
    outer loop
      vertex -7.77732 -0.7 8.74011
      vertex 11.6 -0.7 7
      vertex -7.85807 -0.7 8.49158
    endloop
  endfacet
  facet normal 0 1 0
    outer loop
      vertex -7.85807 -0.7 8.49158
      vertex 11.6 -0.7 7
      vertex -7.98873 -0.7 8.26527
    endloop
  endfacet
  facet normal 0 1 0
    outer loop
      vertex -7.98873 -0.7 8.26527
      vertex 11.6 -0.7 7
      vertex -8.16359 -0.7 8.07107
    endloop
  endfacet
  facet normal 0 1 0
    outer loop
      vertex -8.16359 -0.7 8.07107
      vertex 11.6 -0.7 7
      vertex -8.375 -0.7 7.91747
    endloop
  endfacet
  facet normal 0 1 0
    outer loop
      vertex -8.375 -0.7 7.91747
      vertex 11.6 -0.7 7
      vertex -8.61373 -0.7 7.81118
    endloop
  endfacet
  facet normal 0 1 0
    outer loop
      vertex -8.61373 -0.7 7.81118
      vertex -11.6 -0.7 7
      vertex -8.86934 -0.7 7.75685
    endloop
  endfacet
  facet normal 0 1 0
    outer loop
      vertex -11.6 -0.7 7
      vertex -8.61373 -0.7 7.81118
      vertex 11.6 -0.7 7
    endloop
  endfacet
  facet normal 0 1 -0
    outer loop
      vertex -9.13066 -0.7 10.2432
      vertex -11.6 -0.7 11.6
      vertex -8.86934 -0.7 10.2432
    endloop
  endfacet
  facet normal 0 1 -0
    outer loop
      vertex -9.38627 -0.7 10.1888
      vertex -11.6 -0.7 11.6
      vertex -9.13066 -0.7 10.2432
    endloop
  endfacet
  facet normal 0 1 -0
    outer loop
      vertex -9.625 -0.7 10.0825
      vertex -11.6 -0.7 11.6
      vertex -9.38627 -0.7 10.1888
    endloop
  endfacet
  facet normal 0 1 -0
    outer loop
      vertex -9.83641 -0.7 9.92893
      vertex -11.6 -0.7 11.6
      vertex -9.625 -0.7 10.0825
    endloop
  endfacet
  facet normal 0 1 -0
    outer loop
      vertex -10.0113 -0.7 9.73473
      vertex -11.6 -0.7 11.6
      vertex -9.83641 -0.7 9.92893
    endloop
  endfacet
  facet normal 0 1 -0
    outer loop
      vertex -10.1419 -0.7 9.50842
      vertex -11.6 -0.7 11.6
      vertex -10.0113 -0.7 9.73473
    endloop
  endfacet
  facet normal 0 1 -0
    outer loop
      vertex -10.2227 -0.7 9.25989
      vertex -11.6 -0.7 11.6
      vertex -10.1419 -0.7 9.50842
    endloop
  endfacet
  facet normal 0 1 -0
    outer loop
      vertex -10.25 -0.7 9
      vertex -11.6 -0.7 11.6
      vertex -10.2227 -0.7 9.25989
    endloop
  endfacet
  facet normal 0 1 0
    outer loop
      vertex -11.6 -0.7 7
      vertex -10.25 -0.7 9
      vertex -10.2227 -0.7 8.74011
    endloop
  endfacet
  facet normal 0 1 0
    outer loop
      vertex -11.6 -0.7 7
      vertex -10.2227 -0.7 8.74011
      vertex -10.1419 -0.7 8.49158
    endloop
  endfacet
  facet normal 0 1 0
    outer loop
      vertex -10.25 -0.7 9
      vertex -11.6 -0.7 7
      vertex -11.6 -0.7 11.6
    endloop
  endfacet
  facet normal 0 1 0
    outer loop
      vertex -10.0113 -0.7 8.26527
      vertex -11.6 -0.7 7
      vertex -10.1419 -0.7 8.49158
    endloop
  endfacet
  facet normal 0 1 0
    outer loop
      vertex -9.83641 -0.7 8.07107
      vertex -11.6 -0.7 7
      vertex -10.0113 -0.7 8.26527
    endloop
  endfacet
  facet normal 0 1 0
    outer loop
      vertex -9.625 -0.7 7.91747
      vertex -11.6 -0.7 7
      vertex -9.83641 -0.7 8.07107
    endloop
  endfacet
  facet normal 0 1 0
    outer loop
      vertex -9.38627 -0.7 7.81118
      vertex -11.6 -0.7 7
      vertex -9.625 -0.7 7.91747
    endloop
  endfacet
  facet normal 0 1 0
    outer loop
      vertex -9.13066 -0.7 7.75685
      vertex -11.6 -0.7 7
      vertex -9.38627 -0.7 7.81118
    endloop
  endfacet
  facet normal 0 1 0
    outer loop
      vertex -8.86934 -0.7 7.75685
      vertex -11.6 -0.7 7
      vertex -9.13066 -0.7 7.75685
    endloop
  endfacet
  facet normal 0 1 0
    outer loop
      vertex 8.86934 -0.7 -7.75685
      vertex 11.6 -0.7 -7
      vertex 9.13066 -0.7 -7.75685
    endloop
  endfacet
  facet normal 0 1 0
    outer loop
      vertex 11.6 -0.7 -7
      vertex 9.38627 -0.7 -7.81118
      vertex 9.13066 -0.7 -7.75685
    endloop
  endfacet
  facet normal 0 1 0
    outer loop
      vertex 11.6 -0.7 -7
      vertex 9.625 -0.7 -7.91747
      vertex 9.38627 -0.7 -7.81118
    endloop
  endfacet
  facet normal 0 1 0
    outer loop
      vertex 11.6 -0.7 -7
      vertex 9.83641 -0.7 -8.07107
      vertex 9.625 -0.7 -7.91747
    endloop
  endfacet
  facet normal 0 1 0
    outer loop
      vertex 11.6 -0.7 -7
      vertex 10.0113 -0.7 -8.26527
      vertex 9.83641 -0.7 -8.07107
    endloop
  endfacet
  facet normal 0 1 0
    outer loop
      vertex 11.6 -0.7 -7
      vertex 10.1419 -0.7 -8.49158
      vertex 10.0113 -0.7 -8.26527
    endloop
  endfacet
  facet normal 0 1 0
    outer loop
      vertex 11.6 -0.7 -7
      vertex 10.2227 -0.7 -8.74011
      vertex 10.1419 -0.7 -8.49158
    endloop
  endfacet
  facet normal 0 1 0
    outer loop
      vertex 11.6 -0.7 -7
      vertex 10.25 -0.7 -9
      vertex 10.2227 -0.7 -8.74011
    endloop
  endfacet
  facet normal 0 1 -0
    outer loop
      vertex 11.6 -0.7 -11.6
      vertex 10.25 -0.7 -9
      vertex 11.6 -0.7 -7
    endloop
  endfacet
  facet normal 0 1 0
    outer loop
      vertex 10.25 -0.7 -9
      vertex 11.6 -0.7 -11.6
      vertex 10.2227 -0.7 -9.25989
    endloop
  endfacet
  facet normal 0 1 0
    outer loop
      vertex 10.2227 -0.7 -9.25989
      vertex 11.6 -0.7 -11.6
      vertex 10.1419 -0.7 -9.50842
    endloop
  endfacet
  facet normal 0 1 0
    outer loop
      vertex 9.13066 -0.7 -10.2432
      vertex 11.6 -0.7 -11.6
      vertex 8.86934 -0.7 -10.2432
    endloop
  endfacet
  facet normal 0 1 0
    outer loop
      vertex 9.38627 -0.7 -10.1888
      vertex 11.6 -0.7 -11.6
      vertex 9.13066 -0.7 -10.2432
    endloop
  endfacet
  facet normal 0 1 0
    outer loop
      vertex 9.625 -0.7 -10.0825
      vertex 11.6 -0.7 -11.6
      vertex 9.38627 -0.7 -10.1888
    endloop
  endfacet
  facet normal 0 1 0
    outer loop
      vertex 9.83641 -0.7 -9.92893
      vertex 11.6 -0.7 -11.6
      vertex 9.625 -0.7 -10.0825
    endloop
  endfacet
  facet normal 0 1 0
    outer loop
      vertex 10.0113 -0.7 -9.73473
      vertex 11.6 -0.7 -11.6
      vertex 9.83641 -0.7 -9.92893
    endloop
  endfacet
  facet normal 0 1 0
    outer loop
      vertex 10.1419 -0.7 -9.50842
      vertex 11.6 -0.7 -11.6
      vertex 10.0113 -0.7 -9.73473
    endloop
  endfacet
  facet normal 0 1 0
    outer loop
      vertex 8.61373 -0.7 -7.81118
      vertex 11.6 -0.7 -7
      vertex 8.86934 -0.7 -7.75685
    endloop
  endfacet
  facet normal 0 1 0
    outer loop
      vertex 11.6 -0.7 -7
      vertex 8.61373 -0.7 -7.81118
      vertex -11.6 -0.7 -7
    endloop
  endfacet
  facet normal 0 1 -0
    outer loop
      vertex 8.375 -0.7 -7.91747
      vertex -11.6 -0.7 -7
      vertex 8.61373 -0.7 -7.81118
    endloop
  endfacet
  facet normal 0 1 -0
    outer loop
      vertex 8.16359 -0.7 -8.07107
      vertex -11.6 -0.7 -7
      vertex 8.375 -0.7 -7.91747
    endloop
  endfacet
  facet normal 0 1 -0
    outer loop
      vertex 7.98873 -0.7 -8.26527
      vertex -11.6 -0.7 -7
      vertex 8.16359 -0.7 -8.07107
    endloop
  endfacet
  facet normal 0 1 -0
    outer loop
      vertex 7.85807 -0.7 -8.49158
      vertex -11.6 -0.7 -7
      vertex 7.98873 -0.7 -8.26527
    endloop
  endfacet
  facet normal 0 1 -0
    outer loop
      vertex 7.77732 -0.7 -8.74011
      vertex -11.6 -0.7 -7
      vertex 7.85807 -0.7 -8.49158
    endloop
  endfacet
  facet normal 0 1 -0
    outer loop
      vertex 7.75 -0.7 -9
      vertex -11.6 -0.7 -7
      vertex 7.77732 -0.7 -8.74011
    endloop
  endfacet
  facet normal 0 1 0
    outer loop
      vertex -11.6 -0.7 -11.6
      vertex 7.75 -0.7 -9
      vertex 7.77732 -0.7 -9.25989
    endloop
  endfacet
  facet normal 0 1 0
    outer loop
      vertex -11.6 -0.7 -11.6
      vertex 7.77732 -0.7 -9.25989
      vertex 7.85807 -0.7 -9.50842
    endloop
  endfacet
  facet normal 0 1 0
    outer loop
      vertex -11.6 -0.7 -11.6
      vertex 7.85807 -0.7 -9.50842
      vertex 7.98873 -0.7 -9.73473
    endloop
  endfacet
  facet normal 0 1 0
    outer loop
      vertex -11.6 -0.7 -11.6
      vertex 7.98873 -0.7 -9.73473
      vertex 8.16359 -0.7 -9.92893
    endloop
  endfacet
  facet normal 0 1 0
    outer loop
      vertex -11.6 -0.7 -11.6
      vertex 8.16359 -0.7 -9.92893
      vertex 8.375 -0.7 -10.0825
    endloop
  endfacet
  facet normal 0 1 0
    outer loop
      vertex -11.6 -0.7 -11.6
      vertex 8.375 -0.7 -10.0825
      vertex 8.61373 -0.7 -10.1888
    endloop
  endfacet
  facet normal 0 1 0
    outer loop
      vertex 11.6 -0.7 -11.6
      vertex 8.61373 -0.7 -10.1888
      vertex 8.86934 -0.7 -10.2432
    endloop
  endfacet
  facet normal 0 1 0
    outer loop
      vertex 8.61373 -0.7 -10.1888
      vertex 11.6 -0.7 -11.6
      vertex -11.6 -0.7 -11.6
    endloop
  endfacet
  facet normal 0 1 0
    outer loop
      vertex 7.75 -0.7 -9
      vertex -11.6 -0.7 -11.6
      vertex -11.6 -0.7 -7
    endloop
  endfacet
  facet normal 0 0 -1
    outer loop
      vertex -11.6 -2.5 7
      vertex 11.6 -0.7 7
      vertex 11.6 -2.5 7
    endloop
  endfacet
  facet normal -0 0 -1
    outer loop
      vertex 11.6 -0.7 7
      vertex -11.6 -2.5 7
      vertex -11.6 -0.7 7
    endloop
  endfacet
  facet normal -0 0 1
    outer loop
      vertex -11.6 -0.7 -7
      vertex 11.6 -2.5 -7
      vertex 11.6 -0.7 -7
    endloop
  endfacet
  facet normal 0 0 1
    outer loop
      vertex 11.6 -2.5 -7
      vertex -11.6 -0.7 -7
      vertex -11.6 -2.5 -7
    endloop
  endfacet
  facet normal -0.994528 0 -0.10447
    outer loop
      vertex 10.25 -2.5 -9
      vertex 10.2227 -0.7 -8.74011
      vertex 10.25 -0.7 -9
    endloop
  endfacet
  facet normal -0.994528 -0 -0.10447
    outer loop
      vertex 10.2227 -0.7 -8.74011
      vertex 10.25 -2.5 -9
      vertex 10.2227 -2.5 -8.74011
    endloop
  endfacet
  facet normal -0.866125 0 -0.499827
    outer loop
      vertex 10.1419 -2.5 -8.49158
      vertex 10.0113 -0.7 -8.26527
      vertex 10.1419 -0.7 -8.49158
    endloop
  endfacet
  facet normal -0.866125 -0 -0.499827
    outer loop
      vertex 10.0113 -0.7 -8.26527
      vertex 10.1419 -2.5 -8.49158
      vertex 10.0113 -2.5 -8.26527
    endloop
  endfacet
  facet normal 0.951059 -0 0.309009
    outer loop
      vertex 7.77732 -2.5 -9.25989
      vertex 7.85807 -0.7 -9.50842
      vertex 7.77732 -0.7 -9.25989
    endloop
  endfacet
  facet normal 0.951059 0 0.309009
    outer loop
      vertex 7.85807 -0.7 -9.50842
      vertex 7.77732 -2.5 -9.25989
      vertex 7.85807 -2.5 -9.50842
    endloop
  endfacet
  facet normal 0.587789 0 -0.809014
    outer loop
      vertex 8.16359 -2.5 -8.07107
      vertex 8.375 -0.7 -7.91747
      vertex 8.375 -2.5 -7.91747
    endloop
  endfacet
  facet normal 0.587789 0 -0.809014
    outer loop
      vertex 8.375 -0.7 -7.91747
      vertex 8.16359 -2.5 -8.07107
      vertex 8.16359 -0.7 -8.07107
    endloop
  endfacet
  facet normal -0.587714 0 0.809069
    outer loop
      vertex 9.625 -0.7 -10.0825
      vertex 9.83641 -2.5 -9.92893
      vertex 9.83641 -0.7 -9.92893
    endloop
  endfacet
  facet normal -0.587714 0 0.809069
    outer loop
      vertex 9.83641 -2.5 -9.92893
      vertex 9.625 -0.7 -10.0825
      vertex 9.625 -2.5 -10.0825
    endloop
  endfacet
  facet normal -0.587789 0 -0.809014
    outer loop
      vertex 9.625 -2.5 -7.91747
      vertex 9.83641 -0.7 -8.07107
      vertex 9.83641 -2.5 -8.07107
    endloop
  endfacet
  facet normal -0.587789 0 -0.809014
    outer loop
      vertex 9.83641 -0.7 -8.07107
      vertex 9.625 -2.5 -7.91747
      vertex 9.625 -0.7 -7.91747
    endloop
  endfacet
  facet normal -0.743085 0 -0.669197
    outer loop
      vertex 10.0113 -2.5 -8.26527
      vertex 9.83641 -0.7 -8.07107
      vertex 10.0113 -0.7 -8.26527
    endloop
  endfacet
  facet normal -0.743085 -0 -0.669197
    outer loop
      vertex 9.83641 -0.7 -8.07107
      vertex 10.0113 -2.5 -8.26527
      vertex 9.83641 -2.5 -8.07107
    endloop
  endfacet
  facet normal 0.207906 0 -0.978149
    outer loop
      vertex 8.61373 -2.5 -7.81118
      vertex 8.86934 -0.7 -7.75685
      vertex 8.86934 -2.5 -7.75685
    endloop
  endfacet
  facet normal 0.207906 0 -0.978149
    outer loop
      vertex 8.86934 -0.7 -7.75685
      vertex 8.61373 -2.5 -7.81118
      vertex 8.61373 -0.7 -7.81118
    endloop
  endfacet
  facet normal 0.99452 -0 0.104545
    outer loop
      vertex 7.75 -2.5 -9
      vertex 7.77732 -0.7 -9.25989
      vertex 7.75 -0.7 -9
    endloop
  endfacet
  facet normal 0.99452 0 0.104545
    outer loop
      vertex 7.77732 -0.7 -9.25989
      vertex 7.75 -2.5 -9
      vertex 7.77732 -2.5 -9.25989
    endloop
  endfacet
  facet normal 0.951059 0 -0.309009
    outer loop
      vertex 7.85807 -2.5 -8.49158
      vertex 7.77732 -0.7 -8.74011
      vertex 7.85807 -0.7 -8.49158
    endloop
  endfacet
  facet normal 0.951059 0 -0.309009
    outer loop
      vertex 7.77732 -0.7 -8.74011
      vertex 7.85807 -2.5 -8.49158
      vertex 7.77732 -2.5 -8.74011
    endloop
  endfacet
  facet normal -0.951003 0 0.309182
    outer loop
      vertex 10.1419 -2.5 -9.50842
      vertex 10.2227 -0.7 -9.25989
      vertex 10.1419 -0.7 -9.50842
    endloop
  endfacet
  facet normal -0.951003 0 0.309182
    outer loop
      vertex 10.2227 -0.7 -9.25989
      vertex 10.1419 -2.5 -9.50842
      vertex 10.2227 -2.5 -9.25989
    endloop
  endfacet
  facet normal -0 0 1
    outer loop
      vertex 8.86934 -0.7 -10.2432
      vertex 9.13066 -2.5 -10.2432
      vertex 9.13066 -0.7 -10.2432
    endloop
  endfacet
  facet normal 0 0 1
    outer loop
      vertex 9.13066 -2.5 -10.2432
      vertex 8.86934 -0.7 -10.2432
      vertex 8.86934 -2.5 -10.2432
    endloop
  endfacet
  facet normal 0.743142 -0 0.669134
    outer loop
      vertex 7.98873 -2.5 -9.73473
      vertex 8.16359 -0.7 -9.92893
      vertex 7.98873 -0.7 -9.73473
    endloop
  endfacet
  facet normal 0.743142 0 0.669134
    outer loop
      vertex 8.16359 -0.7 -9.92893
      vertex 7.98873 -2.5 -9.73473
      vertex 8.16359 -2.5 -9.92893
    endloop
  endfacet
  facet normal -0.994528 0 0.10447
    outer loop
      vertex 10.2227 -2.5 -9.25989
      vertex 10.25 -0.7 -9
      vertex 10.2227 -0.7 -9.25989
    endloop
  endfacet
  facet normal -0.994528 0 0.10447
    outer loop
      vertex 10.25 -0.7 -9
      vertex 10.2227 -2.5 -9.25989
      vertex 10.25 -2.5 -9
    endloop
  endfacet
  facet normal -0.951003 0 -0.309182
    outer loop
      vertex 10.2227 -2.5 -8.74011
      vertex 10.1419 -0.7 -8.49158
      vertex 10.2227 -0.7 -8.74011
    endloop
  endfacet
  facet normal -0.951003 -0 -0.309182
    outer loop
      vertex 10.1419 -0.7 -8.49158
      vertex 10.2227 -2.5 -8.74011
      vertex 10.1419 -2.5 -8.49158
    endloop
  endfacet
  facet normal 0 0 -1
    outer loop
      vertex 8.86934 -2.5 -7.75685
      vertex 9.13066 -0.7 -7.75685
      vertex 9.13066 -2.5 -7.75685
    endloop
  endfacet
  facet normal -0 0 -1
    outer loop
      vertex 9.13066 -0.7 -7.75685
      vertex 8.86934 -2.5 -7.75685
      vertex 8.86934 -0.7 -7.75685
    endloop
  endfacet
  facet normal -0.406738 0 -0.913545
    outer loop
      vertex 9.38627 -2.5 -7.81118
      vertex 9.625 -0.7 -7.91747
      vertex 9.625 -2.5 -7.91747
    endloop
  endfacet
  facet normal -0.406738 0 -0.913545
    outer loop
      vertex 9.625 -0.7 -7.91747
      vertex 9.38627 -2.5 -7.81118
      vertex 9.38627 -0.7 -7.81118
    endloop
  endfacet
  facet normal -0.207906 0 -0.978149
    outer loop
      vertex 9.13066 -2.5 -7.75685
      vertex 9.38627 -0.7 -7.81118
      vertex 9.38627 -2.5 -7.81118
    endloop
  endfacet
  facet normal -0.207906 0 -0.978149
    outer loop
      vertex 9.38627 -0.7 -7.81118
      vertex 9.13066 -2.5 -7.75685
      vertex 9.13066 -0.7 -7.75685
    endloop
  endfacet
  facet normal 0.99452 0 -0.104545
    outer loop
      vertex 7.77732 -2.5 -8.74011
      vertex 7.75 -0.7 -9
      vertex 7.77732 -0.7 -8.74011
    endloop
  endfacet
  facet normal 0.99452 0 -0.104545
    outer loop
      vertex 7.75 -0.7 -9
      vertex 7.77732 -2.5 -8.74011
      vertex 7.75 -2.5 -9
    endloop
  endfacet
  facet normal 0.406738 0 -0.913545
    outer loop
      vertex 8.375 -2.5 -7.91747
      vertex 8.61373 -0.7 -7.81118
      vertex 8.61373 -2.5 -7.81118
    endloop
  endfacet
  facet normal 0.406738 0 -0.913545
    outer loop
      vertex 8.61373 -0.7 -7.81118
      vertex 8.375 -2.5 -7.91747
      vertex 8.375 -0.7 -7.91747
    endloop
  endfacet
  facet normal 0.743142 0 -0.669134
    outer loop
      vertex 8.16359 -2.5 -8.07107
      vertex 7.98873 -0.7 -8.26527
      vertex 8.16359 -0.7 -8.07107
    endloop
  endfacet
  facet normal 0.743142 0 -0.669134
    outer loop
      vertex 7.98873 -0.7 -8.26527
      vertex 8.16359 -2.5 -8.07107
      vertex 7.98873 -2.5 -8.26527
    endloop
  endfacet
  facet normal 0.866026 0 -0.5
    outer loop
      vertex 7.98873 -2.5 -8.26527
      vertex 7.85807 -0.7 -8.49158
      vertex 7.98873 -0.7 -8.26527
    endloop
  endfacet
  facet normal 0.866026 0 -0.5
    outer loop
      vertex 7.85807 -0.7 -8.49158
      vertex 7.98873 -2.5 -8.26527
      vertex 7.85807 -2.5 -8.49158
    endloop
  endfacet
  facet normal -0.208162 0 0.978094
    outer loop
      vertex 9.13066 -0.7 -10.2432
      vertex 9.38627 -2.5 -10.1888
      vertex 9.38627 -0.7 -10.1888
    endloop
  endfacet
  facet normal -0.208162 0 0.978094
    outer loop
      vertex 9.38627 -2.5 -10.1888
      vertex 9.13066 -0.7 -10.2432
      vertex 9.13066 -2.5 -10.2432
    endloop
  endfacet
  facet normal -0.40677 0 0.91353
    outer loop
      vertex 9.38627 -0.7 -10.1888
      vertex 9.625 -2.5 -10.0825
      vertex 9.625 -0.7 -10.0825
    endloop
  endfacet
  facet normal -0.40677 0 0.91353
    outer loop
      vertex 9.625 -2.5 -10.0825
      vertex 9.38627 -0.7 -10.1888
      vertex 9.38627 -2.5 -10.1888
    endloop
  endfacet
  facet normal -0.866125 0 0.499827
    outer loop
      vertex 10.0113 -2.5 -9.73473
      vertex 10.1419 -0.7 -9.50842
      vertex 10.0113 -0.7 -9.73473
    endloop
  endfacet
  facet normal -0.866125 0 0.499827
    outer loop
      vertex 10.1419 -0.7 -9.50842
      vertex 10.0113 -2.5 -9.73473
      vertex 10.1419 -2.5 -9.50842
    endloop
  endfacet
  facet normal 0.866026 -0 0.5
    outer loop
      vertex 7.85807 -2.5 -9.50842
      vertex 7.98873 -0.7 -9.73473
      vertex 7.85807 -0.7 -9.50842
    endloop
  endfacet
  facet normal 0.866026 0 0.5
    outer loop
      vertex 7.98873 -0.7 -9.73473
      vertex 7.85807 -2.5 -9.50842
      vertex 7.98873 -2.5 -9.73473
    endloop
  endfacet
  facet normal -0.743085 0 0.669197
    outer loop
      vertex 9.83641 -2.5 -9.92893
      vertex 10.0113 -0.7 -9.73473
      vertex 9.83641 -0.7 -9.92893
    endloop
  endfacet
  facet normal -0.743085 0 0.669197
    outer loop
      vertex 10.0113 -0.7 -9.73473
      vertex 9.83641 -2.5 -9.92893
      vertex 10.0113 -2.5 -9.73473
    endloop
  endfacet
  facet normal 0.208162 0 0.978094
    outer loop
      vertex 8.61373 -0.7 -10.1888
      vertex 8.86934 -2.5 -10.2432
      vertex 8.86934 -0.7 -10.2432
    endloop
  endfacet
  facet normal 0.208162 0 0.978094
    outer loop
      vertex 8.86934 -2.5 -10.2432
      vertex 8.61373 -0.7 -10.1888
      vertex 8.61373 -2.5 -10.1888
    endloop
  endfacet
  facet normal 0.587714 0 0.809069
    outer loop
      vertex 8.16359 -0.7 -9.92893
      vertex 8.375 -2.5 -10.0825
      vertex 8.375 -0.7 -10.0825
    endloop
  endfacet
  facet normal 0.587714 0 0.809069
    outer loop
      vertex 8.375 -2.5 -10.0825
      vertex 8.16359 -0.7 -9.92893
      vertex 8.16359 -2.5 -9.92893
    endloop
  endfacet
  facet normal 0.40677 0 0.91353
    outer loop
      vertex 8.375 -0.7 -10.0825
      vertex 8.61373 -2.5 -10.1888
      vertex 8.61373 -0.7 -10.1888
    endloop
  endfacet
  facet normal 0.40677 0 0.91353
    outer loop
      vertex 8.61373 -2.5 -10.1888
      vertex 8.375 -0.7 -10.0825
      vertex 8.375 -2.5 -10.0825
    endloop
  endfacet
  facet normal -0.99452 0 -0.104545
    outer loop
      vertex -7.75 -2.5 9
      vertex -7.77732 -0.7 9.25989
      vertex -7.75 -0.7 9
    endloop
  endfacet
  facet normal -0.99452 -0 -0.104545
    outer loop
      vertex -7.77732 -0.7 9.25989
      vertex -7.75 -2.5 9
      vertex -7.77732 -2.5 9.25989
    endloop
  endfacet
  facet normal -0.951059 0 -0.309009
    outer loop
      vertex -7.77732 -2.5 9.25989
      vertex -7.85807 -0.7 9.50842
      vertex -7.77732 -0.7 9.25989
    endloop
  endfacet
  facet normal -0.951059 -0 -0.309009
    outer loop
      vertex -7.85807 -0.7 9.50842
      vertex -7.77732 -2.5 9.25989
      vertex -7.85807 -2.5 9.50842
    endloop
  endfacet
  facet normal -0.40677 0 -0.91353
    outer loop
      vertex -8.61373 -2.5 10.1888
      vertex -8.375 -0.7 10.0825
      vertex -8.375 -2.5 10.0825
    endloop
  endfacet
  facet normal -0.40677 0 -0.91353
    outer loop
      vertex -8.375 -0.7 10.0825
      vertex -8.61373 -2.5 10.1888
      vertex -8.61373 -0.7 10.1888
    endloop
  endfacet
  facet normal 0.40677 0 -0.91353
    outer loop
      vertex -9.625 -2.5 10.0825
      vertex -9.38627 -0.7 10.1888
      vertex -9.38627 -2.5 10.1888
    endloop
  endfacet
  facet normal 0.40677 0 -0.91353
    outer loop
      vertex -9.38627 -0.7 10.1888
      vertex -9.625 -2.5 10.0825
      vertex -9.625 -0.7 10.0825
    endloop
  endfacet
  facet normal 0.866125 0 -0.499827
    outer loop
      vertex -10.0113 -2.5 9.73473
      vertex -10.1419 -0.7 9.50842
      vertex -10.0113 -0.7 9.73473
    endloop
  endfacet
  facet normal 0.866125 0 -0.499827
    outer loop
      vertex -10.1419 -0.7 9.50842
      vertex -10.0113 -2.5 9.73473
      vertex -10.1419 -2.5 9.50842
    endloop
  endfacet
  facet normal 0.587714 0 -0.809069
    outer loop
      vertex -9.83641 -2.5 9.92893
      vertex -9.625 -0.7 10.0825
      vertex -9.625 -2.5 10.0825
    endloop
  endfacet
  facet normal 0.587714 0 -0.809069
    outer loop
      vertex -9.625 -0.7 10.0825
      vertex -9.83641 -2.5 9.92893
      vertex -9.83641 -0.7 9.92893
    endloop
  endfacet
  facet normal -0.99452 0 0.104545
    outer loop
      vertex -7.77732 -2.5 8.74011
      vertex -7.75 -0.7 9
      vertex -7.77732 -0.7 8.74011
    endloop
  endfacet
  facet normal -0.99452 0 0.104545
    outer loop
      vertex -7.75 -0.7 9
      vertex -7.77732 -2.5 8.74011
      vertex -7.75 -2.5 9
    endloop
  endfacet
  facet normal -0.207906 0 0.978149
    outer loop
      vertex -8.86934 -0.7 7.75685
      vertex -8.61373 -2.5 7.81118
      vertex -8.61373 -0.7 7.81118
    endloop
  endfacet
  facet normal -0.207906 0 0.978149
    outer loop
      vertex -8.61373 -2.5 7.81118
      vertex -8.86934 -0.7 7.75685
      vertex -8.86934 -2.5 7.75685
    endloop
  endfacet
  facet normal -0.743142 0 -0.669134
    outer loop
      vertex -7.98873 -2.5 9.73473
      vertex -8.16359 -0.7 9.92893
      vertex -7.98873 -0.7 9.73473
    endloop
  endfacet
  facet normal -0.743142 -0 -0.669134
    outer loop
      vertex -8.16359 -0.7 9.92893
      vertex -7.98873 -2.5 9.73473
      vertex -8.16359 -2.5 9.92893
    endloop
  endfacet
  facet normal -0.866026 0 -0.5
    outer loop
      vertex -7.85807 -2.5 9.50842
      vertex -7.98873 -0.7 9.73473
      vertex -7.85807 -0.7 9.50842
    endloop
  endfacet
  facet normal -0.866026 -0 -0.5
    outer loop
      vertex -7.98873 -0.7 9.73473
      vertex -7.85807 -2.5 9.50842
      vertex -7.98873 -2.5 9.73473
    endloop
  endfacet
  facet normal 0 0 -1
    outer loop
      vertex -9.13066 -2.5 10.2432
      vertex -8.86934 -0.7 10.2432
      vertex -8.86934 -2.5 10.2432
    endloop
  endfacet
  facet normal -0 0 -1
    outer loop
      vertex -8.86934 -0.7 10.2432
      vertex -9.13066 -2.5 10.2432
      vertex -9.13066 -0.7 10.2432
    endloop
  endfacet
  facet normal 0.994528 0 -0.10447
    outer loop
      vertex -10.2227 -2.5 9.25989
      vertex -10.25 -0.7 9
      vertex -10.2227 -0.7 9.25989
    endloop
  endfacet
  facet normal 0.994528 0 -0.10447
    outer loop
      vertex -10.25 -0.7 9
      vertex -10.2227 -2.5 9.25989
      vertex -10.25 -2.5 9
    endloop
  endfacet
  facet normal 0.743085 0 -0.669197
    outer loop
      vertex -9.83641 -2.5 9.92893
      vertex -10.0113 -0.7 9.73473
      vertex -9.83641 -0.7 9.92893
    endloop
  endfacet
  facet normal 0.743085 0 -0.669197
    outer loop
      vertex -10.0113 -0.7 9.73473
      vertex -9.83641 -2.5 9.92893
      vertex -10.0113 -2.5 9.73473
    endloop
  endfacet
  facet normal -0.587789 0 0.809014
    outer loop
      vertex -8.375 -0.7 7.91747
      vertex -8.16359 -2.5 8.07107
      vertex -8.16359 -0.7 8.07107
    endloop
  endfacet
  facet normal -0.587789 0 0.809014
    outer loop
      vertex -8.16359 -2.5 8.07107
      vertex -8.375 -0.7 7.91747
      vertex -8.375 -2.5 7.91747
    endloop
  endfacet
  facet normal 0.207906 0 0.978149
    outer loop
      vertex -9.38627 -0.7 7.81118
      vertex -9.13066 -2.5 7.75685
      vertex -9.13066 -0.7 7.75685
    endloop
  endfacet
  facet normal 0.207906 0 0.978149
    outer loop
      vertex -9.13066 -2.5 7.75685
      vertex -9.38627 -0.7 7.81118
      vertex -9.38627 -2.5 7.81118
    endloop
  endfacet
  facet normal -0 0 1
    outer loop
      vertex -9.13066 -0.7 7.75685
      vertex -8.86934 -2.5 7.75685
      vertex -8.86934 -0.7 7.75685
    endloop
  endfacet
  facet normal 0 0 1
    outer loop
      vertex -8.86934 -2.5 7.75685
      vertex -9.13066 -0.7 7.75685
      vertex -9.13066 -2.5 7.75685
    endloop
  endfacet
  facet normal -0.208162 0 -0.978094
    outer loop
      vertex -8.86934 -2.5 10.2432
      vertex -8.61373 -0.7 10.1888
      vertex -8.61373 -2.5 10.1888
    endloop
  endfacet
  facet normal -0.208162 0 -0.978094
    outer loop
      vertex -8.61373 -0.7 10.1888
      vertex -8.86934 -2.5 10.2432
      vertex -8.86934 -0.7 10.2432
    endloop
  endfacet
  facet normal -0.587714 0 -0.809069
    outer loop
      vertex -8.375 -2.5 10.0825
      vertex -8.16359 -0.7 9.92893
      vertex -8.16359 -2.5 9.92893
    endloop
  endfacet
  facet normal -0.587714 0 -0.809069
    outer loop
      vertex -8.16359 -0.7 9.92893
      vertex -8.375 -2.5 10.0825
      vertex -8.375 -0.7 10.0825
    endloop
  endfacet
  facet normal 0.951003 0 -0.309182
    outer loop
      vertex -10.1419 -2.5 9.50842
      vertex -10.2227 -0.7 9.25989
      vertex -10.1419 -0.7 9.50842
    endloop
  endfacet
  facet normal 0.951003 0 -0.309182
    outer loop
      vertex -10.2227 -0.7 9.25989
      vertex -10.1419 -2.5 9.50842
      vertex -10.2227 -2.5 9.25989
    endloop
  endfacet
  facet normal 0.208162 0 -0.978094
    outer loop
      vertex -9.38627 -2.5 10.1888
      vertex -9.13066 -0.7 10.2432
      vertex -9.13066 -2.5 10.2432
    endloop
  endfacet
  facet normal 0.208162 0 -0.978094
    outer loop
      vertex -9.13066 -0.7 10.2432
      vertex -9.38627 -2.5 10.1888
      vertex -9.38627 -0.7 10.1888
    endloop
  endfacet
  facet normal -0.951059 0 0.309009
    outer loop
      vertex -7.85807 -2.5 8.49158
      vertex -7.77732 -0.7 8.74011
      vertex -7.85807 -0.7 8.49158
    endloop
  endfacet
  facet normal -0.951059 0 0.309009
    outer loop
      vertex -7.77732 -0.7 8.74011
      vertex -7.85807 -2.5 8.49158
      vertex -7.77732 -2.5 8.74011
    endloop
  endfacet
  facet normal -0.743142 0 0.669134
    outer loop
      vertex -8.16359 -2.5 8.07107
      vertex -7.98873 -0.7 8.26527
      vertex -8.16359 -0.7 8.07107
    endloop
  endfacet
  facet normal -0.743142 0 0.669134
    outer loop
      vertex -7.98873 -0.7 8.26527
      vertex -8.16359 -2.5 8.07107
      vertex -7.98873 -2.5 8.26527
    endloop
  endfacet
  facet normal 0.994528 -0 0.10447
    outer loop
      vertex -10.25 -2.5 9
      vertex -10.2227 -0.7 8.74011
      vertex -10.25 -0.7 9
    endloop
  endfacet
  facet normal 0.994528 0 0.10447
    outer loop
      vertex -10.2227 -0.7 8.74011
      vertex -10.25 -2.5 9
      vertex -10.2227 -2.5 8.74011
    endloop
  endfacet
  facet normal 0.743085 -0 0.669197
    outer loop
      vertex -10.0113 -2.5 8.26527
      vertex -9.83641 -0.7 8.07107
      vertex -10.0113 -0.7 8.26527
    endloop
  endfacet
  facet normal 0.743085 0 0.669197
    outer loop
      vertex -9.83641 -0.7 8.07107
      vertex -10.0113 -2.5 8.26527
      vertex -9.83641 -2.5 8.07107
    endloop
  endfacet
  facet normal 0.951003 -0 0.309182
    outer loop
      vertex -10.2227 -2.5 8.74011
      vertex -10.1419 -0.7 8.49158
      vertex -10.2227 -0.7 8.74011
    endloop
  endfacet
  facet normal 0.951003 0 0.309182
    outer loop
      vertex -10.1419 -0.7 8.49158
      vertex -10.2227 -2.5 8.74011
      vertex -10.1419 -2.5 8.49158
    endloop
  endfacet
  facet normal 0.866125 -0 0.499827
    outer loop
      vertex -10.1419 -2.5 8.49158
      vertex -10.0113 -0.7 8.26527
      vertex -10.1419 -0.7 8.49158
    endloop
  endfacet
  facet normal 0.866125 0 0.499827
    outer loop
      vertex -10.0113 -0.7 8.26527
      vertex -10.1419 -2.5 8.49158
      vertex -10.0113 -2.5 8.26527
    endloop
  endfacet
  facet normal -0.406738 0 0.913545
    outer loop
      vertex -8.61373 -0.7 7.81118
      vertex -8.375 -2.5 7.91747
      vertex -8.375 -0.7 7.91747
    endloop
  endfacet
  facet normal -0.406738 0 0.913545
    outer loop
      vertex -8.375 -2.5 7.91747
      vertex -8.61373 -0.7 7.81118
      vertex -8.61373 -2.5 7.81118
    endloop
  endfacet
  facet normal -0.866026 0 0.5
    outer loop
      vertex -7.98873 -2.5 8.26527
      vertex -7.85807 -0.7 8.49158
      vertex -7.98873 -0.7 8.26527
    endloop
  endfacet
  facet normal -0.866026 0 0.5
    outer loop
      vertex -7.85807 -0.7 8.49158
      vertex -7.98873 -2.5 8.26527
      vertex -7.85807 -2.5 8.49158
    endloop
  endfacet
  facet normal 0.587789 0 0.809014
    outer loop
      vertex -9.83641 -0.7 8.07107
      vertex -9.625 -2.5 7.91747
      vertex -9.625 -0.7 7.91747
    endloop
  endfacet
  facet normal 0.587789 0 0.809014
    outer loop
      vertex -9.625 -2.5 7.91747
      vertex -9.83641 -0.7 8.07107
      vertex -9.83641 -2.5 8.07107
    endloop
  endfacet
  facet normal 0.406738 0 0.913545
    outer loop
      vertex -9.625 -0.7 7.91747
      vertex -9.38627 -2.5 7.81118
      vertex -9.38627 -0.7 7.81118
    endloop
  endfacet
  facet normal 0.406738 0 0.913545
    outer loop
      vertex -9.38627 -2.5 7.81118
      vertex -9.625 -0.7 7.91747
      vertex -9.625 -2.5 7.91747
    endloop
  endfacet
endsolid OpenSCAD_Model
