solid OpenSCAD_Model
  facet normal -1 0 0
    outer loop
      vertex -13.5 -13.5 -2.5
      vertex -13.5 13.5 2.5
      vertex -13.5 13.5 -2.5
    endloop
  endfacet
  facet normal -1 -0 0
    outer loop
      vertex -13.5 13.5 2.5
      vertex -13.5 -13.5 -2.5
      vertex -13.5 -13.5 2.5
    endloop
  endfacet
  facet normal 0 0 1
    outer loop
      vertex 13.5 13.5 2.5
      vertex 11.6 11.6 2.5
      vertex 13.5 -13.5 2.5
    endloop
  endfacet
  facet normal 0 0 1
    outer loop
      vertex 13.5 13.5 2.5
      vertex -11.6 11.6 2.5
      vertex 11.6 11.6 2.5
    endloop
  endfacet
  facet normal 0 0 1
    outer loop
      vertex -11.6 11.6 2.5
      vertex -13.5 13.5 2.5
      vertex -11.6 -11.6 2.5
    endloop
  endfacet
  facet normal -0 0 1
    outer loop
      vertex -13.5 13.5 2.5
      vertex -11.6 11.6 2.5
      vertex 13.5 13.5 2.5
    endloop
  endfacet
  facet normal -0 0 1
    outer loop
      vertex 11.6 -11.6 2.5
      vertex 13.5 -13.5 2.5
      vertex 11.6 11.6 2.5
    endloop
  endfacet
  facet normal -0 0 1
    outer loop
      vertex -11.6 -11.6 2.5
      vertex 13.5 -13.5 2.5
      vertex 11.6 -11.6 2.5
    endloop
  endfacet
  facet normal 0 0 1
    outer loop
      vertex -11.6 -11.6 2.5
      vertex -13.5 -13.5 2.5
      vertex 13.5 -13.5 2.5
    endloop
  endfacet
  facet normal 0 0 1
    outer loop
      vertex -13.5 -13.5 2.5
      vertex -11.6 -11.6 2.5
      vertex -13.5 13.5 2.5
    endloop
  endfacet
  facet normal 1 -0 0
    outer loop
      vertex 13.5 -13.5 2.5
      vertex 13.5 13.5 -2.5
      vertex 13.5 13.5 2.5
    endloop
  endfacet
  facet normal 1 0 0
    outer loop
      vertex 13.5 13.5 -2.5
      vertex 13.5 -13.5 2.5
      vertex 13.5 -13.5 -2.5
    endloop
  endfacet
  facet normal -0 0 -1
    outer loop
      vertex 8.19098 -0.587785 -2.5
      vertex -8.08645 -8.59326 -2.5
      vertex 8.08645 -0.406736 -2.5
    endloop
  endfacet
  facet normal 0 0 -1
    outer loop
      vertex 8.08645 -0.406736 -2.5
      vertex -8.02185 -0.207911 -2.5
      vertex -8 0 -2.5
    endloop
  endfacet
  facet normal 0 0 -1
    outer loop
      vertex -8.08645 -0.406736 -2.5
      vertex 8.08645 -0.406736 -2.5
      vertex -8.08645 -8.59326 -2.5
    endloop
  endfacet
  facet normal 0 0 -1
    outer loop
      vertex 8.08645 -0.406736 -2.5
      vertex -8.08645 -0.406736 -2.5
      vertex -8.02185 -0.207911 -2.5
    endloop
  endfacet
  facet normal 0 0 -1
    outer loop
      vertex -8.19098 -8.41221 -2.5
      vertex -8.08645 -0.406736 -2.5
      vertex -8.08645 -8.59326 -2.5
    endloop
  endfacet
  facet normal 0 0 -1
    outer loop
      vertex -8.19098 -8.41221 -2.5
      vertex -8.19098 -0.587785 -2.5
      vertex -8.08645 -0.406736 -2.5
    endloop
  endfacet
  facet normal 0 0 -1
    outer loop
      vertex -8.33087 -8.25686 -2.5
      vertex -8.19098 -0.587785 -2.5
      vertex -8.19098 -8.41221 -2.5
    endloop
  endfacet
  facet normal 0 0 -1
    outer loop
      vertex -8.33087 -8.25686 -2.5
      vertex -8.33087 -0.743144 -2.5
      vertex -8.19098 -0.587785 -2.5
    endloop
  endfacet
  facet normal 0 0 -1
    outer loop
      vertex -8.5 -8.13397 -2.5
      vertex -8.33087 -0.743144 -2.5
      vertex -8.33087 -8.25686 -2.5
    endloop
  endfacet
  facet normal 0 0 -1
    outer loop
      vertex -8.5 -8.13397 -2.5
      vertex -8.5 -0.866025 -2.5
      vertex -8.33087 -0.743144 -2.5
    endloop
  endfacet
  facet normal 0 0 -1
    outer loop
      vertex -8.69098 -8.04894 -2.5
      vertex -8.5 -0.866025 -2.5
      vertex -8.5 -8.13397 -2.5
    endloop
  endfacet
  facet normal 0 0 -1
    outer loop
      vertex -8.69098 -8.04894 -2.5
      vertex -8.69098 -0.951056 -2.5
      vertex -8.5 -0.866025 -2.5
    endloop
  endfacet
  facet normal 0 0 -1
    outer loop
      vertex -8.89547 -8.00548 -2.5
      vertex -8.69098 -0.951056 -2.5
      vertex -8.69098 -8.04894 -2.5
    endloop
  endfacet
  facet normal 0 0 -1
    outer loop
      vertex -8.89547 -8.00548 -2.5
      vertex -8.89547 -0.994521 -2.5
      vertex -8.69098 -0.951056 -2.5
    endloop
  endfacet
  facet normal 0 0 -1
    outer loop
      vertex -9.10453 -8.00548 -2.5
      vertex -8.89547 -0.994521 -2.5
      vertex -8.89547 -8.00548 -2.5
    endloop
  endfacet
  facet normal 0 0 -1
    outer loop
      vertex -9.10453 -8.00548 -2.5
      vertex -9.10453 -0.994521 -2.5
      vertex -8.89547 -0.994521 -2.5
    endloop
  endfacet
  facet normal 0 0 -1
    outer loop
      vertex -9.30902 -8.04894 -2.5
      vertex -9.10453 -0.994521 -2.5
      vertex -9.10453 -8.00548 -2.5
    endloop
  endfacet
  facet normal 0 0 -1
    outer loop
      vertex -9.30902 -8.04894 -2.5
      vertex -9.30902 -0.951056 -2.5
      vertex -9.10453 -0.994521 -2.5
    endloop
  endfacet
  facet normal 0 0 -1
    outer loop
      vertex -9.5 -8.13397 -2.5
      vertex -9.30902 -0.951056 -2.5
      vertex -9.30902 -8.04894 -2.5
    endloop
  endfacet
  facet normal 0 0 -1
    outer loop
      vertex -9.5 -8.13397 -2.5
      vertex -9.5 -0.866025 -2.5
      vertex -9.30902 -0.951056 -2.5
    endloop
  endfacet
  facet normal 0 0 -1
    outer loop
      vertex -9.66913 -8.25686 -2.5
      vertex -9.5 -0.866025 -2.5
      vertex -9.5 -8.13397 -2.5
    endloop
  endfacet
  facet normal 0 0 -1
    outer loop
      vertex -9.66913 -8.25686 -2.5
      vertex -9.66913 -0.743144 -2.5
      vertex -9.5 -0.866025 -2.5
    endloop
  endfacet
  facet normal 0 0 -1
    outer loop
      vertex -9.80902 -8.41221 -2.5
      vertex -9.66913 -0.743144 -2.5
      vertex -9.66913 -8.25686 -2.5
    endloop
  endfacet
  facet normal 0 0 -1
    outer loop
      vertex -9.80902 -8.41221 -2.5
      vertex -9.80902 -0.587785 -2.5
      vertex -9.66913 -0.743144 -2.5
    endloop
  endfacet
  facet normal 0 0 -1
    outer loop
      vertex -9.91354 -8.59326 -2.5
      vertex -9.80902 -0.587785 -2.5
      vertex -9.80902 -8.41221 -2.5
    endloop
  endfacet
  facet normal 0 0 -1
    outer loop
      vertex -9.91354 -8.59326 -2.5
      vertex -9.91354 -0.406736 -2.5
      vertex -9.80902 -0.587785 -2.5
    endloop
  endfacet
  facet normal 0 0 -1
    outer loop
      vertex -13.5 -13.5 -2.5
      vertex -9.91354 -8.59326 -2.5
      vertex -9.97815 -8.79209 -2.5
    endloop
  endfacet
  facet normal -0 0 -1
    outer loop
      vertex -9.91354 -8.59326 -2.5
      vertex -13.5 -13.5 -2.5
      vertex -9.91354 -0.406736 -2.5
    endloop
  endfacet
  facet normal 0 0 -1
    outer loop
      vertex -13.5 -13.5 -2.5
      vertex -9.97815 -8.79209 -2.5
      vertex -10 -9 -2.5
    endloop
  endfacet
  facet normal -0 0 -1
    outer loop
      vertex -9.91354 -0.406736 -2.5
      vertex -13.5 -13.5 -2.5
      vertex -9.97815 -0.207911 -2.5
    endloop
  endfacet
  facet normal 0 0 -1
    outer loop
      vertex 9.91354 0.406736 -2.5
      vertex 13.5 13.5 -2.5
      vertex 9.97815 0.207911 -2.5
    endloop
  endfacet
  facet normal 0 0 -1
    outer loop
      vertex 13.5 13.5 -2.5
      vertex 9.97815 8.79209 -2.5
      vertex 10 9 -2.5
    endloop
  endfacet
  facet normal 0 0 -1
    outer loop
      vertex 9.91354 8.59326 -2.5
      vertex 13.5 13.5 -2.5
      vertex 9.91354 0.406736 -2.5
    endloop
  endfacet
  facet normal 0 0 -1
    outer loop
      vertex 13.5 13.5 -2.5
      vertex 9.91354 8.59326 -2.5
      vertex 9.97815 8.79209 -2.5
    endloop
  endfacet
  facet normal 0 0 -1
    outer loop
      vertex 9.80902 0.587785 -2.5
      vertex 9.91354 8.59326 -2.5
      vertex 9.91354 0.406736 -2.5
    endloop
  endfacet
  facet normal 0 0 -1
    outer loop
      vertex 9.80902 0.587785 -2.5
      vertex 9.80902 8.41221 -2.5
      vertex 9.91354 8.59326 -2.5
    endloop
  endfacet
  facet normal 0 0 -1
    outer loop
      vertex 9.66913 0.743144 -2.5
      vertex 9.80902 8.41221 -2.5
      vertex 9.80902 0.587785 -2.5
    endloop
  endfacet
  facet normal 0 0 -1
    outer loop
      vertex 9.66913 0.743144 -2.5
      vertex 9.66913 8.25686 -2.5
      vertex 9.80902 8.41221 -2.5
    endloop
  endfacet
  facet normal 0 0 -1
    outer loop
      vertex 9.5 0.866025 -2.5
      vertex 9.66913 8.25686 -2.5
      vertex 9.66913 0.743144 -2.5
    endloop
  endfacet
  facet normal 0 0 -1
    outer loop
      vertex 9.5 0.866025 -2.5
      vertex 9.5 8.13397 -2.5
      vertex 9.66913 8.25686 -2.5
    endloop
  endfacet
  facet normal 0 0 -1
    outer loop
      vertex 9.30902 0.951056 -2.5
      vertex 9.5 8.13397 -2.5
      vertex 9.5 0.866025 -2.5
    endloop
  endfacet
  facet normal 0 0 -1
    outer loop
      vertex 9.30902 0.951056 -2.5
      vertex 9.30902 8.04894 -2.5
      vertex 9.5 8.13397 -2.5
    endloop
  endfacet
  facet normal 0 0 -1
    outer loop
      vertex 9.10453 0.994521 -2.5
      vertex 9.30902 8.04894 -2.5
      vertex 9.30902 0.951056 -2.5
    endloop
  endfacet
  facet normal 0 0 -1
    outer loop
      vertex 9.10453 0.994521 -2.5
      vertex 9.10453 8.00548 -2.5
      vertex 9.30902 8.04894 -2.5
    endloop
  endfacet
  facet normal 0 0 -1
    outer loop
      vertex 8.89547 0.994521 -2.5
      vertex 9.10453 8.00548 -2.5
      vertex 9.10453 0.994521 -2.5
    endloop
  endfacet
  facet normal 0 0 -1
    outer loop
      vertex 8.89547 0.994521 -2.5
      vertex 8.89547 8.00548 -2.5
      vertex 9.10453 8.00548 -2.5
    endloop
  endfacet
  facet normal 0 0 -1
    outer loop
      vertex 8.69098 0.951056 -2.5
      vertex 8.89547 8.00548 -2.5
      vertex 8.89547 0.994521 -2.5
    endloop
  endfacet
  facet normal 0 0 -1
    outer loop
      vertex 8.69098 0.951056 -2.5
      vertex 8.69098 8.04894 -2.5
      vertex 8.89547 8.00548 -2.5
    endloop
  endfacet
  facet normal 0 0 -1
    outer loop
      vertex 8.5 0.866025 -2.5
      vertex 8.69098 8.04894 -2.5
      vertex 8.69098 0.951056 -2.5
    endloop
  endfacet
  facet normal 0 0 -1
    outer loop
      vertex 8.5 0.866025 -2.5
      vertex 8.5 8.13397 -2.5
      vertex 8.69098 8.04894 -2.5
    endloop
  endfacet
  facet normal 0 0 -1
    outer loop
      vertex 8.33087 0.743144 -2.5
      vertex 8.5 8.13397 -2.5
      vertex 8.5 0.866025 -2.5
    endloop
  endfacet
  facet normal 0 0 -1
    outer loop
      vertex 8.33087 0.743144 -2.5
      vertex 8.33087 8.25686 -2.5
      vertex 8.5 8.13397 -2.5
    endloop
  endfacet
  facet normal 0 0 -1
    outer loop
      vertex 8.19098 0.587785 -2.5
      vertex 8.33087 8.25686 -2.5
      vertex 8.33087 0.743144 -2.5
    endloop
  endfacet
  facet normal 0 0 -1
    outer loop
      vertex 8.19098 0.587785 -2.5
      vertex 8.19098 8.41221 -2.5
      vertex 8.33087 8.25686 -2.5
    endloop
  endfacet
  facet normal 0 0 -1
    outer loop
      vertex 8.08645 0.406736 -2.5
      vertex 8.19098 8.41221 -2.5
      vertex 8.19098 0.587785 -2.5
    endloop
  endfacet
  facet normal 0 0 -1
    outer loop
      vertex 8.08645 0.406736 -2.5
      vertex 8.08645 8.59326 -2.5
      vertex 8.19098 8.41221 -2.5
    endloop
  endfacet
  facet normal 0 0 -1
    outer loop
      vertex -8.08645 0.406736 -2.5
      vertex 8.08645 0.406736 -2.5
      vertex 8.02185 0.207911 -2.5
    endloop
  endfacet
  facet normal 0 0 -1
    outer loop
      vertex 8.08645 0.406736 -2.5
      vertex -8.08645 0.406736 -2.5
      vertex 8.08645 8.59326 -2.5
    endloop
  endfacet
  facet normal 0 0 -1
    outer loop
      vertex -8.02185 0.207911 -2.5
      vertex 8.02185 0.207911 -2.5
      vertex 8 0 -2.5
    endloop
  endfacet
  facet normal 0 0 -1
    outer loop
      vertex -8.19098 0.587785 -2.5
      vertex 8.08645 8.59326 -2.5
      vertex -8.08645 0.406736 -2.5
    endloop
  endfacet
  facet normal 0 0 -1
    outer loop
      vertex 13.5 -13.5 -2.5
      vertex 10 0 -2.5
      vertex 13.5 13.5 -2.5
    endloop
  endfacet
  facet normal 0 0 -1
    outer loop
      vertex 13.5 -13.5 -2.5
      vertex 9.97815 -0.207911 -2.5
      vertex 10 0 -2.5
    endloop
  endfacet
  facet normal 0 0 -1
    outer loop
      vertex 13.5 -13.5 -2.5
      vertex 9.91354 -0.406736 -2.5
      vertex 9.97815 -0.207911 -2.5
    endloop
  endfacet
  facet normal 0 0 -1
    outer loop
      vertex 13.5 -13.5 -2.5
      vertex 9.80902 -0.587785 -2.5
      vertex 9.91354 -0.406736 -2.5
    endloop
  endfacet
  facet normal 0 0 -1
    outer loop
      vertex 13.5 -13.5 -2.5
      vertex 9.66913 -0.743144 -2.5
      vertex 9.80902 -0.587785 -2.5
    endloop
  endfacet
  facet normal 0 0 -1
    outer loop
      vertex 13.5 -13.5 -2.5
      vertex 9.5 -0.866025 -2.5
      vertex 9.66913 -0.743144 -2.5
    endloop
  endfacet
  facet normal 0 0 -1
    outer loop
      vertex 13.5 -13.5 -2.5
      vertex 9.30902 -0.951056 -2.5
      vertex 9.5 -0.866025 -2.5
    endloop
  endfacet
  facet normal 0 0 -1
    outer loop
      vertex 13.5 -13.5 -2.5
      vertex 9.10453 -0.994521 -2.5
      vertex 9.30902 -0.951056 -2.5
    endloop
  endfacet
  facet normal 0 0 -1
    outer loop
      vertex 13.5 -13.5 -2.5
      vertex 8.89547 -0.994521 -2.5
      vertex 9.10453 -0.994521 -2.5
    endloop
  endfacet
  facet normal 0 0 -1
    outer loop
      vertex 13.5 -13.5 -2.5
      vertex 8.69098 -0.951056 -2.5
      vertex 8.89547 -0.994521 -2.5
    endloop
  endfacet
  facet normal 0 0 -1
    outer loop
      vertex 13.5 -13.5 -2.5
      vertex 8.5 -0.866025 -2.5
      vertex 8.69098 -0.951056 -2.5
    endloop
  endfacet
  facet normal 0 0 -1
    outer loop
      vertex -8.02185 -9.20791 -2.5
      vertex 8.5 -0.866025 -2.5
      vertex 13.5 -13.5 -2.5
    endloop
  endfacet
  facet normal -0 0 -1
    outer loop
      vertex 8.5 -0.866025 -2.5
      vertex -8 -9 -2.5
      vertex 8.33087 -0.743144 -2.5
    endloop
  endfacet
  facet normal 0 0 -1
    outer loop
      vertex -8.02185 -8.79209 -2.5
      vertex 8.33087 -0.743144 -2.5
      vertex -8 -9 -2.5
    endloop
  endfacet
  facet normal 0 0 -1
    outer loop
      vertex 8.02185 -0.207911 -2.5
      vertex -8 0 -2.5
      vertex 8 0 -2.5
    endloop
  endfacet
  facet normal 0 0 -1
    outer loop
      vertex 8.08645 -0.406736 -2.5
      vertex -8 0 -2.5
      vertex 8.02185 -0.207911 -2.5
    endloop
  endfacet
  facet normal 0 0 -1
    outer loop
      vertex -8.08645 -8.59326 -2.5
      vertex 8.19098 -0.587785 -2.5
      vertex -8.02185 -8.79209 -2.5
    endloop
  endfacet
  facet normal -0 0 -1
    outer loop
      vertex 8.33087 -0.743144 -2.5
      vertex -8.02185 -8.79209 -2.5
      vertex 8.19098 -0.587785 -2.5
    endloop
  endfacet
  facet normal 0 0 -1
    outer loop
      vertex 8.5 -0.866025 -2.5
      vertex -8.02185 -9.20791 -2.5
      vertex -8 -9 -2.5
    endloop
  endfacet
  facet normal 0 0 -1
    outer loop
      vertex 13.5 -13.5 -2.5
      vertex -8.08645 -9.40674 -2.5
      vertex -8.02185 -9.20791 -2.5
    endloop
  endfacet
  facet normal 0 0 -1
    outer loop
      vertex 13.5 -13.5 -2.5
      vertex -8.19098 -9.58778 -2.5
      vertex -8.08645 -9.40674 -2.5
    endloop
  endfacet
  facet normal 0 0 -1
    outer loop
      vertex 13.5 -13.5 -2.5
      vertex -8.33087 -9.74314 -2.5
      vertex -8.19098 -9.58778 -2.5
    endloop
  endfacet
  facet normal 0 0 -1
    outer loop
      vertex 13.5 -13.5 -2.5
      vertex -8.5 -9.86602 -2.5
      vertex -8.33087 -9.74314 -2.5
    endloop
  endfacet
  facet normal 0 0 -1
    outer loop
      vertex -13.5 -13.5 -2.5
      vertex -8.5 -9.86602 -2.5
      vertex 13.5 -13.5 -2.5
    endloop
  endfacet
  facet normal 0 0 -1
    outer loop
      vertex -8.5 -9.86602 -2.5
      vertex -13.5 -13.5 -2.5
      vertex -8.69098 -9.95106 -2.5
    endloop
  endfacet
  facet normal 0 0 -1
    outer loop
      vertex -8.69098 -9.95106 -2.5
      vertex -13.5 -13.5 -2.5
      vertex -8.89547 -9.99452 -2.5
    endloop
  endfacet
  facet normal -0 0 -1
    outer loop
      vertex -9.97815 -0.207911 -2.5
      vertex -13.5 -13.5 -2.5
      vertex -10 0 -2.5
    endloop
  endfacet
  facet normal -0 0 -1
    outer loop
      vertex -9.97815 -9.20791 -2.5
      vertex -13.5 -13.5 -2.5
      vertex -10 -9 -2.5
    endloop
  endfacet
  facet normal -0 0 -1
    outer loop
      vertex -9.91354 -9.40674 -2.5
      vertex -13.5 -13.5 -2.5
      vertex -9.97815 -9.20791 -2.5
    endloop
  endfacet
  facet normal -0 0 -1
    outer loop
      vertex -9.80902 -9.58778 -2.5
      vertex -13.5 -13.5 -2.5
      vertex -9.91354 -9.40674 -2.5
    endloop
  endfacet
  facet normal -0 0 -1
    outer loop
      vertex -9.66913 -9.74314 -2.5
      vertex -13.5 -13.5 -2.5
      vertex -9.80902 -9.58778 -2.5
    endloop
  endfacet
  facet normal -0 0 -1
    outer loop
      vertex -9.5 -9.86602 -2.5
      vertex -13.5 -13.5 -2.5
      vertex -9.66913 -9.74314 -2.5
    endloop
  endfacet
  facet normal -0 0 -1
    outer loop
      vertex -9.30902 -9.95106 -2.5
      vertex -13.5 -13.5 -2.5
      vertex -9.5 -9.86602 -2.5
    endloop
  endfacet
  facet normal -0 0 -1
    outer loop
      vertex -9.10453 -9.99452 -2.5
      vertex -13.5 -13.5 -2.5
      vertex -9.30902 -9.95106 -2.5
    endloop
  endfacet
  facet normal -0 0 -1
    outer loop
      vertex -8.89547 -9.99452 -2.5
      vertex -13.5 -13.5 -2.5
      vertex -9.10453 -9.99452 -2.5
    endloop
  endfacet
  facet normal 0 0 -1
    outer loop
      vertex 9.97815 0.207911 -2.5
      vertex 13.5 13.5 -2.5
      vertex 10 0 -2.5
    endloop
  endfacet
  facet normal 0 0 -1
    outer loop
      vertex 9.97815 9.20791 -2.5
      vertex 13.5 13.5 -2.5
      vertex 10 9 -2.5
    endloop
  endfacet
  facet normal 0 0 -1
    outer loop
      vertex 9.91354 9.40674 -2.5
      vertex 13.5 13.5 -2.5
      vertex 9.97815 9.20791 -2.5
    endloop
  endfacet
  facet normal 0 0 -1
    outer loop
      vertex 9.80902 9.58778 -2.5
      vertex 13.5 13.5 -2.5
      vertex 9.91354 9.40674 -2.5
    endloop
  endfacet
  facet normal 0 0 -1
    outer loop
      vertex 9.66913 9.74314 -2.5
      vertex 13.5 13.5 -2.5
      vertex 9.80902 9.58778 -2.5
    endloop
  endfacet
  facet normal 0 0 -1
    outer loop
      vertex 9.5 9.86602 -2.5
      vertex 13.5 13.5 -2.5
      vertex 9.66913 9.74314 -2.5
    endloop
  endfacet
  facet normal 0 0 -1
    outer loop
      vertex 9.30902 9.95106 -2.5
      vertex 13.5 13.5 -2.5
      vertex 9.5 9.86602 -2.5
    endloop
  endfacet
  facet normal 0 0 -1
    outer loop
      vertex 9.10453 9.99452 -2.5
      vertex 13.5 13.5 -2.5
      vertex 9.30902 9.95106 -2.5
    endloop
  endfacet
  facet normal 0 0 -1
    outer loop
      vertex 8.89547 9.99452 -2.5
      vertex 13.5 13.5 -2.5
      vertex 9.10453 9.99452 -2.5
    endloop
  endfacet
  facet normal 0 0 -1
    outer loop
      vertex 8.69098 9.95106 -2.5
      vertex 13.5 13.5 -2.5
      vertex 8.89547 9.99452 -2.5
    endloop
  endfacet
  facet normal 0 0 -1
    outer loop
      vertex 8.5 9.86602 -2.5
      vertex 13.5 13.5 -2.5
      vertex 8.69098 9.95106 -2.5
    endloop
  endfacet
  facet normal 0 0 -1
    outer loop
      vertex -13.5 13.5 -2.5
      vertex 8.5 9.86602 -2.5
      vertex 8.33087 9.74314 -2.5
    endloop
  endfacet
  facet normal 0 0 -1
    outer loop
      vertex -8.02185 0.207911 -2.5
      vertex 8 0 -2.5
      vertex -8 0 -2.5
    endloop
  endfacet
  facet normal 0 0 -1
    outer loop
      vertex 8.02185 0.207911 -2.5
      vertex -8.02185 0.207911 -2.5
      vertex -8.08645 0.406736 -2.5
    endloop
  endfacet
  facet normal -0 0 -1
    outer loop
      vertex 8.08645 8.59326 -2.5
      vertex -8.19098 0.587785 -2.5
      vertex 8.02185 8.79209 -2.5
    endloop
  endfacet
  facet normal 0 0 -1
    outer loop
      vertex -8.33087 0.743144 -2.5
      vertex 8.02185 8.79209 -2.5
      vertex -8.19098 0.587785 -2.5
    endloop
  endfacet
  facet normal -0 0 -1
    outer loop
      vertex 8.02185 8.79209 -2.5
      vertex -8.33087 0.743144 -2.5
      vertex 8 9 -2.5
    endloop
  endfacet
  facet normal 0 0 -1
    outer loop
      vertex -8.5 0.866025 -2.5
      vertex 8 9 -2.5
      vertex -8.33087 0.743144 -2.5
    endloop
  endfacet
  facet normal -0 0 -1
    outer loop
      vertex 8 9 -2.5
      vertex -8.5 0.866025 -2.5
      vertex 8.02185 9.20791 -2.5
    endloop
  endfacet
  facet normal 0 0 -1
    outer loop
      vertex -13.5 13.5 -2.5
      vertex 8.02185 9.20791 -2.5
      vertex -8.5 0.866025 -2.5
    endloop
  endfacet
  facet normal 0 0 -1
    outer loop
      vertex 8.02185 9.20791 -2.5
      vertex -13.5 13.5 -2.5
      vertex 8.08645 9.40674 -2.5
    endloop
  endfacet
  facet normal 0 0 -1
    outer loop
      vertex 8.08645 9.40674 -2.5
      vertex -13.5 13.5 -2.5
      vertex 8.19098 9.58778 -2.5
    endloop
  endfacet
  facet normal 0 0 -1
    outer loop
      vertex 8.19098 9.58778 -2.5
      vertex -13.5 13.5 -2.5
      vertex 8.33087 9.74314 -2.5
    endloop
  endfacet
  facet normal 0 0 -1
    outer loop
      vertex -13.5 13.5 -2.5
      vertex -8.5 0.866025 -2.5
      vertex -8.69098 0.951056 -2.5
    endloop
  endfacet
  facet normal 0 0 -1
    outer loop
      vertex -13.5 13.5 -2.5
      vertex -8.69098 0.951056 -2.5
      vertex -8.89547 0.994521 -2.5
    endloop
  endfacet
  facet normal 0 0 -1
    outer loop
      vertex -13.5 13.5 -2.5
      vertex -8.89547 0.994521 -2.5
      vertex -9.10453 0.994521 -2.5
    endloop
  endfacet
  facet normal 0 0 -1
    outer loop
      vertex -13.5 13.5 -2.5
      vertex -9.10453 0.994521 -2.5
      vertex -9.30902 0.951056 -2.5
    endloop
  endfacet
  facet normal 0 0 -1
    outer loop
      vertex -13.5 13.5 -2.5
      vertex -9.30902 0.951056 -2.5
      vertex -9.5 0.866025 -2.5
    endloop
  endfacet
  facet normal 0 0 -1
    outer loop
      vertex -13.5 13.5 -2.5
      vertex -10 0 -2.5
      vertex -13.5 -13.5 -2.5
    endloop
  endfacet
  facet normal 0 0 -1
    outer loop
      vertex 8.5 9.86602 -2.5
      vertex -13.5 13.5 -2.5
      vertex 13.5 13.5 -2.5
    endloop
  endfacet
  facet normal 0 0 -1
    outer loop
      vertex -9.66913 0.743144 -2.5
      vertex -13.5 13.5 -2.5
      vertex -9.5 0.866025 -2.5
    endloop
  endfacet
  facet normal 0 0 -1
    outer loop
      vertex -9.80902 0.587785 -2.5
      vertex -13.5 13.5 -2.5
      vertex -9.66913 0.743144 -2.5
    endloop
  endfacet
  facet normal 0 0 -1
    outer loop
      vertex -9.91354 0.406736 -2.5
      vertex -13.5 13.5 -2.5
      vertex -9.80902 0.587785 -2.5
    endloop
  endfacet
  facet normal 0 0 -1
    outer loop
      vertex -9.97815 0.207911 -2.5
      vertex -13.5 13.5 -2.5
      vertex -9.91354 0.406736 -2.5
    endloop
  endfacet
  facet normal 0 0 -1
    outer loop
      vertex -10 0 -2.5
      vertex -13.5 13.5 -2.5
      vertex -9.97815 0.207911 -2.5
    endloop
  endfacet
  facet normal 0 -1 0
    outer loop
      vertex -13.5 -13.5 -2.5
      vertex 13.5 -13.5 2.5
      vertex -13.5 -13.5 2.5
    endloop
  endfacet
  facet normal 0 -1 -0
    outer loop
      vertex 13.5 -13.5 2.5
      vertex -13.5 -13.5 -2.5
      vertex 13.5 -13.5 -2.5
    endloop
  endfacet
  facet normal 0 1 -0
    outer loop
      vertex 13.5 13.5 -2.5
      vertex -13.5 13.5 2.5
      vertex 13.5 13.5 2.5
    endloop
  endfacet
  facet normal 0 1 0
    outer loop
      vertex -13.5 13.5 2.5
      vertex 13.5 13.5 -2.5
      vertex -13.5 13.5 -2.5
    endloop
  endfacet
  facet normal 1 -0 0
    outer loop
      vertex -11.6 -11.6 2.5
      vertex -11.6 11.6 0.5
      vertex -11.6 11.6 2.5
    endloop
  endfacet
  facet normal 1 0 0
    outer loop
      vertex -11.6 11.6 0.5
      vertex -11.6 -11.6 2.5
      vertex -11.6 -11.6 0.5
    endloop
  endfacet
  facet normal -1 0 0
    outer loop
      vertex 11.6 -11.6 0.5
      vertex 11.6 11.6 2.5
      vertex 11.6 11.6 0.5
    endloop
  endfacet
  facet normal -1 -0 0
    outer loop
      vertex 11.6 11.6 2.5
      vertex 11.6 -11.6 0.5
      vertex 11.6 -11.6 2.5
    endloop
  endfacet
  facet normal 0 -1 0
    outer loop
      vertex -11.6 11.6 0.5
      vertex 11.6 11.6 2.5
      vertex -11.6 11.6 2.5
    endloop
  endfacet
  facet normal 0 -1 -0
    outer loop
      vertex 11.6 11.6 2.5
      vertex -11.6 11.6 0.5
      vertex 11.6 11.6 0.5
    endloop
  endfacet
  facet normal 0 0 1
    outer loop
      vertex -8.08645 -0.406736 0.5
      vertex 8.08645 -0.406736 0.5
      vertex -8.02185 -0.207911 0.5
    endloop
  endfacet
  facet normal 0 0 1
    outer loop
      vertex 8.08645 -0.406736 0.5
      vertex -8.02185 -8.79209 0.5
      vertex -8 -9 0.5
    endloop
  endfacet
  facet normal 0 0 1
    outer loop
      vertex -8.08645 -8.59326 0.5
      vertex 8.08645 -0.406736 0.5
      vertex -8.08645 -0.406736 0.5
    endloop
  endfacet
  facet normal 0 0 1
    outer loop
      vertex 8.08645 -0.406736 0.5
      vertex -8.08645 -8.59326 0.5
      vertex -8.02185 -8.79209 0.5
    endloop
  endfacet
  facet normal -0 0 1
    outer loop
      vertex -8.19098 -0.587785 0.5
      vertex -8.08645 -8.59326 0.5
      vertex -8.08645 -0.406736 0.5
    endloop
  endfacet
  facet normal 0 0 1
    outer loop
      vertex -8.19098 -0.587785 0.5
      vertex -8.19098 -8.41221 0.5
      vertex -8.08645 -8.59326 0.5
    endloop
  endfacet
  facet normal -0 0 1
    outer loop
      vertex -8.33087 -0.743144 0.5
      vertex -8.19098 -8.41221 0.5
      vertex -8.19098 -0.587785 0.5
    endloop
  endfacet
  facet normal 0 0 1
    outer loop
      vertex -8.33087 -0.743144 0.5
      vertex -8.33087 -8.25686 0.5
      vertex -8.19098 -8.41221 0.5
    endloop
  endfacet
  facet normal -0 0 1
    outer loop
      vertex -8.5 -0.866025 0.5
      vertex -8.33087 -8.25686 0.5
      vertex -8.33087 -0.743144 0.5
    endloop
  endfacet
  facet normal 0 0 1
    outer loop
      vertex -8.5 -0.866025 0.5
      vertex -8.5 -8.13397 0.5
      vertex -8.33087 -8.25686 0.5
    endloop
  endfacet
  facet normal -0 0 1
    outer loop
      vertex -8.69098 -0.951056 0.5
      vertex -8.5 -8.13397 0.5
      vertex -8.5 -0.866025 0.5
    endloop
  endfacet
  facet normal 0 0 1
    outer loop
      vertex -8.69098 -0.951056 0.5
      vertex -8.69098 -8.04894 0.5
      vertex -8.5 -8.13397 0.5
    endloop
  endfacet
  facet normal -0 0 1
    outer loop
      vertex -8.89547 -0.994521 0.5
      vertex -8.69098 -8.04894 0.5
      vertex -8.69098 -0.951056 0.5
    endloop
  endfacet
  facet normal 0 0 1
    outer loop
      vertex -8.89547 -0.994521 0.5
      vertex -8.89547 -8.00548 0.5
      vertex -8.69098 -8.04894 0.5
    endloop
  endfacet
  facet normal -0 0 1
    outer loop
      vertex -9.10453 -0.994521 0.5
      vertex -8.89547 -8.00548 0.5
      vertex -8.89547 -0.994521 0.5
    endloop
  endfacet
  facet normal 0 0 1
    outer loop
      vertex -9.10453 -0.994521 0.5
      vertex -9.10453 -8.00548 0.5
      vertex -8.89547 -8.00548 0.5
    endloop
  endfacet
  facet normal 0 0 1
    outer loop
      vertex -9.30902 -0.951056 0.5
      vertex -9.10453 -8.00548 0.5
      vertex -9.10453 -0.994521 0.5
    endloop
  endfacet
  facet normal 0 0 1
    outer loop
      vertex -9.30902 -0.951056 0.5
      vertex -9.30902 -8.04894 0.5
      vertex -9.10453 -8.00548 0.5
    endloop
  endfacet
  facet normal 0 0 1
    outer loop
      vertex -9.5 -0.866025 0.5
      vertex -9.30902 -8.04894 0.5
      vertex -9.30902 -0.951056 0.5
    endloop
  endfacet
  facet normal 0 0 1
    outer loop
      vertex -9.5 -0.866025 0.5
      vertex -9.5 -8.13397 0.5
      vertex -9.30902 -8.04894 0.5
    endloop
  endfacet
  facet normal 0 0 1
    outer loop
      vertex -9.66913 -0.743144 0.5
      vertex -9.5 -8.13397 0.5
      vertex -9.5 -0.866025 0.5
    endloop
  endfacet
  facet normal 0 0 1
    outer loop
      vertex -9.66913 -0.743144 0.5
      vertex -9.66913 -8.25686 0.5
      vertex -9.5 -8.13397 0.5
    endloop
  endfacet
  facet normal 0 0 1
    outer loop
      vertex -9.80902 -0.587785 0.5
      vertex -9.66913 -8.25686 0.5
      vertex -9.66913 -0.743144 0.5
    endloop
  endfacet
  facet normal 0 0 1
    outer loop
      vertex -9.80902 -0.587785 0.5
      vertex -9.80902 -8.41221 0.5
      vertex -9.66913 -8.25686 0.5
    endloop
  endfacet
  facet normal 0 0 1
    outer loop
      vertex -9.91354 -0.406736 0.5
      vertex -9.80902 -8.41221 0.5
      vertex -9.80902 -0.587785 0.5
    endloop
  endfacet
  facet normal 0 0 1
    outer loop
      vertex -9.91354 -0.406736 0.5
      vertex -9.91354 -8.59326 0.5
      vertex -9.80902 -8.41221 0.5
    endloop
  endfacet
  facet normal 0 0 1
    outer loop
      vertex -11.6 -11.6 0.5
      vertex -9.91354 -0.406736 0.5
      vertex -9.97815 -0.207911 0.5
    endloop
  endfacet
  facet normal 0 0 1
    outer loop
      vertex -9.91354 -0.406736 0.5
      vertex -11.6 -11.6 0.5
      vertex -9.91354 -8.59326 0.5
    endloop
  endfacet
  facet normal 0 0 1
    outer loop
      vertex -11.6 -11.6 0.5
      vertex -9.97815 -0.207911 0.5
      vertex -10 0 0.5
    endloop
  endfacet
  facet normal 0 0 1
    outer loop
      vertex -9.91354 -8.59326 0.5
      vertex -11.6 -11.6 0.5
      vertex -9.97815 -8.79209 0.5
    endloop
  endfacet
  facet normal 0 0 1
    outer loop
      vertex 9.91354 8.59326 0.5
      vertex 11.6 11.6 0.5
      vertex 9.97815 8.79209 0.5
    endloop
  endfacet
  facet normal 0 0 1
    outer loop
      vertex 11.6 11.6 0.5
      vertex 9.97815 0.207911 0.5
      vertex 10 0 0.5
    endloop
  endfacet
  facet normal 0 0 1
    outer loop
      vertex 9.91354 0.406736 0.5
      vertex 11.6 11.6 0.5
      vertex 9.91354 8.59326 0.5
    endloop
  endfacet
  facet normal 0 0 1
    outer loop
      vertex 11.6 11.6 0.5
      vertex 9.91354 0.406736 0.5
      vertex 9.97815 0.207911 0.5
    endloop
  endfacet
  facet normal -0 0 1
    outer loop
      vertex 9.80902 8.41221 0.5
      vertex 9.91354 0.406736 0.5
      vertex 9.91354 8.59326 0.5
    endloop
  endfacet
  facet normal 0 0 1
    outer loop
      vertex 9.80902 8.41221 0.5
      vertex 9.80902 0.587785 0.5
      vertex 9.91354 0.406736 0.5
    endloop
  endfacet
  facet normal -0 0 1
    outer loop
      vertex 9.66913 8.25686 0.5
      vertex 9.80902 0.587785 0.5
      vertex 9.80902 8.41221 0.5
    endloop
  endfacet
  facet normal 0 0 1
    outer loop
      vertex 9.66913 8.25686 0.5
      vertex 9.66913 0.743144 0.5
      vertex 9.80902 0.587785 0.5
    endloop
  endfacet
  facet normal -0 0 1
    outer loop
      vertex 9.5 8.13397 0.5
      vertex 9.66913 0.743144 0.5
      vertex 9.66913 8.25686 0.5
    endloop
  endfacet
  facet normal 0 0 1
    outer loop
      vertex 9.5 8.13397 0.5
      vertex 9.5 0.866025 0.5
      vertex 9.66913 0.743144 0.5
    endloop
  endfacet
  facet normal -0 0 1
    outer loop
      vertex 9.30902 8.04894 0.5
      vertex 9.5 0.866025 0.5
      vertex 9.5 8.13397 0.5
    endloop
  endfacet
  facet normal 0 0 1
    outer loop
      vertex 9.30902 8.04894 0.5
      vertex 9.30902 0.951056 0.5
      vertex 9.5 0.866025 0.5
    endloop
  endfacet
  facet normal -0 0 1
    outer loop
      vertex 9.10453 8.00548 0.5
      vertex 9.30902 0.951056 0.5
      vertex 9.30902 8.04894 0.5
    endloop
  endfacet
  facet normal 0 0 1
    outer loop
      vertex 9.10453 8.00548 0.5
      vertex 9.10453 0.994521 0.5
      vertex 9.30902 0.951056 0.5
    endloop
  endfacet
  facet normal -0 0 1
    outer loop
      vertex 8.89547 8.00548 0.5
      vertex 9.10453 0.994521 0.5
      vertex 9.10453 8.00548 0.5
    endloop
  endfacet
  facet normal 0 0 1
    outer loop
      vertex 8.89547 8.00548 0.5
      vertex 8.89547 0.994521 0.5
      vertex 9.10453 0.994521 0.5
    endloop
  endfacet
  facet normal 0 0 1
    outer loop
      vertex 8.69098 8.04894 0.5
      vertex 8.89547 0.994521 0.5
      vertex 8.89547 8.00548 0.5
    endloop
  endfacet
  facet normal 0 0 1
    outer loop
      vertex 8.69098 8.04894 0.5
      vertex 8.69098 0.951056 0.5
      vertex 8.89547 0.994521 0.5
    endloop
  endfacet
  facet normal 0 0 1
    outer loop
      vertex 8.5 8.13397 0.5
      vertex 8.69098 0.951056 0.5
      vertex 8.69098 8.04894 0.5
    endloop
  endfacet
  facet normal 0 0 1
    outer loop
      vertex 8.5 8.13397 0.5
      vertex 8.5 0.866025 0.5
      vertex 8.69098 0.951056 0.5
    endloop
  endfacet
  facet normal 0 0 1
    outer loop
      vertex 8.33087 8.25686 0.5
      vertex 8.5 0.866025 0.5
      vertex 8.5 8.13397 0.5
    endloop
  endfacet
  facet normal 0 0 1
    outer loop
      vertex 8.33087 8.25686 0.5
      vertex 8.33087 0.743144 0.5
      vertex 8.5 0.866025 0.5
    endloop
  endfacet
  facet normal 0 0 1
    outer loop
      vertex 8.19098 8.41221 0.5
      vertex 8.33087 0.743144 0.5
      vertex 8.33087 8.25686 0.5
    endloop
  endfacet
  facet normal 0 0 1
    outer loop
      vertex 8.19098 8.41221 0.5
      vertex 8.19098 0.587785 0.5
      vertex 8.33087 0.743144 0.5
    endloop
  endfacet
  facet normal 0 0 1
    outer loop
      vertex 8.08645 8.59326 0.5
      vertex 8.19098 0.587785 0.5
      vertex 8.19098 8.41221 0.5
    endloop
  endfacet
  facet normal 0 0 1
    outer loop
      vertex 8.08645 8.59326 0.5
      vertex 8.08645 0.406736 0.5
      vertex 8.19098 0.587785 0.5
    endloop
  endfacet
  facet normal 0 0 1
    outer loop
      vertex -8.19098 0.587785 0.5
      vertex 8.08645 8.59326 0.5
      vertex 8.02185 8.79209 0.5
    endloop
  endfacet
  facet normal 0 0 1
    outer loop
      vertex 8.08645 8.59326 0.5
      vertex -8.08645 0.406736 0.5
      vertex 8.08645 0.406736 0.5
    endloop
  endfacet
  facet normal 0 0 1
    outer loop
      vertex -8.33087 0.743144 0.5
      vertex 8.02185 8.79209 0.5
      vertex 8 9 0.5
    endloop
  endfacet
  facet normal 0 0 1
    outer loop
      vertex 8.08645 0.406736 0.5
      vertex -8.08645 0.406736 0.5
      vertex 8.02185 0.207911 0.5
    endloop
  endfacet
  facet normal 0 0 1
    outer loop
      vertex 9.97815 8.79209 0.5
      vertex 11.6 11.6 0.5
      vertex 10 9 0.5
    endloop
  endfacet
  facet normal 0 0 1
    outer loop
      vertex 11.6 11.6 0.5
      vertex 9.97815 9.20791 0.5
      vertex 10 9 0.5
    endloop
  endfacet
  facet normal 0 0 1
    outer loop
      vertex 11.6 11.6 0.5
      vertex 9.91354 9.40674 0.5
      vertex 9.97815 9.20791 0.5
    endloop
  endfacet
  facet normal 0 0 1
    outer loop
      vertex 11.6 11.6 0.5
      vertex 9.80902 9.58778 0.5
      vertex 9.91354 9.40674 0.5
    endloop
  endfacet
  facet normal 0 0 1
    outer loop
      vertex 11.6 11.6 0.5
      vertex 9.66913 9.74314 0.5
      vertex 9.80902 9.58778 0.5
    endloop
  endfacet
  facet normal 0 0 1
    outer loop
      vertex 11.6 11.6 0.5
      vertex 9.5 9.86602 0.5
      vertex 9.66913 9.74314 0.5
    endloop
  endfacet
  facet normal 0 0 1
    outer loop
      vertex 11.6 11.6 0.5
      vertex 9.30902 9.95106 0.5
      vertex 9.5 9.86602 0.5
    endloop
  endfacet
  facet normal 0 0 1
    outer loop
      vertex 11.6 11.6 0.5
      vertex 9.10453 9.99452 0.5
      vertex 9.30902 9.95106 0.5
    endloop
  endfacet
  facet normal 0 0 1
    outer loop
      vertex 11.6 11.6 0.5
      vertex 8.89547 9.99452 0.5
      vertex 9.10453 9.99452 0.5
    endloop
  endfacet
  facet normal 0 0 1
    outer loop
      vertex 11.6 11.6 0.5
      vertex 8.69098 9.95106 0.5
      vertex 8.89547 9.99452 0.5
    endloop
  endfacet
  facet normal 0 0 1
    outer loop
      vertex 11.6 11.6 0.5
      vertex 8.5 9.86602 0.5
      vertex 8.69098 9.95106 0.5
    endloop
  endfacet
  facet normal 0 -0 1
    outer loop
      vertex -8.02185 0.207911 0.5
      vertex 8.02185 0.207911 0.5
      vertex -8.08645 0.406736 0.5
    endloop
  endfacet
  facet normal 0 0 1
    outer loop
      vertex -11.6 11.6 0.5
      vertex 8 9 0.5
      vertex 8.02185 9.20791 0.5
    endloop
  endfacet
  facet normal 0 0 1
    outer loop
      vertex -11.6 11.6 0.5
      vertex 8.02185 9.20791 0.5
      vertex 8.08645 9.40674 0.5
    endloop
  endfacet
  facet normal 0 0 1
    outer loop
      vertex -11.6 11.6 0.5
      vertex 8.08645 9.40674 0.5
      vertex 8.19098 9.58778 0.5
    endloop
  endfacet
  facet normal 0 0 1
    outer loop
      vertex -11.6 11.6 0.5
      vertex 8.19098 9.58778 0.5
      vertex 8.33087 9.74314 0.5
    endloop
  endfacet
  facet normal 0 0 1
    outer loop
      vertex -11.6 11.6 0.5
      vertex 8.33087 9.74314 0.5
      vertex 8.5 9.86602 0.5
    endloop
  endfacet
  facet normal 0 0 1
    outer loop
      vertex 8 0 0.5
      vertex -8.02185 0.207911 0.5
      vertex -8 0 0.5
    endloop
  endfacet
  facet normal 0 0 1
    outer loop
      vertex 8.02185 0.207911 0.5
      vertex -8.02185 0.207911 0.5
      vertex 8 0 0.5
    endloop
  endfacet
  facet normal 0 0 1
    outer loop
      vertex 8.08645 8.59326 0.5
      vertex -8.19098 0.587785 0.5
      vertex -8.08645 0.406736 0.5
    endloop
  endfacet
  facet normal -0 0 1
    outer loop
      vertex -11.6 11.6 0.5
      vertex 8.5 9.86602 0.5
      vertex 11.6 11.6 0.5
    endloop
  endfacet
  facet normal 0 0 1
    outer loop
      vertex 8.02185 8.79209 0.5
      vertex -8.33087 0.743144 0.5
      vertex -8.19098 0.587785 0.5
    endloop
  endfacet
  facet normal 0 0 1
    outer loop
      vertex 8 9 0.5
      vertex -11.6 11.6 0.5
      vertex -8.33087 0.743144 0.5
    endloop
  endfacet
  facet normal 0 0 1
    outer loop
      vertex -8.33087 0.743144 0.5
      vertex -11.6 11.6 0.5
      vertex -8.5 0.866025 0.5
    endloop
  endfacet
  facet normal 0 0 1
    outer loop
      vertex -8.5 0.866025 0.5
      vertex -11.6 11.6 0.5
      vertex -8.69098 0.951056 0.5
    endloop
  endfacet
  facet normal 0 0 1
    outer loop
      vertex -8.69098 0.951056 0.5
      vertex -11.6 11.6 0.5
      vertex -8.89547 0.994521 0.5
    endloop
  endfacet
  facet normal 0 0 1
    outer loop
      vertex -8.89547 0.994521 0.5
      vertex -11.6 11.6 0.5
      vertex -9.10453 0.994521 0.5
    endloop
  endfacet
  facet normal 0 0 1
    outer loop
      vertex -9.10453 0.994521 0.5
      vertex -11.6 11.6 0.5
      vertex -9.30902 0.951056 0.5
    endloop
  endfacet
  facet normal 0 0 1
    outer loop
      vertex -11.6 -11.6 0.5
      vertex -10 0 0.5
      vertex -11.6 11.6 0.5
    endloop
  endfacet
  facet normal 0 0 1
    outer loop
      vertex -9.97815 0.207911 0.5
      vertex -11.6 11.6 0.5
      vertex -10 0 0.5
    endloop
  endfacet
  facet normal 0 0 1
    outer loop
      vertex -9.91354 0.406736 0.5
      vertex -11.6 11.6 0.5
      vertex -9.97815 0.207911 0.5
    endloop
  endfacet
  facet normal 0 0 1
    outer loop
      vertex -9.80902 0.587785 0.5
      vertex -11.6 11.6 0.5
      vertex -9.91354 0.406736 0.5
    endloop
  endfacet
  facet normal 0 0 1
    outer loop
      vertex -9.66913 0.743144 0.5
      vertex -11.6 11.6 0.5
      vertex -9.80902 0.587785 0.5
    endloop
  endfacet
  facet normal 0 0 1
    outer loop
      vertex -9.5 0.866025 0.5
      vertex -11.6 11.6 0.5
      vertex -9.66913 0.743144 0.5
    endloop
  endfacet
  facet normal 0 0 1
    outer loop
      vertex -9.30902 0.951056 0.5
      vertex -11.6 11.6 0.5
      vertex -9.5 0.866025 0.5
    endloop
  endfacet
  facet normal 0 0 1
    outer loop
      vertex 11.6 11.6 0.5
      vertex 10 0 0.5
      vertex 11.6 -11.6 0.5
    endloop
  endfacet
  facet normal -0 0 1
    outer loop
      vertex 9.97815 -0.207911 0.5
      vertex 11.6 -11.6 0.5
      vertex 10 0 0.5
    endloop
  endfacet
  facet normal -0 0 1
    outer loop
      vertex 9.91354 -0.406736 0.5
      vertex 11.6 -11.6 0.5
      vertex 9.97815 -0.207911 0.5
    endloop
  endfacet
  facet normal -0 0 1
    outer loop
      vertex 9.80902 -0.587785 0.5
      vertex 11.6 -11.6 0.5
      vertex 9.91354 -0.406736 0.5
    endloop
  endfacet
  facet normal -0 0 1
    outer loop
      vertex 9.66913 -0.743144 0.5
      vertex 11.6 -11.6 0.5
      vertex 9.80902 -0.587785 0.5
    endloop
  endfacet
  facet normal -0 0 1
    outer loop
      vertex 9.5 -0.866025 0.5
      vertex 11.6 -11.6 0.5
      vertex 9.66913 -0.743144 0.5
    endloop
  endfacet
  facet normal -0 0 1
    outer loop
      vertex 9.30902 -0.951056 0.5
      vertex 11.6 -11.6 0.5
      vertex 9.5 -0.866025 0.5
    endloop
  endfacet
  facet normal -0 0 1
    outer loop
      vertex 9.10453 -0.994521 0.5
      vertex 11.6 -11.6 0.5
      vertex 9.30902 -0.951056 0.5
    endloop
  endfacet
  facet normal -0 0 1
    outer loop
      vertex 8.89547 -0.994521 0.5
      vertex 11.6 -11.6 0.5
      vertex 9.10453 -0.994521 0.5
    endloop
  endfacet
  facet normal 0 0 1
    outer loop
      vertex 8.69098 -0.951056 0.5
      vertex 11.6 -11.6 0.5
      vertex 8.89547 -0.994521 0.5
    endloop
  endfacet
  facet normal 0 0 1
    outer loop
      vertex 8.5 -0.866025 0.5
      vertex 11.6 -11.6 0.5
      vertex 8.69098 -0.951056 0.5
    endloop
  endfacet
  facet normal 0 0 1
    outer loop
      vertex 8.33087 -0.743144 0.5
      vertex 11.6 -11.6 0.5
      vertex 8.5 -0.866025 0.5
    endloop
  endfacet
  facet normal 0 0 1
    outer loop
      vertex -8 -9 0.5
      vertex 8.33087 -0.743144 0.5
      vertex 8.19098 -0.587785 0.5
    endloop
  endfacet
  facet normal 0 0 1
    outer loop
      vertex -8 -9 0.5
      vertex 8.19098 -0.587785 0.5
      vertex 8.08645 -0.406736 0.5
    endloop
  endfacet
  facet normal 0 0 1
    outer loop
      vertex -8.02185 -0.207911 0.5
      vertex 8.02185 -0.207911 0.5
      vertex -8 0 0.5
    endloop
  endfacet
  facet normal -0 0 1
    outer loop
      vertex -8 0 0.5
      vertex 8.02185 -0.207911 0.5
      vertex 8 0 0.5
    endloop
  endfacet
  facet normal 0 0 1
    outer loop
      vertex 8.02185 -0.207911 0.5
      vertex -8.02185 -0.207911 0.5
      vertex 8.08645 -0.406736 0.5
    endloop
  endfacet
  facet normal 0 0 1
    outer loop
      vertex 8.33087 -0.743144 0.5
      vertex -8 -9 0.5
      vertex 11.6 -11.6 0.5
    endloop
  endfacet
  facet normal -0 0 1
    outer loop
      vertex -8.02185 -9.20791 0.5
      vertex 11.6 -11.6 0.5
      vertex -8 -9 0.5
    endloop
  endfacet
  facet normal -0 0 1
    outer loop
      vertex -8.08645 -9.40674 0.5
      vertex 11.6 -11.6 0.5
      vertex -8.02185 -9.20791 0.5
    endloop
  endfacet
  facet normal -0 0 1
    outer loop
      vertex -8.19098 -9.58778 0.5
      vertex 11.6 -11.6 0.5
      vertex -8.08645 -9.40674 0.5
    endloop
  endfacet
  facet normal -0 0 1
    outer loop
      vertex -8.33087 -9.74314 0.5
      vertex 11.6 -11.6 0.5
      vertex -8.19098 -9.58778 0.5
    endloop
  endfacet
  facet normal -0 0 1
    outer loop
      vertex -8.5 -9.86602 0.5
      vertex 11.6 -11.6 0.5
      vertex -8.33087 -9.74314 0.5
    endloop
  endfacet
  facet normal 0 0 1
    outer loop
      vertex -11.6 -11.6 0.5
      vertex -8.5 -9.86602 0.5
      vertex -8.69098 -9.95106 0.5
    endloop
  endfacet
  facet normal 0 0 1
    outer loop
      vertex -11.6 -11.6 0.5
      vertex -8.69098 -9.95106 0.5
      vertex -8.89547 -9.99452 0.5
    endloop
  endfacet
  facet normal 0 0 1
    outer loop
      vertex -11.6 -11.6 0.5
      vertex -8.89547 -9.99452 0.5
      vertex -9.10453 -9.99452 0.5
    endloop
  endfacet
  facet normal 0 0 1
    outer loop
      vertex -8.5 -9.86602 0.5
      vertex -11.6 -11.6 0.5
      vertex 11.6 -11.6 0.5
    endloop
  endfacet
  facet normal 0 0 1
    outer loop
      vertex -9.30902 -9.95106 0.5
      vertex -11.6 -11.6 0.5
      vertex -9.10453 -9.99452 0.5
    endloop
  endfacet
  facet normal 0 0 1
    outer loop
      vertex -9.5 -9.86602 0.5
      vertex -11.6 -11.6 0.5
      vertex -9.30902 -9.95106 0.5
    endloop
  endfacet
  facet normal 0 0 1
    outer loop
      vertex -9.66913 -9.74314 0.5
      vertex -11.6 -11.6 0.5
      vertex -9.5 -9.86602 0.5
    endloop
  endfacet
  facet normal 0 0 1
    outer loop
      vertex -9.80902 -9.58778 0.5
      vertex -11.6 -11.6 0.5
      vertex -9.66913 -9.74314 0.5
    endloop
  endfacet
  facet normal 0 0 1
    outer loop
      vertex -9.91354 -9.40674 0.5
      vertex -11.6 -11.6 0.5
      vertex -9.80902 -9.58778 0.5
    endloop
  endfacet
  facet normal 0 0 1
    outer loop
      vertex -9.97815 -9.20791 0.5
      vertex -11.6 -11.6 0.5
      vertex -9.91354 -9.40674 0.5
    endloop
  endfacet
  facet normal 0 0 1
    outer loop
      vertex -10 -9 0.5
      vertex -11.6 -11.6 0.5
      vertex -9.97815 -9.20791 0.5
    endloop
  endfacet
  facet normal 0 0 1
    outer loop
      vertex -9.97815 -8.79209 0.5
      vertex -11.6 -11.6 0.5
      vertex -10 -9 0.5
    endloop
  endfacet
  facet normal 0 1 -0
    outer loop
      vertex 11.6 -11.6 0.5
      vertex -11.6 -11.6 2.5
      vertex 11.6 -11.6 2.5
    endloop
  endfacet
  facet normal 0 1 0
    outer loop
      vertex -11.6 -11.6 2.5
      vertex 11.6 -11.6 0.5
      vertex -11.6 -11.6 0.5
    endloop
  endfacet
  facet normal -0.866043 -0.499969 0
    outer loop
      vertex 9.91354 0.406736 -2.5
      vertex 9.80902 0.587785 0.5
      vertex 9.80902 0.587785 -2.5
    endloop
  endfacet
  facet normal -0.866043 -0.499969 0
    outer loop
      vertex 9.80902 0.587785 0.5
      vertex 9.91354 0.406736 -2.5
      vertex 9.91354 0.406736 0.5
    endloop
  endfacet
  facet normal 0.994523 -0.104517 0
    outer loop
      vertex 8 0 0.5
      vertex 8.02185 0.207911 -2.5
      vertex 8.02185 0.207911 0.5
    endloop
  endfacet
  facet normal 0.994523 -0.104517 0
    outer loop
      vertex 8.02185 0.207911 -2.5
      vertex 8 0 0.5
      vertex 8 0 -2.5
    endloop
  endfacet
  facet normal -0.743135 -0.669142 0
    outer loop
      vertex 9.80902 0.587785 -2.5
      vertex 9.66913 0.743144 0.5
      vertex 9.66913 0.743144 -2.5
    endloop
  endfacet
  facet normal -0.743135 -0.669142 0
    outer loop
      vertex 9.66913 0.743144 0.5
      vertex 9.80902 0.587785 -2.5
      vertex 9.80902 0.587785 0.5
    endloop
  endfacet
  facet normal -0.207909 -0.978148 0
    outer loop
      vertex 9.10453 0.994521 -2.5
      vertex 9.30902 0.951056 0.5
      vertex 9.10453 0.994521 0.5
    endloop
  endfacet
  facet normal -0.207909 -0.978148 -0
    outer loop
      vertex 9.30902 0.951056 0.5
      vertex 9.10453 0.994521 -2.5
      vertex 9.30902 0.951056 -2.5
    endloop
  endfacet
  facet normal 0.587788 -0.809015 0
    outer loop
      vertex 8.33087 0.743144 -2.5
      vertex 8.5 0.866025 0.5
      vertex 8.33087 0.743144 0.5
    endloop
  endfacet
  facet normal 0.587788 -0.809015 0
    outer loop
      vertex 8.5 0.866025 0.5
      vertex 8.33087 0.743144 -2.5
      vertex 8.5 0.866025 -2.5
    endloop
  endfacet
  facet normal 0.95106 -0.309008 0
    outer loop
      vertex 8.02185 0.207911 0.5
      vertex 8.08645 0.406736 -2.5
      vertex 8.08645 0.406736 0.5
    endloop
  endfacet
  facet normal 0.95106 -0.309008 0
    outer loop
      vertex 8.08645 0.406736 -2.5
      vertex 8.02185 0.207911 0.5
      vertex 8.02185 0.207911 -2.5
    endloop
  endfacet
  facet normal 0.743135 -0.669142 0
    outer loop
      vertex 8.19098 0.587785 0.5
      vertex 8.33087 0.743144 -2.5
      vertex 8.33087 0.743144 0.5
    endloop
  endfacet
  facet normal 0.743135 -0.669142 0
    outer loop
      vertex 8.33087 0.743144 -2.5
      vertex 8.19098 0.587785 0.5
      vertex 8.19098 0.587785 -2.5
    endloop
  endfacet
  facet normal -0.994523 0.104517 0
    outer loop
      vertex 9.97815 -0.207911 -2.5
      vertex 10 0 0.5
      vertex 10 0 -2.5
    endloop
  endfacet
  facet normal -0.994523 0.104517 0
    outer loop
      vertex 10 0 0.5
      vertex 9.97815 -0.207911 -2.5
      vertex 9.97815 -0.207911 0.5
    endloop
  endfacet
  facet normal -0.951045 -0.309051 0
    outer loop
      vertex 9.97815 0.207911 -2.5
      vertex 9.91354 0.406736 0.5
      vertex 9.91354 0.406736 -2.5
    endloop
  endfacet
  facet normal -0.951045 -0.309051 0
    outer loop
      vertex 9.91354 0.406736 0.5
      vertex 9.97815 0.207911 -2.5
      vertex 9.97815 0.207911 0.5
    endloop
  endfacet
  facet normal -0.587788 -0.809015 0
    outer loop
      vertex 9.5 0.866025 -2.5
      vertex 9.66913 0.743144 0.5
      vertex 9.5 0.866025 0.5
    endloop
  endfacet
  facet normal -0.587788 -0.809015 -0
    outer loop
      vertex 9.66913 0.743144 0.5
      vertex 9.5 0.866025 -2.5
      vertex 9.66913 0.743144 -2.5
    endloop
  endfacet
  facet normal 0.207909 -0.978148 0
    outer loop
      vertex 8.69098 0.951056 -2.5
      vertex 8.89547 0.994521 0.5
      vertex 8.69098 0.951056 0.5
    endloop
  endfacet
  facet normal 0.207909 -0.978148 0
    outer loop
      vertex 8.89547 0.994521 0.5
      vertex 8.69098 0.951056 -2.5
      vertex 8.89547 0.994521 -2.5
    endloop
  endfacet
  facet normal -0.406742 -0.913543 0
    outer loop
      vertex 9.30902 0.951056 -2.5
      vertex 9.5 0.866025 0.5
      vertex 9.30902 0.951056 0.5
    endloop
  endfacet
  facet normal -0.406742 -0.913543 -0
    outer loop
      vertex 9.5 0.866025 0.5
      vertex 9.30902 0.951056 -2.5
      vertex 9.5 0.866025 -2.5
    endloop
  endfacet
  facet normal 0.994523 0.104517 0
    outer loop
      vertex 8.02185 -0.207911 0.5
      vertex 8 0 -2.5
      vertex 8 0 0.5
    endloop
  endfacet
  facet normal 0.994523 0.104517 0
    outer loop
      vertex 8 0 -2.5
      vertex 8.02185 -0.207911 0.5
      vertex 8.02185 -0.207911 -2.5
    endloop
  endfacet
  facet normal 0.866023 -0.500005 0
    outer loop
      vertex 8.08645 0.406736 0.5
      vertex 8.19098 0.587785 -2.5
      vertex 8.19098 0.587785 0.5
    endloop
  endfacet
  facet normal 0.866023 -0.500005 0
    outer loop
      vertex 8.19098 0.587785 -2.5
      vertex 8.08645 0.406736 0.5
      vertex 8.08645 0.406736 -2.5
    endloop
  endfacet
  facet normal 0.406742 -0.913543 0
    outer loop
      vertex 8.5 0.866025 -2.5
      vertex 8.69098 0.951056 0.5
      vertex 8.5 0.866025 0.5
    endloop
  endfacet
  facet normal 0.406742 -0.913543 0
    outer loop
      vertex 8.69098 0.951056 0.5
      vertex 8.5 0.866025 -2.5
      vertex 8.69098 0.951056 -2.5
    endloop
  endfacet
  facet normal -0.994523 -0.104517 0
    outer loop
      vertex 10 0 -2.5
      vertex 9.97815 0.207911 0.5
      vertex 9.97815 0.207911 -2.5
    endloop
  endfacet
  facet normal -0.994523 -0.104517 0
    outer loop
      vertex 9.97815 0.207911 0.5
      vertex 10 0 -2.5
      vertex 10 0 0.5
    endloop
  endfacet
  facet normal -0.587788 0.809015 0
    outer loop
      vertex 9.66913 -0.743144 -2.5
      vertex 9.5 -0.866025 0.5
      vertex 9.66913 -0.743144 0.5
    endloop
  endfacet
  facet normal -0.587788 0.809015 0
    outer loop
      vertex 9.5 -0.866025 0.5
      vertex 9.66913 -0.743144 -2.5
      vertex 9.5 -0.866025 -2.5
    endloop
  endfacet
  facet normal -0.866043 0.499969 0
    outer loop
      vertex 9.80902 -0.587785 -2.5
      vertex 9.91354 -0.406736 0.5
      vertex 9.91354 -0.406736 -2.5
    endloop
  endfacet
  facet normal -0.866043 0.499969 0
    outer loop
      vertex 9.91354 -0.406736 0.5
      vertex 9.80902 -0.587785 -2.5
      vertex 9.80902 -0.587785 0.5
    endloop
  endfacet
  facet normal 0 1 -0
    outer loop
      vertex 9.10453 -0.994521 -2.5
      vertex 8.89547 -0.994521 0.5
      vertex 9.10453 -0.994521 0.5
    endloop
  endfacet
  facet normal 0 1 0
    outer loop
      vertex 8.89547 -0.994521 0.5
      vertex 9.10453 -0.994521 -2.5
      vertex 8.89547 -0.994521 -2.5
    endloop
  endfacet
  facet normal -0.406742 0.913543 0
    outer loop
      vertex 9.5 -0.866025 -2.5
      vertex 9.30902 -0.951056 0.5
      vertex 9.5 -0.866025 0.5
    endloop
  endfacet
  facet normal -0.406742 0.913543 0
    outer loop
      vertex 9.30902 -0.951056 0.5
      vertex 9.5 -0.866025 -2.5
      vertex 9.30902 -0.951056 -2.5
    endloop
  endfacet
  facet normal 0 -1 0
    outer loop
      vertex 8.89547 0.994521 -2.5
      vertex 9.10453 0.994521 0.5
      vertex 8.89547 0.994521 0.5
    endloop
  endfacet
  facet normal 0 -1 -0
    outer loop
      vertex 9.10453 0.994521 0.5
      vertex 8.89547 0.994521 -2.5
      vertex 9.10453 0.994521 -2.5
    endloop
  endfacet
  facet normal 0.95106 0.309008 0
    outer loop
      vertex 8.08645 -0.406736 0.5
      vertex 8.02185 -0.207911 -2.5
      vertex 8.02185 -0.207911 0.5
    endloop
  endfacet
  facet normal 0.95106 0.309008 0
    outer loop
      vertex 8.02185 -0.207911 -2.5
      vertex 8.08645 -0.406736 0.5
      vertex 8.08645 -0.406736 -2.5
    endloop
  endfacet
  facet normal -0.743135 0.669142 0
    outer loop
      vertex 9.66913 -0.743144 -2.5
      vertex 9.80902 -0.587785 0.5
      vertex 9.80902 -0.587785 -2.5
    endloop
  endfacet
  facet normal -0.743135 0.669142 0
    outer loop
      vertex 9.80902 -0.587785 0.5
      vertex 9.66913 -0.743144 -2.5
      vertex 9.66913 -0.743144 0.5
    endloop
  endfacet
  facet normal -0.951045 0.309051 0
    outer loop
      vertex 9.91354 -0.406736 -2.5
      vertex 9.97815 -0.207911 0.5
      vertex 9.97815 -0.207911 -2.5
    endloop
  endfacet
  facet normal -0.951045 0.309051 0
    outer loop
      vertex 9.97815 -0.207911 0.5
      vertex 9.91354 -0.406736 -2.5
      vertex 9.91354 -0.406736 0.5
    endloop
  endfacet
  facet normal 0.406742 0.913543 -0
    outer loop
      vertex 8.69098 -0.951056 -2.5
      vertex 8.5 -0.866025 0.5
      vertex 8.69098 -0.951056 0.5
    endloop
  endfacet
  facet normal 0.406742 0.913543 0
    outer loop
      vertex 8.5 -0.866025 0.5
      vertex 8.69098 -0.951056 -2.5
      vertex 8.5 -0.866025 -2.5
    endloop
  endfacet
  facet normal -0.207909 0.978148 0
    outer loop
      vertex 9.30902 -0.951056 -2.5
      vertex 9.10453 -0.994521 0.5
      vertex 9.30902 -0.951056 0.5
    endloop
  endfacet
  facet normal -0.207909 0.978148 0
    outer loop
      vertex 9.10453 -0.994521 0.5
      vertex 9.30902 -0.951056 -2.5
      vertex 9.10453 -0.994521 -2.5
    endloop
  endfacet
  facet normal 0.866023 0.500005 0
    outer loop
      vertex 8.19098 -0.587785 0.5
      vertex 8.08645 -0.406736 -2.5
      vertex 8.08645 -0.406736 0.5
    endloop
  endfacet
  facet normal 0.866023 0.500005 0
    outer loop
      vertex 8.08645 -0.406736 -2.5
      vertex 8.19098 -0.587785 0.5
      vertex 8.19098 -0.587785 -2.5
    endloop
  endfacet
  facet normal 0.587788 0.809015 -0
    outer loop
      vertex 8.5 -0.866025 -2.5
      vertex 8.33087 -0.743144 0.5
      vertex 8.5 -0.866025 0.5
    endloop
  endfacet
  facet normal 0.587788 0.809015 0
    outer loop
      vertex 8.33087 -0.743144 0.5
      vertex 8.5 -0.866025 -2.5
      vertex 8.33087 -0.743144 -2.5
    endloop
  endfacet
  facet normal 0.743135 0.669142 0
    outer loop
      vertex 8.33087 -0.743144 0.5
      vertex 8.19098 -0.587785 -2.5
      vertex 8.19098 -0.587785 0.5
    endloop
  endfacet
  facet normal 0.743135 0.669142 0
    outer loop
      vertex 8.19098 -0.587785 -2.5
      vertex 8.33087 -0.743144 0.5
      vertex 8.33087 -0.743144 -2.5
    endloop
  endfacet
  facet normal 0.207909 0.978148 -0
    outer loop
      vertex 8.89547 -0.994521 -2.5
      vertex 8.69098 -0.951056 0.5
      vertex 8.89547 -0.994521 0.5
    endloop
  endfacet
  facet normal 0.207909 0.978148 0
    outer loop
      vertex 8.69098 -0.951056 0.5
      vertex 8.89547 -0.994521 -2.5
      vertex 8.69098 -0.951056 -2.5
    endloop
  endfacet
  facet normal -0.866023 -0.500005 0
    outer loop
      vertex -8.08645 0.406736 -2.5
      vertex -8.19098 0.587785 0.5
      vertex -8.19098 0.587785 -2.5
    endloop
  endfacet
  facet normal -0.866023 -0.500005 0
    outer loop
      vertex -8.19098 0.587785 0.5
      vertex -8.08645 0.406736 -2.5
      vertex -8.08645 0.406736 0.5
    endloop
  endfacet
  facet normal -0.743135 -0.669142 0
    outer loop
      vertex -8.19098 0.587785 -2.5
      vertex -8.33087 0.743144 0.5
      vertex -8.33087 0.743144 -2.5
    endloop
  endfacet
  facet normal -0.743135 -0.669142 0
    outer loop
      vertex -8.33087 0.743144 0.5
      vertex -8.19098 0.587785 -2.5
      vertex -8.19098 0.587785 0.5
    endloop
  endfacet
  facet normal -0.207909 -0.978148 0
    outer loop
      vertex -8.89547 0.994521 -2.5
      vertex -8.69098 0.951056 0.5
      vertex -8.89547 0.994521 0.5
    endloop
  endfacet
  facet normal -0.207909 -0.978148 -0
    outer loop
      vertex -8.69098 0.951056 0.5
      vertex -8.89547 0.994521 -2.5
      vertex -8.69098 0.951056 -2.5
    endloop
  endfacet
  facet normal 0.207909 -0.978148 0
    outer loop
      vertex -9.30902 0.951056 -2.5
      vertex -9.10453 0.994521 0.5
      vertex -9.30902 0.951056 0.5
    endloop
  endfacet
  facet normal 0.207909 -0.978148 0
    outer loop
      vertex -9.10453 0.994521 0.5
      vertex -9.30902 0.951056 -2.5
      vertex -9.10453 0.994521 -2.5
    endloop
  endfacet
  facet normal 0.866043 -0.499969 0
    outer loop
      vertex -9.91354 0.406736 0.5
      vertex -9.80902 0.587785 -2.5
      vertex -9.80902 0.587785 0.5
    endloop
  endfacet
  facet normal 0.866043 -0.499969 0
    outer loop
      vertex -9.80902 0.587785 -2.5
      vertex -9.91354 0.406736 0.5
      vertex -9.91354 0.406736 -2.5
    endloop
  endfacet
  facet normal -0.994523 0.104517 0
    outer loop
      vertex -8.02185 -0.207911 -2.5
      vertex -8 0 0.5
      vertex -8 0 -2.5
    endloop
  endfacet
  facet normal -0.994523 0.104517 0
    outer loop
      vertex -8 0 0.5
      vertex -8.02185 -0.207911 -2.5
      vertex -8.02185 -0.207911 0.5
    endloop
  endfacet
  facet normal -0.587788 -0.809015 0
    outer loop
      vertex -8.5 0.866025 -2.5
      vertex -8.33087 0.743144 0.5
      vertex -8.5 0.866025 0.5
    endloop
  endfacet
  facet normal -0.587788 -0.809015 -0
    outer loop
      vertex -8.33087 0.743144 0.5
      vertex -8.5 0.866025 -2.5
      vertex -8.33087 0.743144 -2.5
    endloop
  endfacet
  facet normal 0 -1 0
    outer loop
      vertex -9.10453 0.994521 -2.5
      vertex -8.89547 0.994521 0.5
      vertex -9.10453 0.994521 0.5
    endloop
  endfacet
  facet normal 0 -1 -0
    outer loop
      vertex -8.89547 0.994521 0.5
      vertex -9.10453 0.994521 -2.5
      vertex -8.89547 0.994521 -2.5
    endloop
  endfacet
  facet normal -0.406742 -0.913543 0
    outer loop
      vertex -8.69098 0.951056 -2.5
      vertex -8.5 0.866025 0.5
      vertex -8.69098 0.951056 0.5
    endloop
  endfacet
  facet normal -0.406742 -0.913543 -0
    outer loop
      vertex -8.5 0.866025 0.5
      vertex -8.69098 0.951056 -2.5
      vertex -8.5 0.866025 -2.5
    endloop
  endfacet
  facet normal 0.994523 -0.104517 0
    outer loop
      vertex -10 0 0.5
      vertex -9.97815 0.207911 -2.5
      vertex -9.97815 0.207911 0.5
    endloop
  endfacet
  facet normal 0.994523 -0.104517 0
    outer loop
      vertex -9.97815 0.207911 -2.5
      vertex -10 0 0.5
      vertex -10 0 -2.5
    endloop
  endfacet
  facet normal 0.743135 -0.669142 0
    outer loop
      vertex -9.80902 0.587785 0.5
      vertex -9.66913 0.743144 -2.5
      vertex -9.66913 0.743144 0.5
    endloop
  endfacet
  facet normal 0.743135 -0.669142 0
    outer loop
      vertex -9.66913 0.743144 -2.5
      vertex -9.80902 0.587785 0.5
      vertex -9.80902 0.587785 -2.5
    endloop
  endfacet
  facet normal 0.406742 -0.913543 0
    outer loop
      vertex -9.5 0.866025 -2.5
      vertex -9.30902 0.951056 0.5
      vertex -9.5 0.866025 0.5
    endloop
  endfacet
  facet normal 0.406742 -0.913543 0
    outer loop
      vertex -9.30902 0.951056 0.5
      vertex -9.5 0.866025 -2.5
      vertex -9.30902 0.951056 -2.5
    endloop
  endfacet
  facet normal 0.587788 -0.809015 0
    outer loop
      vertex -9.66913 0.743144 -2.5
      vertex -9.5 0.866025 0.5
      vertex -9.66913 0.743144 0.5
    endloop
  endfacet
  facet normal 0.587788 -0.809015 0
    outer loop
      vertex -9.5 0.866025 0.5
      vertex -9.66913 0.743144 -2.5
      vertex -9.5 0.866025 -2.5
    endloop
  endfacet
  facet normal -0.994523 -0.104517 0
    outer loop
      vertex -8 0 -2.5
      vertex -8.02185 0.207911 0.5
      vertex -8.02185 0.207911 -2.5
    endloop
  endfacet
  facet normal -0.994523 -0.104517 0
    outer loop
      vertex -8.02185 0.207911 0.5
      vertex -8 0 -2.5
      vertex -8 0 0.5
    endloop
  endfacet
  facet normal -0.587788 0.809015 0
    outer loop
      vertex -8.33087 -0.743144 -2.5
      vertex -8.5 -0.866025 0.5
      vertex -8.33087 -0.743144 0.5
    endloop
  endfacet
  facet normal -0.587788 0.809015 0
    outer loop
      vertex -8.5 -0.866025 0.5
      vertex -8.33087 -0.743144 -2.5
      vertex -8.5 -0.866025 -2.5
    endloop
  endfacet
  facet normal -0.95106 0.309008 0
    outer loop
      vertex -8.08645 -0.406736 -2.5
      vertex -8.02185 -0.207911 0.5
      vertex -8.02185 -0.207911 -2.5
    endloop
  endfacet
  facet normal -0.95106 0.309008 0
    outer loop
      vertex -8.02185 -0.207911 0.5
      vertex -8.08645 -0.406736 -2.5
      vertex -8.08645 -0.406736 0.5
    endloop
  endfacet
  facet normal -0.95106 -0.309008 0
    outer loop
      vertex -8.02185 0.207911 -2.5
      vertex -8.08645 0.406736 0.5
      vertex -8.08645 0.406736 -2.5
    endloop
  endfacet
  facet normal -0.95106 -0.309008 0
    outer loop
      vertex -8.08645 0.406736 0.5
      vertex -8.02185 0.207911 -2.5
      vertex -8.02185 0.207911 0.5
    endloop
  endfacet
  facet normal 0.951045 -0.309051 0
    outer loop
      vertex -9.97815 0.207911 0.5
      vertex -9.91354 0.406736 -2.5
      vertex -9.91354 0.406736 0.5
    endloop
  endfacet
  facet normal 0.951045 -0.309051 0
    outer loop
      vertex -9.91354 0.406736 -2.5
      vertex -9.97815 0.207911 0.5
      vertex -9.97815 0.207911 -2.5
    endloop
  endfacet
  facet normal 0.207909 0.978148 -0
    outer loop
      vertex -9.10453 -0.994521 -2.5
      vertex -9.30902 -0.951056 0.5
      vertex -9.10453 -0.994521 0.5
    endloop
  endfacet
  facet normal 0.207909 0.978148 0
    outer loop
      vertex -9.30902 -0.951056 0.5
      vertex -9.10453 -0.994521 -2.5
      vertex -9.30902 -0.951056 -2.5
    endloop
  endfacet
  facet normal 0.994523 0.104517 0
    outer loop
      vertex -9.97815 -0.207911 0.5
      vertex -10 0 -2.5
      vertex -10 0 0.5
    endloop
  endfacet
  facet normal 0.994523 0.104517 0
    outer loop
      vertex -10 0 -2.5
      vertex -9.97815 -0.207911 0.5
      vertex -9.97815 -0.207911 -2.5
    endloop
  endfacet
  facet normal 0.866043 0.499969 0
    outer loop
      vertex -9.80902 -0.587785 0.5
      vertex -9.91354 -0.406736 -2.5
      vertex -9.91354 -0.406736 0.5
    endloop
  endfacet
  facet normal 0.866043 0.499969 0
    outer loop
      vertex -9.91354 -0.406736 -2.5
      vertex -9.80902 -0.587785 0.5
      vertex -9.80902 -0.587785 -2.5
    endloop
  endfacet
  facet normal -0.207909 0.978148 0
    outer loop
      vertex -8.69098 -0.951056 -2.5
      vertex -8.89547 -0.994521 0.5
      vertex -8.69098 -0.951056 0.5
    endloop
  endfacet
  facet normal -0.207909 0.978148 0
    outer loop
      vertex -8.89547 -0.994521 0.5
      vertex -8.69098 -0.951056 -2.5
      vertex -8.89547 -0.994521 -2.5
    endloop
  endfacet
  facet normal -0.406742 0.913543 0
    outer loop
      vertex -8.5 -0.866025 -2.5
      vertex -8.69098 -0.951056 0.5
      vertex -8.5 -0.866025 0.5
    endloop
  endfacet
  facet normal -0.406742 0.913543 0
    outer loop
      vertex -8.69098 -0.951056 0.5
      vertex -8.5 -0.866025 -2.5
      vertex -8.69098 -0.951056 -2.5
    endloop
  endfacet
  facet normal -0.743135 0.669142 0
    outer loop
      vertex -8.33087 -0.743144 -2.5
      vertex -8.19098 -0.587785 0.5
      vertex -8.19098 -0.587785 -2.5
    endloop
  endfacet
  facet normal -0.743135 0.669142 0
    outer loop
      vertex -8.19098 -0.587785 0.5
      vertex -8.33087 -0.743144 -2.5
      vertex -8.33087 -0.743144 0.5
    endloop
  endfacet
  facet normal -0.866023 0.500005 0
    outer loop
      vertex -8.19098 -0.587785 -2.5
      vertex -8.08645 -0.406736 0.5
      vertex -8.08645 -0.406736 -2.5
    endloop
  endfacet
  facet normal -0.866023 0.500005 0
    outer loop
      vertex -8.08645 -0.406736 0.5
      vertex -8.19098 -0.587785 -2.5
      vertex -8.19098 -0.587785 0.5
    endloop
  endfacet
  facet normal 0.587788 0.809015 -0
    outer loop
      vertex -9.5 -0.866025 -2.5
      vertex -9.66913 -0.743144 0.5
      vertex -9.5 -0.866025 0.5
    endloop
  endfacet
  facet normal 0.587788 0.809015 0
    outer loop
      vertex -9.66913 -0.743144 0.5
      vertex -9.5 -0.866025 -2.5
      vertex -9.66913 -0.743144 -2.5
    endloop
  endfacet
  facet normal 0 1 -0
    outer loop
      vertex -8.89547 -0.994521 -2.5
      vertex -9.10453 -0.994521 0.5
      vertex -8.89547 -0.994521 0.5
    endloop
  endfacet
  facet normal 0 1 0
    outer loop
      vertex -9.10453 -0.994521 0.5
      vertex -8.89547 -0.994521 -2.5
      vertex -9.10453 -0.994521 -2.5
    endloop
  endfacet
  facet normal 0.406742 0.913543 -0
    outer loop
      vertex -9.30902 -0.951056 -2.5
      vertex -9.5 -0.866025 0.5
      vertex -9.30902 -0.951056 0.5
    endloop
  endfacet
  facet normal 0.406742 0.913543 0
    outer loop
      vertex -9.5 -0.866025 0.5
      vertex -9.30902 -0.951056 -2.5
      vertex -9.5 -0.866025 -2.5
    endloop
  endfacet
  facet normal 0.951045 0.309051 0
    outer loop
      vertex -9.91354 -0.406736 0.5
      vertex -9.97815 -0.207911 -2.5
      vertex -9.97815 -0.207911 0.5
    endloop
  endfacet
  facet normal 0.951045 0.309051 0
    outer loop
      vertex -9.97815 -0.207911 -2.5
      vertex -9.91354 -0.406736 0.5
      vertex -9.91354 -0.406736 -2.5
    endloop
  endfacet
  facet normal 0.743135 0.669142 0
    outer loop
      vertex -9.66913 -0.743144 0.5
      vertex -9.80902 -0.587785 -2.5
      vertex -9.80902 -0.587785 0.5
    endloop
  endfacet
  facet normal 0.743135 0.669142 0
    outer loop
      vertex -9.80902 -0.587785 -2.5
      vertex -9.66913 -0.743144 0.5
      vertex -9.66913 -0.743144 -2.5
    endloop
  endfacet
  facet normal -0.866033 -0.499987 0
    outer loop
      vertex 9.91354 9.40674 -2.5
      vertex 9.80902 9.58778 0.5
      vertex 9.80902 9.58778 -2.5
    endloop
  endfacet
  facet normal -0.866033 -0.499987 0
    outer loop
      vertex 9.80902 9.58778 0.5
      vertex 9.91354 9.40674 -2.5
      vertex 9.91354 9.40674 0.5
    endloop
  endfacet
  facet normal 0.994523 -0.104518 0
    outer loop
      vertex 8 9 0.5
      vertex 8.02185 9.20791 -2.5
      vertex 8.02185 9.20791 0.5
    endloop
  endfacet
  facet normal 0.994523 -0.104518 0
    outer loop
      vertex 8.02185 9.20791 -2.5
      vertex 8 9 0.5
      vertex 8 9 -2.5
    endloop
  endfacet
  facet normal -0.743137 -0.669139 0
    outer loop
      vertex 9.80902 9.58778 -2.5
      vertex 9.66913 9.74314 0.5
      vertex 9.66913 9.74314 -2.5
    endloop
  endfacet
  facet normal -0.743137 -0.669139 0
    outer loop
      vertex 9.66913 9.74314 0.5
      vertex 9.80902 9.58778 -2.5
      vertex 9.80902 9.58778 0.5
    endloop
  endfacet
  facet normal -0.207886 -0.978153 0
    outer loop
      vertex 9.10453 9.99452 -2.5
      vertex 9.30902 9.95106 0.5
      vertex 9.10453 9.99452 0.5
    endloop
  endfacet
  facet normal -0.207886 -0.978153 -0
    outer loop
      vertex 9.30902 9.95106 0.5
      vertex 9.10453 9.99452 -2.5
      vertex 9.30902 9.95106 -2.5
    endloop
  endfacet
  facet normal 0.587785 -0.809017 0
    outer loop
      vertex 8.33087 9.74314 -2.5
      vertex 8.5 9.86602 0.5
      vertex 8.33087 9.74314 0.5
    endloop
  endfacet
  facet normal 0.587785 -0.809017 0
    outer loop
      vertex 8.5 9.86602 0.5
      vertex 8.33087 9.74314 -2.5
      vertex 8.5 9.86602 -2.5
    endloop
  endfacet
  facet normal -0.994523 0.104518 0
    outer loop
      vertex 9.97815 8.79209 -2.5
      vertex 10 9 0.5
      vertex 10 9 -2.5
    endloop
  endfacet
  facet normal -0.994523 0.104518 0
    outer loop
      vertex 10 9 0.5
      vertex 9.97815 8.79209 -2.5
      vertex 9.97815 8.79209 0.5
    endloop
  endfacet
  facet normal -0.406738 0.913545 0
    outer loop
      vertex 9.5 8.13397 -2.5
      vertex 9.30902 8.04894 0.5
      vertex 9.5 8.13397 0.5
    endloop
  endfacet
  facet normal -0.406738 0.913545 0
    outer loop
      vertex 9.30902 8.04894 0.5
      vertex 9.5 8.13397 -2.5
      vertex 9.30902 8.04894 -2.5
    endloop
  endfacet
  facet normal -0.587785 -0.809017 0
    outer loop
      vertex 9.5 9.86602 -2.5
      vertex 9.66913 9.74314 0.5
      vertex 9.5 9.86602 0.5
    endloop
  endfacet
  facet normal -0.587785 -0.809017 -0
    outer loop
      vertex 9.66913 9.74314 0.5
      vertex 9.5 9.86602 -2.5
      vertex 9.66913 9.74314 -2.5
    endloop
  endfacet
  facet normal 0.207886 -0.978153 0
    outer loop
      vertex 8.69098 9.95106 -2.5
      vertex 8.89547 9.99452 0.5
      vertex 8.69098 9.95106 0.5
    endloop
  endfacet
  facet normal 0.207886 -0.978153 0
    outer loop
      vertex 8.89547 9.99452 0.5
      vertex 8.69098 9.95106 -2.5
      vertex 8.89547 9.99452 -2.5
    endloop
  endfacet
  facet normal -0.406777 -0.913527 0
    outer loop
      vertex 9.30902 9.95106 -2.5
      vertex 9.5 9.86602 0.5
      vertex 9.30902 9.95106 0.5
    endloop
  endfacet
  facet normal -0.406777 -0.913527 -0
    outer loop
      vertex 9.5 9.86602 0.5
      vertex 9.30902 9.95106 -2.5
      vertex 9.5 9.86602 -2.5
    endloop
  endfacet
  facet normal 0.994523 0.104518 0
    outer loop
      vertex 8.02185 8.79209 0.5
      vertex 8 9 -2.5
      vertex 8 9 0.5
    endloop
  endfacet
  facet normal 0.994523 0.104518 0
    outer loop
      vertex 8 9 -2.5
      vertex 8.02185 8.79209 0.5
      vertex 8.02185 8.79209 -2.5
    endloop
  endfacet
  facet normal 0.951062 -0.309001 0
    outer loop
      vertex 8.02185 9.20791 0.5
      vertex 8.08645 9.40674 -2.5
      vertex 8.08645 9.40674 0.5
    endloop
  endfacet
  facet normal 0.951062 -0.309001 0
    outer loop
      vertex 8.08645 9.40674 -2.5
      vertex 8.02185 9.20791 0.5
      vertex 8.02185 9.20791 -2.5
    endloop
  endfacet
  facet normal 0.743137 -0.669139 0
    outer loop
      vertex 8.19098 9.58778 0.5
      vertex 8.33087 9.74314 -2.5
      vertex 8.33087 9.74314 0.5
    endloop
  endfacet
  facet normal 0.743137 -0.669139 0
    outer loop
      vertex 8.33087 9.74314 -2.5
      vertex 8.19098 9.58778 0.5
      vertex 8.19098 9.58778 -2.5
    endloop
  endfacet
  facet normal 0.406777 -0.913527 0
    outer loop
      vertex 8.5 9.86602 -2.5
      vertex 8.69098 9.95106 0.5
      vertex 8.5 9.86602 0.5
    endloop
  endfacet
  facet normal 0.406777 -0.913527 0
    outer loop
      vertex 8.69098 9.95106 0.5
      vertex 8.5 9.86602 -2.5
      vertex 8.69098 9.95106 -2.5
    endloop
  endfacet
  facet normal 0.866012 -0.500023 0
    outer loop
      vertex 8.08645 9.40674 0.5
      vertex 8.19098 9.58778 -2.5
      vertex 8.19098 9.58778 0.5
    endloop
  endfacet
  facet normal 0.866012 -0.500023 0
    outer loop
      vertex 8.19098 9.58778 -2.5
      vertex 8.08645 9.40674 0.5
      vertex 8.08645 9.40674 -2.5
    endloop
  endfacet
  facet normal -0.994523 -0.104518 0
    outer loop
      vertex 10 9 -2.5
      vertex 9.97815 9.20791 0.5
      vertex 9.97815 9.20791 -2.5
    endloop
  endfacet
  facet normal -0.994523 -0.104518 0
    outer loop
      vertex 9.97815 9.20791 0.5
      vertex 10 9 -2.5
      vertex 10 9 0.5
    endloop
  endfacet
  facet normal -0.743116 0.669163 0
    outer loop
      vertex 9.66913 8.25686 -2.5
      vertex 9.80902 8.41221 0.5
      vertex 9.80902 8.41221 -2.5
    endloop
  endfacet
  facet normal -0.743116 0.669163 0
    outer loop
      vertex 9.80902 8.41221 0.5
      vertex 9.66913 8.25686 -2.5
      vertex 9.66913 8.25686 0.5
    endloop
  endfacet
  facet normal 0 1 -0
    outer loop
      vertex 9.10453 8.00548 -2.5
      vertex 8.89547 8.00548 0.5
      vertex 9.10453 8.00548 0.5
    endloop
  endfacet
  facet normal 0 1 0
    outer loop
      vertex 8.89547 8.00548 0.5
      vertex 9.10453 8.00548 -2.5
      vertex 8.89547 8.00548 -2.5
    endloop
  endfacet
  facet normal -0.951048 -0.309044 0
    outer loop
      vertex 9.97815 9.20791 -2.5
      vertex 9.91354 9.40674 0.5
      vertex 9.91354 9.40674 -2.5
    endloop
  endfacet
  facet normal -0.951048 -0.309044 0
    outer loop
      vertex 9.91354 9.40674 0.5
      vertex 9.97815 9.20791 -2.5
      vertex 9.97815 9.20791 0.5
    endloop
  endfacet
  facet normal 0 -1 0
    outer loop
      vertex 8.89547 9.99452 -2.5
      vertex 9.10453 9.99452 0.5
      vertex 8.89547 9.99452 0.5
    endloop
  endfacet
  facet normal 0 -1 -0
    outer loop
      vertex 9.10453 9.99452 0.5
      vertex 8.89547 9.99452 -2.5
      vertex 9.10453 9.99452 -2.5
    endloop
  endfacet
  facet normal 0.951062 0.309001 0
    outer loop
      vertex 8.08645 8.59326 0.5
      vertex 8.02185 8.79209 -2.5
      vertex 8.02185 8.79209 0.5
    endloop
  endfacet
  facet normal 0.951062 0.309001 0
    outer loop
      vertex 8.02185 8.79209 -2.5
      vertex 8.08645 8.59326 0.5
      vertex 8.08645 8.59326 -2.5
    endloop
  endfacet
  facet normal 0.743116 0.669163 0
    outer loop
      vertex 8.33087 8.25686 0.5
      vertex 8.19098 8.41221 -2.5
      vertex 8.19098 8.41221 0.5
    endloop
  endfacet
  facet normal 0.743116 0.669163 0
    outer loop
      vertex 8.19098 8.41221 -2.5
      vertex 8.33087 8.25686 0.5
      vertex 8.33087 8.25686 -2.5
    endloop
  endfacet
  facet normal -0.866045 0.499967 0
    outer loop
      vertex 9.80902 8.41221 -2.5
      vertex 9.91354 8.59326 0.5
      vertex 9.91354 8.59326 -2.5
    endloop
  endfacet
  facet normal -0.866045 0.499967 0
    outer loop
      vertex 9.91354 8.59326 0.5
      vertex 9.80902 8.41221 -2.5
      vertex 9.80902 8.41221 0.5
    endloop
  endfacet
  facet normal -0.951048 0.309044 0
    outer loop
      vertex 9.91354 8.59326 -2.5
      vertex 9.97815 8.79209 0.5
      vertex 9.97815 8.79209 -2.5
    endloop
  endfacet
  facet normal -0.951048 0.309044 0
    outer loop
      vertex 9.97815 8.79209 0.5
      vertex 9.91354 8.59326 -2.5
      vertex 9.91354 8.59326 0.5
    endloop
  endfacet
  facet normal 0.406738 0.913545 -0
    outer loop
      vertex 8.69098 8.04894 -2.5
      vertex 8.5 8.13397 0.5
      vertex 8.69098 8.04894 0.5
    endloop
  endfacet
  facet normal 0.406738 0.913545 0
    outer loop
      vertex 8.5 8.13397 0.5
      vertex 8.69098 8.04894 -2.5
      vertex 8.5 8.13397 -2.5
    endloop
  endfacet
  facet normal -0.207886 0.978153 0
    outer loop
      vertex 9.30902 8.04894 -2.5
      vertex 9.10453 8.00548 0.5
      vertex 9.30902 8.04894 0.5
    endloop
  endfacet
  facet normal -0.207886 0.978153 0
    outer loop
      vertex 9.10453 8.00548 0.5
      vertex 9.30902 8.04894 -2.5
      vertex 9.10453 8.00548 -2.5
    endloop
  endfacet
  facet normal 0.866024 0.500003 0
    outer loop
      vertex 8.19098 8.41221 0.5
      vertex 8.08645 8.59326 -2.5
      vertex 8.08645 8.59326 0.5
    endloop
  endfacet
  facet normal 0.866024 0.500003 0
    outer loop
      vertex 8.08645 8.59326 -2.5
      vertex 8.19098 8.41221 0.5
      vertex 8.19098 8.41221 -2.5
    endloop
  endfacet
  facet normal 0.587816 0.808995 -0
    outer loop
      vertex 8.5 8.13397 -2.5
      vertex 8.33087 8.25686 0.5
      vertex 8.5 8.13397 0.5
    endloop
  endfacet
  facet normal 0.587816 0.808995 0
    outer loop
      vertex 8.33087 8.25686 0.5
      vertex 8.5 8.13397 -2.5
      vertex 8.33087 8.25686 -2.5
    endloop
  endfacet
  facet normal -0.587816 0.808995 0
    outer loop
      vertex 9.66913 8.25686 -2.5
      vertex 9.5 8.13397 0.5
      vertex 9.66913 8.25686 0.5
    endloop
  endfacet
  facet normal -0.587816 0.808995 0
    outer loop
      vertex 9.5 8.13397 0.5
      vertex 9.66913 8.25686 -2.5
      vertex 9.5 8.13397 -2.5
    endloop
  endfacet
  facet normal 0.207886 0.978153 -0
    outer loop
      vertex 8.89547 8.00548 -2.5
      vertex 8.69098 8.04894 0.5
      vertex 8.89547 8.00548 0.5
    endloop
  endfacet
  facet normal 0.207886 0.978153 0
    outer loop
      vertex 8.69098 8.04894 0.5
      vertex 8.89547 8.00548 -2.5
      vertex 8.69098 8.04894 -2.5
    endloop
  endfacet
  facet normal -0.866024 -0.500003 0
    outer loop
      vertex -8.08645 -8.59326 -2.5
      vertex -8.19098 -8.41221 0.5
      vertex -8.19098 -8.41221 -2.5
    endloop
  endfacet
  facet normal -0.866024 -0.500003 0
    outer loop
      vertex -8.19098 -8.41221 0.5
      vertex -8.08645 -8.59326 -2.5
      vertex -8.08645 -8.59326 0.5
    endloop
  endfacet
  facet normal -0.743116 -0.669163 0
    outer loop
      vertex -8.19098 -8.41221 -2.5
      vertex -8.33087 -8.25686 0.5
      vertex -8.33087 -8.25686 -2.5
    endloop
  endfacet
  facet normal -0.743116 -0.669163 0
    outer loop
      vertex -8.33087 -8.25686 0.5
      vertex -8.19098 -8.41221 -2.5
      vertex -8.19098 -8.41221 0.5
    endloop
  endfacet
  facet normal -0.207886 -0.978153 0
    outer loop
      vertex -8.89547 -8.00548 -2.5
      vertex -8.69098 -8.04894 0.5
      vertex -8.89547 -8.00548 0.5
    endloop
  endfacet
  facet normal -0.207886 -0.978153 -0
    outer loop
      vertex -8.69098 -8.04894 0.5
      vertex -8.89547 -8.00548 -2.5
      vertex -8.69098 -8.04894 -2.5
    endloop
  endfacet
  facet normal -0.406738 -0.913545 0
    outer loop
      vertex -8.69098 -8.04894 -2.5
      vertex -8.5 -8.13397 0.5
      vertex -8.69098 -8.04894 0.5
    endloop
  endfacet
  facet normal -0.406738 -0.913545 -0
    outer loop
      vertex -8.5 -8.13397 0.5
      vertex -8.69098 -8.04894 -2.5
      vertex -8.5 -8.13397 -2.5
    endloop
  endfacet
  facet normal 0.207886 -0.978153 0
    outer loop
      vertex -9.30902 -8.04894 -2.5
      vertex -9.10453 -8.00548 0.5
      vertex -9.30902 -8.04894 0.5
    endloop
  endfacet
  facet normal 0.207886 -0.978153 0
    outer loop
      vertex -9.10453 -8.00548 0.5
      vertex -9.30902 -8.04894 -2.5
      vertex -9.10453 -8.00548 -2.5
    endloop
  endfacet
  facet normal 0.866045 -0.499967 0
    outer loop
      vertex -9.91354 -8.59326 0.5
      vertex -9.80902 -8.41221 -2.5
      vertex -9.80902 -8.41221 0.5
    endloop
  endfacet
  facet normal 0.866045 -0.499967 0
    outer loop
      vertex -9.80902 -8.41221 -2.5
      vertex -9.91354 -8.59326 0.5
      vertex -9.91354 -8.59326 -2.5
    endloop
  endfacet
  facet normal -0.994523 0.104518 0
    outer loop
      vertex -8.02185 -9.20791 -2.5
      vertex -8 -9 0.5
      vertex -8 -9 -2.5
    endloop
  endfacet
  facet normal -0.994523 0.104518 0
    outer loop
      vertex -8 -9 0.5
      vertex -8.02185 -9.20791 -2.5
      vertex -8.02185 -9.20791 0.5
    endloop
  endfacet
  facet normal -0.951062 -0.309001 0
    outer loop
      vertex -8.02185 -8.79209 -2.5
      vertex -8.08645 -8.59326 0.5
      vertex -8.08645 -8.59326 -2.5
    endloop
  endfacet
  facet normal -0.951062 -0.309001 0
    outer loop
      vertex -8.08645 -8.59326 0.5
      vertex -8.02185 -8.79209 -2.5
      vertex -8.02185 -8.79209 0.5
    endloop
  endfacet
  facet normal -0.587816 -0.808995 0
    outer loop
      vertex -8.5 -8.13397 -2.5
      vertex -8.33087 -8.25686 0.5
      vertex -8.5 -8.13397 0.5
    endloop
  endfacet
  facet normal -0.587816 -0.808995 -0
    outer loop
      vertex -8.33087 -8.25686 0.5
      vertex -8.5 -8.13397 -2.5
      vertex -8.33087 -8.25686 -2.5
    endloop
  endfacet
  facet normal 0 -1 0
    outer loop
      vertex -9.10453 -8.00548 -2.5
      vertex -8.89547 -8.00548 0.5
      vertex -9.10453 -8.00548 0.5
    endloop
  endfacet
  facet normal 0 -1 -0
    outer loop
      vertex -8.89547 -8.00548 0.5
      vertex -9.10453 -8.00548 -2.5
      vertex -8.89547 -8.00548 -2.5
    endloop
  endfacet
  facet normal 0.994523 -0.104518 0
    outer loop
      vertex -10 -9 0.5
      vertex -9.97815 -8.79209 -2.5
      vertex -9.97815 -8.79209 0.5
    endloop
  endfacet
  facet normal 0.994523 -0.104518 0
    outer loop
      vertex -9.97815 -8.79209 -2.5
      vertex -10 -9 0.5
      vertex -10 -9 -2.5
    endloop
  endfacet
  facet normal 0.743116 -0.669163 0
    outer loop
      vertex -9.80902 -8.41221 0.5
      vertex -9.66913 -8.25686 -2.5
      vertex -9.66913 -8.25686 0.5
    endloop
  endfacet
  facet normal 0.743116 -0.669163 0
    outer loop
      vertex -9.66913 -8.25686 -2.5
      vertex -9.80902 -8.41221 0.5
      vertex -9.80902 -8.41221 -2.5
    endloop
  endfacet
  facet normal 0.406738 -0.913545 0
    outer loop
      vertex -9.5 -8.13397 -2.5
      vertex -9.30902 -8.04894 0.5
      vertex -9.5 -8.13397 0.5
    endloop
  endfacet
  facet normal 0.406738 -0.913545 0
    outer loop
      vertex -9.30902 -8.04894 0.5
      vertex -9.5 -8.13397 -2.5
      vertex -9.30902 -8.04894 -2.5
    endloop
  endfacet
  facet normal 0.587816 -0.808995 0
    outer loop
      vertex -9.66913 -8.25686 -2.5
      vertex -9.5 -8.13397 0.5
      vertex -9.66913 -8.25686 0.5
    endloop
  endfacet
  facet normal 0.587816 -0.808995 0
    outer loop
      vertex -9.5 -8.13397 0.5
      vertex -9.66913 -8.25686 -2.5
      vertex -9.5 -8.13397 -2.5
    endloop
  endfacet
  facet normal -0.994523 -0.104518 0
    outer loop
      vertex -8 -9 -2.5
      vertex -8.02185 -8.79209 0.5
      vertex -8.02185 -8.79209 -2.5
    endloop
  endfacet
  facet normal -0.994523 -0.104518 0
    outer loop
      vertex -8.02185 -8.79209 0.5
      vertex -8 -9 -2.5
      vertex -8 -9 0.5
    endloop
  endfacet
  facet normal -0.587785 0.809017 0
    outer loop
      vertex -8.33087 -9.74314 -2.5
      vertex -8.5 -9.86602 0.5
      vertex -8.33087 -9.74314 0.5
    endloop
  endfacet
  facet normal -0.587785 0.809017 0
    outer loop
      vertex -8.5 -9.86602 0.5
      vertex -8.33087 -9.74314 -2.5
      vertex -8.5 -9.86602 -2.5
    endloop
  endfacet
  facet normal -0.951062 0.309001 0
    outer loop
      vertex -8.08645 -9.40674 -2.5
      vertex -8.02185 -9.20791 0.5
      vertex -8.02185 -9.20791 -2.5
    endloop
  endfacet
  facet normal -0.951062 0.309001 0
    outer loop
      vertex -8.02185 -9.20791 0.5
      vertex -8.08645 -9.40674 -2.5
      vertex -8.08645 -9.40674 0.5
    endloop
  endfacet
  facet normal 0.951048 -0.309044 0
    outer loop
      vertex -9.97815 -8.79209 0.5
      vertex -9.91354 -8.59326 -2.5
      vertex -9.91354 -8.59326 0.5
    endloop
  endfacet
  facet normal 0.951048 -0.309044 0
    outer loop
      vertex -9.91354 -8.59326 -2.5
      vertex -9.97815 -8.79209 0.5
      vertex -9.97815 -8.79209 -2.5
    endloop
  endfacet
  facet normal 0.207886 0.978153 -0
    outer loop
      vertex -9.10453 -9.99452 -2.5
      vertex -9.30902 -9.95106 0.5
      vertex -9.10453 -9.99452 0.5
    endloop
  endfacet
  facet normal 0.207886 0.978153 0
    outer loop
      vertex -9.30902 -9.95106 0.5
      vertex -9.10453 -9.99452 -2.5
      vertex -9.30902 -9.95106 -2.5
    endloop
  endfacet
  facet normal 0.994523 0.104518 0
    outer loop
      vertex -9.97815 -9.20791 0.5
      vertex -10 -9 -2.5
      vertex -10 -9 0.5
    endloop
  endfacet
  facet normal 0.994523 0.104518 0
    outer loop
      vertex -10 -9 -2.5
      vertex -9.97815 -9.20791 0.5
      vertex -9.97815 -9.20791 -2.5
    endloop
  endfacet
  facet normal -0.207886 0.978153 0
    outer loop
      vertex -8.69098 -9.95106 -2.5
      vertex -8.89547 -9.99452 0.5
      vertex -8.69098 -9.95106 0.5
    endloop
  endfacet
  facet normal -0.207886 0.978153 0
    outer loop
      vertex -8.89547 -9.99452 0.5
      vertex -8.69098 -9.95106 -2.5
      vertex -8.89547 -9.99452 -2.5
    endloop
  endfacet
  facet normal -0.406777 0.913527 0
    outer loop
      vertex -8.5 -9.86602 -2.5
      vertex -8.69098 -9.95106 0.5
      vertex -8.5 -9.86602 0.5
    endloop
  endfacet
  facet normal -0.406777 0.913527 0
    outer loop
      vertex -8.69098 -9.95106 0.5
      vertex -8.5 -9.86602 -2.5
      vertex -8.69098 -9.95106 -2.5
    endloop
  endfacet
  facet normal -0.743137 0.669139 0
    outer loop
      vertex -8.33087 -9.74314 -2.5
      vertex -8.19098 -9.58778 0.5
      vertex -8.19098 -9.58778 -2.5
    endloop
  endfacet
  facet normal -0.743137 0.669139 0
    outer loop
      vertex -8.19098 -9.58778 0.5
      vertex -8.33087 -9.74314 -2.5
      vertex -8.33087 -9.74314 0.5
    endloop
  endfacet
  facet normal -0.866012 0.500023 0
    outer loop
      vertex -8.19098 -9.58778 -2.5
      vertex -8.08645 -9.40674 0.5
      vertex -8.08645 -9.40674 -2.5
    endloop
  endfacet
  facet normal -0.866012 0.500023 0
    outer loop
      vertex -8.08645 -9.40674 0.5
      vertex -8.19098 -9.58778 -2.5
      vertex -8.19098 -9.58778 0.5
    endloop
  endfacet
  facet normal 0.587785 0.809017 -0
    outer loop
      vertex -9.5 -9.86602 -2.5
      vertex -9.66913 -9.74314 0.5
      vertex -9.5 -9.86602 0.5
    endloop
  endfacet
  facet normal 0.587785 0.809017 0
    outer loop
      vertex -9.66913 -9.74314 0.5
      vertex -9.5 -9.86602 -2.5
      vertex -9.66913 -9.74314 -2.5
    endloop
  endfacet
  facet normal 0 1 -0
    outer loop
      vertex -8.89547 -9.99452 -2.5
      vertex -9.10453 -9.99452 0.5
      vertex -8.89547 -9.99452 0.5
    endloop
  endfacet
  facet normal 0 1 0
    outer loop
      vertex -9.10453 -9.99452 0.5
      vertex -8.89547 -9.99452 -2.5
      vertex -9.10453 -9.99452 -2.5
    endloop
  endfacet
  facet normal 0.406777 0.913527 -0
    outer loop
      vertex -9.30902 -9.95106 -2.5
      vertex -9.5 -9.86602 0.5
      vertex -9.30902 -9.95106 0.5
    endloop
  endfacet
  facet normal 0.406777 0.913527 0
    outer loop
      vertex -9.5 -9.86602 0.5
      vertex -9.30902 -9.95106 -2.5
      vertex -9.5 -9.86602 -2.5
    endloop
  endfacet
  facet normal 0.951048 0.309044 0
    outer loop
      vertex -9.91354 -9.40674 0.5
      vertex -9.97815 -9.20791 -2.5
      vertex -9.97815 -9.20791 0.5
    endloop
  endfacet
  facet normal 0.951048 0.309044 0
    outer loop
      vertex -9.97815 -9.20791 -2.5
      vertex -9.91354 -9.40674 0.5
      vertex -9.91354 -9.40674 -2.5
    endloop
  endfacet
  facet normal 0.743137 0.669139 0
    outer loop
      vertex -9.66913 -9.74314 0.5
      vertex -9.80902 -9.58778 -2.5
      vertex -9.80902 -9.58778 0.5
    endloop
  endfacet
  facet normal 0.743137 0.669139 0
    outer loop
      vertex -9.80902 -9.58778 -2.5
      vertex -9.66913 -9.74314 0.5
      vertex -9.66913 -9.74314 -2.5
    endloop
  endfacet
  facet normal 0.866033 0.499987 0
    outer loop
      vertex -9.80902 -9.58778 0.5
      vertex -9.91354 -9.40674 -2.5
      vertex -9.91354 -9.40674 0.5
    endloop
  endfacet
  facet normal 0.866033 0.499987 0
    outer loop
      vertex -9.91354 -9.40674 -2.5
      vertex -9.80902 -9.58778 0.5
      vertex -9.80902 -9.58778 -2.5
    endloop
  endfacet
endsolid OpenSCAD_Model
